<svg id="svg" version="1.1" xmlns="http://www.w3.org/2000/svg" xmlns:xlink="http://www.w3.org/1999/xlink" width="400" height="215.25" viewBox="0, 0, 400,215.25"><g id="svgg"><path id="path0" d="M10.230 2.718 C 10.032 2.916,9.597 3.087,9.263 3.100 C 8.753 3.118,8.687 3.182,8.857 3.499 C 8.967 3.707,9.039 4.094,9.017 4.360 C 8.913 5.566,9.397 6.078,9.860 5.252 C 10.088 4.845,10.758 4.922,10.985 5.382 C 11.761 6.952,11.757 7.320,10.967 7.320 C 10.497 7.320,10.371 6.554,10.816 6.405 C 11.010 6.341,10.985 6.218,10.724 5.957 C 10.185 5.418,10.055 5.517,10.212 6.351 C 10.371 7.200,10.096 7.346,9.619 6.664 C 9.335 6.258,9.314 6.303,9.354 7.244 L 9.397 8.263 10.627 8.673 C 11.771 9.055,11.907 9.059,12.581 8.740 C 12.979 8.551,13.400 8.396,13.517 8.396 C 13.833 8.396,14.001 7.520,13.767 7.084 C 13.484 6.554,13.508 6.459,13.929 6.459 C 14.205 6.459,14.234 6.398,14.047 6.210 C 13.876 6.039,13.865 5.838,14.011 5.564 C 14.154 5.298,14.149 5.026,13.996 4.741 C 13.815 4.403,13.858 4.226,14.204 3.880 L 14.639 3.445 14.082 3.445 C 13.775 3.445,13.363 3.261,13.167 3.036 C 12.651 2.445,10.712 2.235,10.230 2.718 M32.723 5.452 C 32.723 7.948,32.753 8.134,33.222 8.574 C 33.815 9.132,34.015 9.162,34.015 8.696 C 34.015 8.477,34.134 8.396,34.338 8.474 C 34.591 8.571,34.661 8.416,34.661 7.756 C 34.661 6.132,35.195 6.540,35.355 8.287 C 35.394 8.704,35.549 8.956,35.798 9.003 C 36.151 9.070,36.177 8.881,36.121 6.672 L 36.060 4.267 34.940 3.794 C 33.281 3.093,33.303 2.939,35.038 3.093 C 36.034 3.182,36.598 3.154,36.598 3.015 C 36.598 2.886,35.818 2.799,34.661 2.799 L 32.723 2.799 32.723 5.452 M10.794 12.325 C 10.777 12.888,10.845 13.348,10.943 13.348 C 11.041 13.348,11.114 13.130,11.104 12.863 C 11.091 12.498,11.204 12.383,11.561 12.395 C 11.821 12.404,11.980 12.323,11.913 12.215 C 11.847 12.107,11.615 12.065,11.398 12.122 C 11.121 12.194,10.976 12.087,10.913 11.764 C 10.864 11.510,10.810 11.763,10.794 12.325 M15.562 12.379 C 15.564 12.971,15.606 13.188,15.655 12.860 C 15.705 12.533,15.703 12.049,15.652 11.784 C 15.601 11.519,15.560 11.787,15.562 12.379 M35.258 12.217 C 35.382 13.467,35.486 13.558,35.505 12.433 C 35.514 11.870,35.445 11.410,35.350 11.410 C 35.255 11.410,35.214 11.773,35.258 12.217 M6.172 11.769 C 5.976 11.964,5.989 12.868,6.189 12.991 C 6.278 13.046,6.351 12.761,6.351 12.358 C 6.351 11.955,6.343 11.625,6.333 11.625 C 6.323 11.625,6.250 11.690,6.172 11.769 M8.052 12.357 C 7.982 12.539,7.975 12.812,8.036 12.964 C 8.097 13.116,8.154 13.022,8.164 12.756 C 8.182 12.252,8.898 12.053,9.116 12.492 C 9.176 12.613,9.200 12.589,9.170 12.438 C 9.090 12.031,8.202 11.967,8.052 12.357 M12.630 12.199 C 12.413 12.416,12.458 13.089,12.699 13.239 C 12.819 13.312,12.859 13.231,12.791 13.053 C 12.709 12.842,12.836 12.704,13.170 12.641 C 13.665 12.546,13.664 12.545,13.132 12.501 C 12.634 12.460,12.626 12.443,13.025 12.271 C 13.341 12.135,13.365 12.082,13.114 12.071 C 12.927 12.063,12.709 12.121,12.630 12.199 M14.043 12.702 C 14.043 13.116,14.088 13.286,14.142 13.079 C 14.196 12.871,14.196 12.532,14.142 12.325 C 14.088 12.118,14.043 12.287,14.043 12.702 M16.365 12.863 C 16.367 13.102,16.426 13.151,16.526 12.996 C 16.613 12.862,16.878 12.703,17.115 12.644 C 17.445 12.562,17.407 12.531,16.954 12.512 C 16.523 12.493,16.363 12.589,16.365 12.863 M188.805 100.431 L 188.805 161.249 247.901 161.249 L 306.997 161.249 306.997 100.431 L 306.997 39.612 247.901 39.612 L 188.805 39.612 188.805 100.431 M194.792 42.680 L 194.726 43.595 193.810 43.595 C 193.197 43.595,192.895 43.689,192.895 43.879 C 192.895 44.061,192.684 44.138,192.304 44.094 C 191.804 44.037,191.712 43.925,191.712 43.380 C 191.712 42.817,191.787 42.735,192.304 42.743 C 192.779 42.749,192.896 42.654,192.896 42.258 C 192.896 41.817,192.998 41.765,193.877 41.765 L 194.858 41.765 194.792 42.680 M193.326 42.514 C 193.326 43.005,193.369 43.028,193.864 42.803 C 194.160 42.668,194.403 42.428,194.403 42.269 C 194.403 42.105,194.171 41.981,193.864 41.981 C 193.435 41.981,193.326 42.089,193.326 42.514 M211.410 43.645 C 211.233 43.712,211.016 43.874,210.929 44.004 C 210.831 44.150,210.770 44.097,210.768 43.864 C 210.765 43.611,210.923 43.493,211.249 43.505 C 211.572 43.516,211.626 43.562,211.410 43.645 M193.733 44.160 C 193.956 43.813,194.403 44.019,194.403 44.469 C 194.403 44.680,194.162 44.779,193.649 44.779 C 192.835 44.779,192.829 44.774,193.033 44.241 C 193.143 43.954,193.208 43.940,193.356 44.169 C 193.510 44.407,193.574 44.406,193.733 44.160 M303.983 58.342 L 303.983 66.093 247.901 66.093 L 191.819 66.093 191.819 58.342 L 191.819 50.592 247.901 50.592 L 303.983 50.592 303.983 58.342 M192.034 58.342 L 192.034 65.877 247.901 65.877 L 303.767 65.877 303.767 58.342 L 303.767 50.807 247.901 50.807 L 192.034 50.807 192.034 58.342 M210.334 81.378 L 210.334 90.420 201.184 90.420 L 192.034 90.420 192.034 81.378 L 192.034 72.336 201.184 72.336 L 210.334 72.336 210.334 81.378 M192.465 81.378 L 192.465 89.989 201.076 89.989 L 209.688 89.989 209.688 81.378 L 209.688 72.766 201.076 72.766 L 192.465 72.766 192.465 81.378 M278.313 81.432 L 278.369 89.774 269.970 89.774 L 261.572 89.774 261.572 81.375 L 261.572 72.977 269.914 73.033 L 278.256 73.089 278.313 81.432 M303.070 81.432 L 303.127 89.774 294.728 89.774 L 286.329 89.774 286.329 81.375 L 286.329 72.977 294.672 73.033 L 303.014 73.089 303.070 81.432 M223.964 76.961 C 225.466 77.589,225.861 79.080,224.843 80.288 L 224.283 80.954 225.059 81.812 C 226.351 83.243,225.903 84.862,224.015 85.583 C 221.077 86.705,218.727 83.607,220.945 81.535 L 221.593 80.930 221.022 80.335 C 219.273 78.509,221.514 75.938,223.964 76.961 M246.649 77.060 C 249.166 78.203,249.085 84.395,246.539 85.522 C 245.030 86.189,243.651 85.631,243.077 84.122 C 242.759 83.284,243.926 83.228,244.307 84.063 C 244.826 85.202,246.442 84.843,246.916 83.484 C 247.276 82.451,247.221 81.945,246.771 82.146 C 244.737 83.058,242.841 81.944,242.843 79.839 C 242.844 77.394,244.585 76.123,246.649 77.060 M292.443 77.267 C 289.795 78.470,289.747 83.921,292.372 85.260 C 293.951 86.066,296.670 85.692,297.377 84.571 C 298.062 83.487,298.048 83.100,297.323 83.100 C 296.919 83.100,296.663 83.211,296.663 83.386 C 296.663 84.493,294.280 85.175,293.068 84.413 C 291.246 83.269,291.136 79.389,292.892 78.239 C 294.146 77.417,296.303 77.871,296.604 79.020 C 296.705 79.407,297.955 79.676,297.955 79.311 C 297.955 77.452,294.697 76.244,292.443 77.267 M203.445 77.514 C 203.445 77.875,202.698 79.819,200.495 85.199 C 200.397 85.437,199.139 85.605,199.139 85.380 C 199.139 85.331,199.491 84.483,199.921 83.496 C 200.938 81.158,202.153 78.287,202.153 78.218 C 202.153 78.189,201.208 78.136,200.054 78.103 C 198.063 78.044,197.951 78.016,197.886 77.557 C 197.818 77.075,197.836 77.072,200.631 77.072 C 203.326 77.072,203.445 77.091,203.445 77.514 M222.007 78.053 C 221.153 78.651,221.860 80.517,222.940 80.517 C 223.282 80.517,224.327 79.294,224.327 78.894 C 224.327 77.980,222.867 77.451,222.007 78.053 M244.607 78.155 C 243.646 79.050,243.747 80.428,244.834 81.237 L 245.427 81.678 246.395 81.208 C 247.436 80.702,247.475 80.607,247.139 79.396 C 246.738 77.953,245.484 77.338,244.607 78.155 M268.891 79.656 L 268.891 80.732 267.707 80.732 C 266.588 80.732,266.523 80.761,266.523 81.270 C 266.523 81.779,266.588 81.808,267.707 81.808 L 268.891 81.808 268.891 82.885 C 268.891 83.818,268.949 83.961,269.322 83.961 C 269.695 83.961,269.752 83.818,269.752 82.885 L 269.752 81.808 270.936 81.808 C 272.056 81.808,272.121 81.779,272.121 81.270 C 272.121 80.761,272.056 80.732,270.936 80.732 L 269.752 80.732 269.752 79.656 C 269.752 78.723,269.695 78.579,269.322 78.579 C 268.949 78.579,268.891 78.723,268.891 79.656 M222.013 82.021 C 220.970 82.657,221.020 84.003,222.106 84.575 C 224.030 85.587,225.481 83.185,223.687 81.957 C 223.012 81.495,222.866 81.501,222.013 82.021 M278.364 104.413 L 278.364 112.809 269.968 112.809 L 261.572 112.809 261.572 104.413 L 261.572 96.017 269.968 96.017 L 278.364 96.017 278.364 104.413 M303.014 104.413 L 303.014 112.702 294.672 112.758 L 286.329 112.815 286.329 104.413 L 286.329 96.012 294.672 96.069 L 303.014 96.125 303.014 104.413 M296.349 98.762 C 296.137 100.526,295.135 106.659,295.044 106.750 C 295.002 106.792,294.466 105.823,293.853 104.597 C 293.240 103.371,292.713 102.340,292.682 102.305 C 292.529 102.134,291.066 103.027,291.066 103.292 C 291.066 103.479,291.192 103.547,291.389 103.468 C 291.566 103.396,291.855 103.279,292.030 103.208 C 292.268 103.111,292.686 103.786,293.696 105.899 C 295.169 108.979,295.278 109.104,295.451 107.912 C 295.727 106.010,296.272 102.439,296.564 100.619 C 296.925 98.365,296.959 97.524,296.688 97.524 C 296.583 97.524,296.431 98.081,296.349 98.762 M202.321 102.637 L 202.381 105.490 202.913 105.490 C 203.337 105.490,203.445 105.599,203.445 106.028 C 203.445 106.459,203.337 106.566,202.906 106.566 C 202.412 106.566,202.368 106.645,202.368 107.535 C 202.368 108.468,202.344 108.504,201.722 108.504 C 201.100 108.504,201.076 108.468,201.076 107.535 L 201.076 106.566 199.247 106.566 C 196.840 106.566,196.845 106.443,199.406 102.635 C 202.065 98.682,202.237 98.682,202.321 102.637 M247.132 100.100 C 247.826 100.454,248.439 101.331,248.439 101.970 C 248.439 102.308,247.213 101.966,247.037 101.578 C 246.326 100.017,244.520 100.825,244.191 102.852 C 244.078 103.549,244.105 103.608,244.476 103.454 C 245.979 102.832,245.988 102.831,246.830 103.249 C 249.642 104.645,248.804 108.721,245.705 108.718 C 243.678 108.716,242.714 107.071,242.885 103.904 C 243.071 100.461,244.802 98.911,247.132 100.100 M225.404 100.538 C 225.404 100.935,225.260 100.969,223.594 100.969 L 221.784 100.969 221.634 102.059 C 221.455 103.362,221.484 103.405,222.348 103.104 C 224.439 102.375,226.459 104.870,225.546 107.054 C 224.698 109.084,221.329 109.331,220.348 107.434 C 219.883 106.534,219.937 106.351,220.667 106.351 C 221.065 106.351,221.313 106.462,221.313 106.640 C 221.313 107.654,223.126 108.037,224.006 107.210 C 225.773 105.550,223.316 102.903,221.518 104.531 C 220.444 105.503,220.178 104.533,220.585 101.130 L 220.708 100.108 223.056 100.108 C 225.260 100.108,225.404 100.134,225.404 100.538 M199.796 103.664 C 198.471 105.636,198.463 105.490,199.892 105.490 L 201.076 105.490 201.076 103.767 C 201.076 101.674,201.130 101.678,199.796 103.664 M244.609 104.417 C 243.832 104.890,243.789 105.832,244.492 106.953 C 245.727 108.921,248.130 106.953,247.048 104.859 C 246.537 103.872,245.740 103.727,244.609 104.417 M267.815 105.274 C 267.815 105.667,267.958 105.705,269.429 105.705 C 270.901 105.705,271.044 105.667,271.044 105.274 C 271.044 104.882,270.901 104.844,269.429 104.844 C 267.958 104.844,267.815 104.882,267.815 105.274 M278.313 125.888 L 278.256 134.230 269.914 134.287 L 261.572 134.343 261.572 125.944 L 261.572 117.546 269.970 117.546 L 278.369 117.546 278.313 125.888 M303.070 125.888 L 303.014 134.230 294.672 134.287 L 286.329 134.343 286.329 125.944 L 286.329 117.546 294.728 117.546 L 303.127 117.546 303.070 125.888 M201.830 125.622 L 201.830 129.925 201.238 129.993 L 200.646 130.061 200.646 126.821 L 200.646 123.582 199.677 123.715 C 198.356 123.896,198.154 122.864,199.463 122.619 C 199.946 122.528,200.388 122.247,200.692 121.835 C 201.698 120.475,201.830 120.915,201.830 125.622 M224.198 121.506 C 226.510 122.472,226.197 124.416,223.288 127.171 L 221.421 128.939 223.520 128.947 C 225.613 128.956,225.619 128.957,225.619 129.494 L 225.619 130.032 222.728 130.032 L 219.836 130.032 220.036 129.335 C 220.168 128.875,220.969 127.937,222.389 126.578 C 224.730 124.338,224.928 123.906,224.096 122.849 C 223.395 121.957,221.656 122.239,221.392 123.288 C 221.296 123.671,221.117 123.789,220.630 123.789 C 220.070 123.789,220.010 123.730,220.137 123.305 C 220.664 121.539,222.419 120.762,224.198 121.506 M247.379 121.975 C 248.206 122.767,248.271 124.192,247.513 124.950 L 247.018 125.445 247.606 125.782 C 248.912 126.532,248.785 128.813,247.385 129.755 C 245.967 130.709,243.566 130.187,243.043 128.811 C 242.654 127.789,243.412 127.148,243.909 128.078 C 244.584 129.339,246.126 129.608,246.917 128.604 C 247.779 127.508,247.337 126.405,245.946 126.180 C 244.843 126.002,244.611 125.211,245.603 125.013 C 246.884 124.757,247.351 123.562,246.502 122.713 C 245.847 122.058,244.888 122.153,244.315 122.928 C 243.900 123.489,242.842 123.861,242.842 123.445 C 242.842 121.546,245.898 120.556,247.379 121.975 M266.738 123.912 C 266.738 123.979,267.185 124.660,267.730 125.424 L 268.721 126.813 267.622 128.320 C 266.332 130.088,266.347 130.032,267.151 130.032 C 267.648 130.032,267.881 129.863,268.263 129.225 C 269.276 127.535,269.297 127.531,270.123 128.851 C 270.745 129.845,270.962 130.032,271.491 130.032 C 272.300 130.032,272.310 130.071,271.027 128.307 L 269.934 126.804 270.920 125.394 C 272.087 123.724,272.073 123.789,271.268 123.789 C 270.741 123.789,270.534 123.956,270.064 124.758 C 269.752 125.291,269.413 125.727,269.310 125.727 C 269.208 125.727,268.869 125.291,268.557 124.758 C 268.053 123.898,266.738 123.286,266.738 123.912 M289.327 124.418 C 288.402 125.343,288.414 126.983,289.353 127.922 C 290.177 128.746,291.931 128.725,292.613 127.883 C 293.377 126.940,292.931 126.679,292.054 127.557 C 290.794 128.817,288.969 127.464,289.433 125.613 C 289.774 124.255,291.114 123.818,292.054 124.758 C 292.532 125.235,293.003 125.458,293.003 125.206 C 293.003 123.853,290.441 123.304,289.327 124.418 M294.080 125.511 C 293.079 126.512,293.782 128.525,295.132 128.525 C 296.584 128.525,297.356 126.634,296.356 125.528 C 295.825 124.943,294.657 124.934,294.080 125.511 M297.648 125.493 C 297.139 126.056,297.507 126.719,298.437 126.918 C 299.411 127.126,299.750 127.425,299.438 127.800 C 299.083 128.228,298.430 128.161,298.120 127.664 C 297.815 127.175,297.309 127.087,297.309 127.523 C 297.309 128.401,298.933 128.828,299.844 128.190 C 300.755 127.553,300.447 126.891,299.048 126.478 C 298.644 126.358,298.272 126.141,298.223 125.994 C 298.094 125.606,298.806 125.401,299.272 125.693 C 299.990 126.141,300.463 126.023,300.000 125.511 C 299.482 124.939,298.159 124.929,297.648 125.493 M295.897 125.990 C 296.339 126.621,296.320 127.077,295.827 127.686 C 295.191 128.472,294.295 127.983,294.295 126.851 C 294.295 125.529,295.225 125.029,295.897 125.990 M254.467 148.980 L 254.467 157.379 246.125 157.322 L 237.783 157.266 237.726 148.924 L 237.670 140.581 246.069 140.581 L 254.467 140.581 254.467 148.980 M278.313 148.924 L 278.256 157.266 269.914 157.322 L 261.572 157.379 261.572 148.980 L 261.572 140.581 269.970 140.581 L 278.369 140.581 278.313 148.924 M303.070 148.924 L 303.014 157.266 294.672 157.322 L 286.329 157.379 286.329 148.980 L 286.329 140.581 294.728 140.581 L 303.127 140.581 303.070 148.924 M201.929 144.593 C 203.973 145.800,203.984 151.902,201.945 152.957 C 199.565 154.187,197.847 152.407,197.847 148.710 C 197.847 145.200,199.734 143.297,201.929 144.593 M270.226 144.820 C 270.115 145.034,269.563 146.857,268.998 148.870 C 268.433 150.883,267.926 152.651,267.870 152.799 C 267.809 152.960,267.948 153.068,268.216 153.068 C 268.572 153.068,268.729 152.836,268.983 151.938 C 270.527 146.465,270.882 145.170,270.907 144.910 C 270.952 144.448,270.452 144.382,270.226 144.820 M199.712 145.709 C 198.232 147.345,199.012 152.336,200.721 152.163 C 202.933 151.940,202.933 145.585,200.721 145.361 C 200.306 145.319,199.956 145.440,199.712 145.709 M290.420 147.255 C 289.583 148.091,290.004 148.776,291.712 149.355 C 293.152 149.844,293.419 150.475,292.370 150.910 C 291.636 151.214,290.635 150.779,290.635 150.157 C 290.635 149.982,290.450 149.839,290.225 149.839 C 289.664 149.839,289.867 150.572,290.583 151.135 C 291.791 152.086,293.649 151.434,293.649 150.059 C 293.649 149.343,293.056 148.926,291.678 148.677 C 290.784 148.516,290.499 148.068,290.983 147.584 C 291.576 146.991,293.003 147.377,293.003 148.132 C 293.003 148.242,293.149 148.332,293.326 148.332 C 293.800 148.332,293.721 147.953,293.121 147.353 C 292.438 146.671,291.055 146.620,290.420 147.255 M294.510 147.040 C 294.510 147.158,294.656 147.255,294.833 147.255 C 295.011 147.255,295.156 147.158,295.156 147.040 C 295.156 146.921,295.011 146.825,294.833 146.825 C 294.656 146.825,294.510 146.921,294.510 147.040 M242.842 147.584 L 242.842 148.129 245.587 148.069 C 248.248 148.010,248.334 147.994,248.400 147.524 C 248.469 147.043,248.450 147.040,245.655 147.040 L 242.842 147.040 242.842 147.584 M294.510 149.839 C 294.510 151.226,294.573 151.561,294.833 151.561 C 295.093 151.561,295.156 151.226,295.156 149.839 C 295.156 148.451,295.093 148.116,294.833 148.116 C 294.573 148.116,294.510 148.451,294.510 149.839 M296.017 149.875 C 296.017 151.230,296.081 151.561,296.340 151.561 C 296.591 151.561,296.663 151.275,296.663 150.277 C 296.663 149.197,296.734 148.954,297.110 148.753 C 297.931 148.314,298.170 148.630,298.170 150.155 C 298.170 151.261,298.239 151.561,298.493 151.561 C 298.921 151.561,298.961 148.720,298.538 148.369 C 298.385 148.242,297.756 148.150,297.139 148.164 L 296.017 148.190 296.017 149.875 M242.842 150.054 C 242.842 150.462,242.985 150.484,245.640 150.484 C 248.296 150.484,248.439 150.462,248.439 150.054 C 248.439 149.645,248.296 149.623,245.640 149.623 C 242.985 149.623,242.842 149.645,242.842 150.054 M223.466 152.805 C 223.466 153.885,223.019 154.790,222.485 154.790 C 222.082 154.790,222.088 154.484,222.497 154.144 C 222.675 153.997,222.820 153.694,222.820 153.472 C 222.820 153.250,222.675 153.068,222.497 153.068 C 222.282 153.068,222.174 152.853,222.174 152.422 C 222.174 151.848,222.246 151.776,222.820 151.776 C 223.448 151.776,223.466 151.805,223.466 152.805 " stroke="none" fill="#eeeeee" fill-rule="evenodd"></path><path id="path1" d="M0.000 107.589 L 0.000 215.178 200.000 215.258 L 400.000 215.338 400.000 107.669 L 400.000 0.000 200.000 0.000 L 0.000 0.000 0.000 107.589 M13.348 2.694 C 13.525 2.852,13.937 3.047,14.263 3.128 C 14.948 3.299,14.958 3.392,14.545 5.576 C 14.374 6.476,14.178 7.563,14.109 7.993 C 13.926 9.134,12.653 9.483,10.647 8.940 C 9.086 8.517,9.209 8.729,8.824 5.813 C 8.691 4.806,8.533 3.779,8.474 3.531 C 8.226 2.494,12.328 1.790,13.348 2.694 M36.814 3.044 C 36.814 3.471,36.731 3.496,35.684 3.387 L 34.553 3.270 35.438 3.675 C 36.411 4.121,36.739 5.209,36.446 7.017 C 36.330 7.731,36.393 7.880,37.050 8.446 L 37.783 9.077 37.083 8.957 C 36.667 8.886,36.383 8.928,36.383 9.060 C 36.383 9.277,35.732 9.222,34.715 8.920 C 34.416 8.831,34.230 8.869,34.230 9.017 C 34.230 9.423,33.677 9.285,33.078 8.729 C 32.516 8.209,32.161 3.217,32.652 2.727 C 33.081 2.298,36.814 2.582,36.814 3.044 M7.535 11.395 C 7.535 11.505,7.327 11.626,7.073 11.664 C 6.038 11.818,6.090 13.132,7.131 13.132 C 7.353 13.132,7.535 13.229,7.535 13.348 C 7.535 13.692,6.637 13.596,6.206 13.207 C 5.724 12.771,5.707 12.303,6.148 11.673 C 6.477 11.204,7.535 10.992,7.535 11.395 M11.196 11.464 C 11.197 11.612,11.488 11.898,11.842 12.100 C 12.197 12.301,12.487 12.385,12.487 12.284 C 12.487 11.966,13.175 11.824,13.483 12.079 C 13.907 12.431,13.848 12.687,13.294 12.910 L 12.809 13.105 13.294 13.119 C 13.965 13.138,13.907 13.563,13.233 13.563 C 12.934 13.563,12.631 13.413,12.561 13.231 C 12.447 12.934,12.392 12.936,12.047 13.248 C 11.453 13.786,10.671 13.578,10.588 12.860 C 10.506 12.144,10.118 12.291,10.118 13.037 C 10.118 13.326,10.022 13.563,9.903 13.563 C 9.785 13.563,9.688 13.224,9.688 12.809 C 9.688 12.215,9.773 12.056,10.093 12.056 C 10.318 12.056,10.549 11.864,10.611 11.625 C 10.734 11.156,11.194 11.029,11.196 11.464 M15.178 12.379 C 15.178 13.020,15.074 13.454,14.909 13.509 C 14.714 13.574,14.639 13.259,14.639 12.379 C 14.639 11.499,14.714 11.184,14.909 11.249 C 15.074 11.304,15.178 11.738,15.178 12.379 M15.931 11.874 C 15.931 12.518,15.951 12.535,16.325 12.197 C 16.846 11.726,17.158 11.747,17.440 12.275 C 17.635 12.640,17.594 12.740,17.178 12.907 C 16.806 13.056,16.777 13.108,17.061 13.119 C 17.269 13.126,17.438 13.229,17.438 13.348 C 17.438 13.649,16.502 13.617,16.189 13.305 C 15.989 13.104,15.931 13.104,15.931 13.305 C 15.931 13.447,15.834 13.563,15.716 13.563 C 15.597 13.563,15.501 13.030,15.501 12.379 C 15.501 11.728,15.597 11.195,15.716 11.195 C 15.834 11.195,15.931 11.500,15.931 11.874 M35.522 12.392 C 35.522 13.135,35.440 13.538,35.307 13.455 C 35.188 13.382,35.091 12.997,35.091 12.599 C 35.091 12.202,34.970 11.827,34.822 11.767 C 34.620 11.685,34.633 11.602,34.876 11.430 C 35.435 11.034,35.522 11.163,35.522 12.392 M9.056 12.064 C 9.285 12.186,9.473 12.457,9.473 12.666 C 9.473 13.504,8.367 13.895,8.002 13.186 C 7.787 12.768,7.904 12.248,8.267 12.005 C 8.572 11.802,8.566 11.801,9.056 12.064 M14.424 12.809 C 14.424 13.224,14.327 13.563,14.209 13.563 C 14.090 13.563,13.994 13.224,13.994 12.809 C 13.994 12.395,14.090 12.056,14.209 12.056 C 14.327 12.056,14.424 12.395,14.424 12.809 M8.396 12.702 C 8.396 12.979,8.505 13.132,8.665 13.079 C 8.813 13.029,8.934 12.860,8.934 12.702 C 8.934 12.544,8.813 12.374,8.665 12.325 C 8.505 12.272,8.396 12.424,8.396 12.702 M11.309 12.550 C 11.217 12.762,11.202 12.996,11.276 13.070 C 11.495 13.289,11.671 12.981,11.570 12.557 C 11.481 12.181,11.469 12.181,11.309 12.550 M307.104 100.431 L 307.104 161.356 247.901 161.356 L 188.698 161.356 188.643 100.376 L 188.589 39.396 247.847 39.451 L 307.104 39.505 307.104 100.431 " stroke="none" fill="#040404" fill-rule="evenodd"></path><path id="path2" d="M9.599 5.430 C 9.230 5.835,9.219 5.940,9.491 6.423 C 9.992 7.311,10.387 7.285,10.216 6.374 C 10.056 5.518,10.182 5.415,10.724 5.957 C 10.985 6.218,11.010 6.341,10.816 6.405 C 10.371 6.554,10.497 7.320,10.967 7.320 C 11.758 7.320,11.762 6.961,10.986 5.382 C 10.748 4.896,10.063 4.920,9.599 5.430 M193.114 44.187 C 193.112 44.447,193.279 44.564,193.649 44.564 C 193.984 44.564,194.187 44.442,194.187 44.241 C 194.187 43.850,193.835 43.813,193.683 44.187 C 193.601 44.390,193.518 44.376,193.346 44.133 C 193.149 43.855,193.117 43.862,193.114 44.187 M192.034 81.378 L 192.034 90.420 201.184 90.420 L 210.334 90.420 210.334 81.378 L 210.334 72.336 201.184 72.336 L 192.034 72.336 192.034 81.378 M209.688 81.378 L 209.688 89.989 201.076 89.989 L 192.465 89.989 192.465 81.378 L 192.465 72.766 201.076 72.766 L 209.688 72.766 209.688 81.378 M286.329 81.375 L 286.329 89.774 294.728 89.774 L 303.127 89.774 303.070 81.432 L 303.014 73.089 294.672 73.033 L 286.329 72.977 286.329 81.375 M278.246 81.485 C 278.246 86.103,278.275 87.962,278.310 85.615 C 278.345 83.269,278.345 79.491,278.310 77.219 C 278.275 74.948,278.246 76.868,278.246 81.485 M296.360 77.297 C 297.142 77.675,297.955 78.702,297.955 79.311 C 297.955 79.676,296.705 79.407,296.604 79.020 C 296.303 77.871,294.146 77.417,292.892 78.239 C 291.136 79.389,291.246 83.269,293.068 84.413 C 294.280 85.175,296.663 84.493,296.663 83.386 C 296.663 83.211,296.919 83.100,297.323 83.100 C 297.908 83.100,297.967 83.156,297.839 83.584 C 296.989 86.434,292.380 86.519,290.981 83.711 C 288.911 79.557,292.409 75.385,296.360 77.297 M268.741 79.656 C 268.741 80.307,268.781 80.573,268.830 80.248 C 268.880 79.922,268.880 79.389,268.830 79.064 C 268.781 78.738,268.741 79.004,268.741 79.656 M268.741 82.885 C 268.741 83.536,268.781 83.802,268.830 83.477 C 268.880 83.151,268.880 82.618,268.830 82.293 C 268.781 81.967,268.741 82.234,268.741 82.885 M278.246 104.306 C 278.246 108.924,278.275 110.782,278.310 108.436 C 278.345 106.089,278.345 102.311,278.310 100.040 C 278.275 97.768,278.246 99.688,278.246 104.306 M286.329 104.413 L 286.329 112.815 294.672 112.758 L 303.014 112.702 303.014 104.413 L 303.014 96.125 294.672 96.069 L 286.329 96.012 286.329 104.413 M296.878 98.090 C 296.878 98.401,296.737 99.539,296.564 100.619 C 296.272 102.439,295.727 106.010,295.451 107.912 C 295.278 109.104,295.169 108.979,293.696 105.899 C 292.686 103.786,292.268 103.111,292.030 103.208 C 291.855 103.279,291.566 103.396,291.389 103.468 C 291.192 103.547,291.066 103.479,291.066 103.292 C 291.066 103.027,292.529 102.134,292.682 102.305 C 292.713 102.340,293.240 103.371,293.853 104.597 C 294.466 105.823,295.002 106.792,295.044 106.750 C 295.135 106.659,296.137 100.526,296.349 98.762 C 296.498 97.518,296.878 97.035,296.878 98.090 M202.237 102.691 C 202.237 104.290,202.271 104.943,202.312 104.144 C 202.354 103.345,202.354 102.037,202.312 101.238 C 202.271 100.439,202.237 101.093,202.237 102.691 M202.214 107.535 C 202.216 108.127,202.258 108.344,202.307 108.016 C 202.357 107.689,202.355 107.205,202.304 106.940 C 202.253 106.675,202.213 106.943,202.214 107.535 M278.246 125.834 C 278.246 130.452,278.275 132.311,278.310 129.964 C 278.345 127.618,278.345 123.840,278.310 121.568 C 278.275 119.297,278.246 121.216,278.246 125.834 M286.329 125.944 L 286.329 134.343 294.672 134.287 L 303.014 134.230 303.070 125.888 L 303.127 117.546 294.728 117.546 L 286.329 117.546 286.329 125.944 M201.813 125.619 C 201.813 127.987,201.844 128.985,201.883 127.837 C 201.921 126.689,201.921 124.751,201.883 123.531 C 201.845 122.311,201.813 123.251,201.813 125.619 M224.908 122.061 C 225.050 122.246,225.262 122.639,225.379 122.932 C 225.520 123.287,225.596 123.344,225.605 123.101 C 225.613 122.901,225.401 122.508,225.135 122.230 C 224.868 121.951,224.766 121.875,224.908 122.061 M292.127 124.104 C 292.639 124.369,293.003 124.827,293.003 125.206 C 293.003 125.458,292.532 125.235,292.054 124.758 C 290.794 123.498,288.969 124.851,289.433 126.701 C 289.774 128.059,291.114 128.497,292.054 127.557 C 292.931 126.679,293.377 126.940,292.613 127.883 C 291.931 128.725,290.177 128.746,289.353 127.922 C 287.362 125.931,289.628 122.812,292.127 124.104 M296.356 125.528 C 296.956 126.192,296.903 127.595,296.258 128.118 C 295.091 129.062,293.649 128.336,293.649 126.803 C 293.649 125.248,295.369 124.438,296.356 125.528 M300.000 125.511 C 300.463 126.023,299.990 126.141,299.272 125.693 C 298.806 125.401,298.094 125.606,298.223 125.994 C 298.272 126.141,298.644 126.358,299.048 126.478 C 300.447 126.891,300.755 127.553,299.844 128.190 C 298.933 128.828,297.309 128.401,297.309 127.523 C 297.309 127.087,297.815 127.175,298.120 127.664 C 298.430 128.161,299.083 128.228,299.438 127.800 C 299.750 127.425,299.411 127.126,298.437 126.918 C 298.052 126.836,297.632 126.574,297.505 126.337 C 296.940 125.281,299.135 124.555,300.000 125.511 M224.209 126.211 L 223.358 127.126 224.273 126.275 C 225.124 125.483,225.287 125.296,225.124 125.296 C 225.089 125.296,224.678 125.708,224.209 126.211 M294.553 125.770 C 294.042 126.281,294.235 127.646,294.858 127.930 C 295.356 128.157,295.470 128.128,295.827 127.686 C 296.730 126.571,295.541 124.782,294.553 125.770 M278.246 148.870 C 278.246 153.488,278.275 155.346,278.310 153.000 C 278.345 150.653,278.345 146.875,278.310 144.604 C 278.275 142.332,278.246 144.252,278.246 148.870 M286.329 148.980 L 286.329 157.379 294.672 157.322 L 303.014 157.266 303.070 148.924 L 303.127 140.581 294.728 140.581 L 286.329 140.581 286.329 148.980 M293.121 147.353 C 293.721 147.953,293.800 148.332,293.326 148.332 C 293.149 148.332,293.003 148.242,293.003 148.132 C 293.003 147.377,291.576 146.991,290.983 147.584 C 290.499 148.068,290.784 148.516,291.678 148.677 C 293.056 148.926,293.649 149.343,293.649 150.059 C 293.649 151.434,291.791 152.086,290.583 151.135 C 289.867 150.572,289.664 149.839,290.225 149.839 C 290.450 149.839,290.635 149.982,290.635 150.157 C 290.635 150.779,291.636 151.214,292.370 150.910 C 293.419 150.475,293.152 149.844,291.712 149.355 C 290.004 148.776,289.583 148.091,290.420 147.255 C 291.055 146.620,292.438 146.671,293.121 147.353 M295.156 147.040 C 295.156 147.158,295.011 147.255,294.833 147.255 C 294.656 147.255,294.510 147.158,294.510 147.040 C 294.510 146.921,294.656 146.825,294.833 146.825 C 295.011 146.825,295.156 146.921,295.156 147.040 M295.156 149.839 C 295.156 151.226,295.093 151.561,294.833 151.561 C 294.573 151.561,294.510 151.226,294.510 149.839 C 294.510 148.451,294.573 148.116,294.833 148.116 C 295.093 148.116,295.156 148.451,295.156 149.839 M298.538 148.369 C 298.961 148.720,298.921 151.561,298.493 151.561 C 298.239 151.561,298.170 151.261,298.170 150.155 C 298.170 148.630,297.931 148.314,297.110 148.753 C 296.734 148.954,296.663 149.197,296.663 150.277 C 296.663 151.275,296.591 151.561,296.340 151.561 C 296.081 151.561,296.017 151.230,296.017 149.875 L 296.017 148.190 297.139 148.164 C 297.756 148.150,298.385 148.242,298.538 148.369 M242.707 149.724 C 242.640 149.897,242.636 150.164,242.697 150.316 C 242.758 150.468,242.815 150.377,242.825 150.114 C 242.841 149.650,242.921 149.634,245.587 149.569 L 248.332 149.502 245.580 149.455 C 243.330 149.416,242.806 149.466,242.707 149.724 " stroke="none" fill="#05c3c4" fill-rule="evenodd"></path><path id="path3" d="M261.572 81.378 L 261.572 89.774 269.860 89.774 L 278.149 89.774 278.149 81.378 L 278.149 72.982 269.860 72.982 L 261.572 72.982 261.572 81.378 M222.017 77.008 C 220.675 77.267,220.236 79.257,221.288 80.309 L 221.909 80.930 221.073 81.783 C 219.689 83.195,220.133 84.976,221.994 85.478 C 225.002 86.288,226.942 83.461,224.697 81.538 C 224.054 80.986,224.033 80.927,224.401 80.708 C 226.693 79.348,224.834 76.464,222.017 77.008 M244.518 77.093 C 243.163 77.614,242.544 80.237,243.491 81.441 C 244.298 82.467,246.043 82.673,246.987 81.853 C 247.546 81.367,247.665 81.665,247.375 82.823 C 246.870 84.839,245.004 85.630,244.177 84.178 C 243.697 83.333,243.028 83.283,243.249 84.108 C 243.828 86.275,247.276 86.030,248.044 83.768 C 249.370 79.868,247.333 76.012,244.518 77.093 M198.062 77.503 C 198.062 77.905,198.206 77.933,200.240 77.933 C 202.389 77.933,202.417 77.940,202.306 78.418 C 202.198 78.888,200.936 81.845,199.876 84.109 C 199.247 85.456,199.246 85.468,199.775 85.468 C 200.239 85.468,200.372 85.209,202.275 80.574 C 203.838 76.767,203.970 77.072,200.753 77.072 C 198.206 77.072,198.062 77.095,198.062 77.503 M224.320 78.418 C 224.737 79.165,224.316 80.074,223.405 80.394 C 222.166 80.830,220.946 78.977,221.866 78.057 C 222.457 77.466,223.909 77.680,224.320 78.418 M246.663 78.049 C 247.223 78.441,247.688 79.834,247.504 80.568 C 247.233 81.645,245.204 81.965,244.357 81.064 C 242.809 79.416,244.834 76.768,246.663 78.049 M269.752 79.656 L 269.752 80.732 270.936 80.732 C 272.056 80.732,272.121 80.761,272.121 81.270 C 272.121 81.779,272.056 81.808,270.936 81.808 L 269.752 81.808 269.752 82.885 C 269.752 83.889,269.717 83.961,269.214 83.961 C 268.713 83.961,268.676 83.889,268.676 82.896 L 268.676 81.831 267.546 81.766 C 266.581 81.710,266.416 81.638,266.416 81.270 C 266.416 80.903,266.581 80.830,267.546 80.775 L 268.676 80.709 268.676 79.644 C 268.676 78.652,268.713 78.579,269.214 78.579 C 269.717 78.579,269.752 78.651,269.752 79.656 M223.687 81.732 C 225.461 82.913,225.001 84.822,222.944 84.822 C 221.119 84.822,220.506 83.188,221.901 82.039 C 222.827 81.276,222.966 81.252,223.687 81.732 M261.572 104.413 L 261.572 112.809 269.860 112.809 L 278.149 112.809 278.149 104.413 L 278.149 96.017 269.860 96.017 L 261.572 96.017 261.572 104.413 M200.984 100.700 C 200.693 101.144,199.821 102.427,199.047 103.552 C 197.158 106.294,197.167 106.351,199.462 106.351 L 201.292 106.351 201.292 107.427 C 201.292 108.995,202.095 109.042,202.195 107.481 C 202.255 106.545,202.310 106.453,202.853 106.390 C 203.644 106.299,203.608 105.792,202.799 105.630 L 202.153 105.501 202.153 102.696 C 202.153 99.549,201.957 99.214,200.984 100.700 M245.014 100.080 C 242.879 100.678,242.257 106.168,244.122 107.955 C 246.272 110.014,249.329 107.390,248.128 104.516 C 247.580 103.204,245.378 102.679,244.559 103.666 C 243.908 104.450,243.677 103.471,244.211 102.191 C 244.902 100.538,246.842 100.136,247.374 101.536 C 247.590 102.104,248.224 102.233,248.224 101.708 C 248.224 100.432,246.635 99.627,245.014 100.080 M220.774 102.272 C 220.599 104.716,220.650 104.859,221.515 104.348 C 223.566 103.137,225.522 104.895,224.443 106.981 C 223.770 108.282,221.098 107.958,221.098 106.576 C 221.098 106.452,220.904 106.351,220.667 106.351 C 220.043 106.351,220.137 106.810,220.955 107.756 C 222.335 109.352,225.073 108.719,225.536 106.697 C 226.118 104.159,224.283 102.541,221.871 103.467 C 221.581 103.578,221.529 103.398,221.529 102.284 L 221.529 100.969 223.358 100.969 C 225.045 100.969,225.188 100.935,225.188 100.538 C 225.188 100.137,225.045 100.108,223.059 100.108 L 220.929 100.108 220.774 102.272 M201.246 103.606 L 201.184 105.597 200.023 105.664 C 198.397 105.756,198.379 105.618,199.751 103.508 C 201.271 101.169,201.322 101.172,201.246 103.606 M247.132 104.550 C 248.215 105.927,247.326 107.953,245.698 107.817 C 244.109 107.684,243.206 105.029,244.510 104.321 C 245.487 103.791,246.612 103.890,247.132 104.550 M271.044 105.274 C 271.044 105.669,270.901 105.705,269.322 105.705 C 267.743 105.705,267.600 105.669,267.600 105.274 C 267.600 104.880,267.743 104.844,269.322 104.844 C 270.901 104.844,271.044 104.880,271.044 105.274 M261.572 125.942 L 261.572 134.338 269.860 134.338 L 278.149 134.338 278.149 125.942 L 278.149 117.546 269.860 117.546 L 261.572 117.546 261.572 125.942 M200.675 122.089 C 200.395 122.443,199.886 122.789,199.544 122.858 C 199.116 122.943,198.924 123.111,198.924 123.400 C 198.924 123.697,199.032 123.786,199.300 123.706 C 199.508 123.645,199.943 123.531,200.269 123.453 L 200.861 123.312 200.861 126.672 C 200.861 129.889,200.880 130.032,201.292 130.032 C 201.708 130.032,201.722 129.889,201.722 125.727 C 201.722 121.075,201.657 120.847,200.675 122.089 M222.067 121.565 C 221.095 121.826,219.925 123.468,220.542 123.704 C 220.944 123.858,221.313 123.641,221.313 123.250 C 221.313 122.486,223.160 121.988,224.109 122.496 C 225.382 123.177,224.717 124.981,222.523 126.796 C 220.988 128.066,220.022 129.222,220.022 129.789 C 220.022 129.958,220.880 130.032,222.820 130.032 C 225.475 130.032,225.619 130.010,225.619 129.602 C 225.619 129.201,225.475 129.171,223.574 129.171 C 221.010 129.171,221.003 129.098,223.353 126.947 C 226.676 123.906,225.872 120.541,222.067 121.565 M244.209 121.787 C 243.836 121.972,243.424 122.358,243.294 122.644 C 242.989 123.312,242.984 123.289,243.488 123.421 C 243.724 123.483,243.918 123.446,243.918 123.338 C 243.918 122.448,246.096 121.907,246.809 122.620 C 247.667 123.478,246.944 125.081,245.700 125.081 C 245.353 125.081,245.210 125.207,245.210 125.511 C 245.210 125.842,245.353 125.942,245.827 125.942 C 247.403 125.942,248.160 127.747,247.050 128.858 C 246.090 129.818,243.918 129.363,243.918 128.202 C 243.918 128.023,243.727 127.879,243.488 127.879 C 242.227 127.879,243.768 129.896,245.216 130.141 C 247.730 130.566,249.480 127.579,247.667 125.959 L 247.003 125.365 247.506 124.780 C 249.158 122.859,246.641 120.574,244.209 121.787 M268.580 124.758 C 269.325 125.937,269.294 125.937,270.013 124.751 C 270.499 123.951,270.707 123.789,271.251 123.789 C 272.085 123.789,272.087 123.780,270.927 125.405 L 269.949 126.776 271.035 128.297 C 272.320 130.098,272.306 130.033,271.421 130.028 C 270.812 130.024,270.638 129.884,270.085 128.952 C 269.303 127.634,269.309 127.634,268.461 128.956 C 267.850 129.907,267.683 130.032,267.024 130.032 L 266.279 130.032 266.763 129.333 C 267.030 128.948,267.521 128.280,267.854 127.848 C 268.641 126.830,268.634 126.778,267.481 125.162 L 266.501 123.789 267.235 123.789 C 267.869 123.789,268.050 123.919,268.580 124.758 M237.726 148.924 L 237.783 157.266 246.125 157.322 L 254.467 157.379 254.467 148.980 L 254.467 140.581 246.069 140.581 L 237.670 140.581 237.726 148.924 M261.572 148.977 L 261.572 157.374 269.860 157.374 L 278.149 157.374 278.149 148.977 L 278.149 140.581 269.860 140.581 L 261.572 140.581 261.572 148.977 M199.332 144.949 C 197.380 146.263,197.583 151.589,199.635 152.873 C 201.702 154.167,203.321 152.361,203.321 148.762 C 203.321 145.079,201.593 143.427,199.332 144.949 M271.044 144.595 C 271.044 144.738,269.249 151.133,268.862 152.368 C 268.714 152.839,268.507 153.068,268.229 153.068 C 267.710 153.068,267.706 153.123,268.365 150.806 C 268.668 149.741,269.157 147.998,269.452 146.932 C 269.747 145.867,270.029 144.874,270.079 144.726 C 270.170 144.455,271.044 144.336,271.044 144.595 M201.533 145.475 C 203.457 146.611,202.807 152.314,200.753 152.314 C 199.516 152.314,199.054 151.563,198.955 149.388 C 198.797 145.908,199.769 144.433,201.533 145.475 M248.400 147.524 C 248.333 147.998,248.271 148.009,245.533 148.009 C 242.794 148.009,242.733 147.998,242.665 147.524 C 242.597 147.042,242.611 147.040,245.533 147.040 C 248.455 147.040,248.469 147.042,248.400 147.524 M248.400 150.000 C 248.469 150.482,248.454 150.484,245.548 150.484 C 242.598 150.484,242.030 150.292,242.776 149.545 C 243.223 149.098,248.331 149.511,248.400 150.000 M222.605 152.210 C 222.605 152.448,222.721 152.828,222.862 153.055 C 223.058 153.368,223.060 153.597,222.871 154.010 C 222.670 154.452,222.678 154.533,222.916 154.442 C 223.599 154.180,223.707 151.776,223.036 151.776 C 222.748 151.776,222.605 151.920,222.605 152.210 " stroke="none" fill="#0409ed" fill-rule="evenodd"></path><path id="path4" d="M9.742 2.540 C 9.238 2.734,8.827 2.979,8.827 3.085 C 8.827 3.356,9.893 3.055,10.272 2.676 C 10.714 2.234,12.680 2.478,13.167 3.036 C 13.363 3.261,13.775 3.445,14.082 3.445 L 14.639 3.445 14.204 3.880 C 13.858 4.226,13.815 4.403,13.996 4.741 C 14.149 5.026,14.154 5.298,14.011 5.564 C 13.865 5.838,13.876 6.039,14.047 6.210 C 14.234 6.398,14.205 6.459,13.929 6.459 C 13.508 6.459,13.484 6.554,13.767 7.084 C 14.001 7.520,13.833 8.396,13.517 8.396 C 13.400 8.396,12.979 8.551,12.581 8.740 C 11.908 9.059,11.771 9.055,10.631 8.675 L 9.405 8.266 9.341 7.080 C 9.306 6.427,9.186 5.652,9.074 5.358 C 8.962 5.063,8.914 4.585,8.969 4.295 C 9.025 3.995,8.916 3.582,8.717 3.337 C 8.374 2.915,8.369 2.917,8.474 3.445 C 8.534 3.741,8.691 4.806,8.824 5.813 C 9.209 8.729,9.086 8.517,10.647 8.940 C 12.653 9.483,13.926 9.134,14.109 7.993 C 14.178 7.563,14.374 6.476,14.545 5.576 C 14.958 3.392,14.948 3.299,14.263 3.128 C 13.937 3.047,13.525 2.852,13.348 2.694 C 12.817 2.223,10.786 2.136,9.742 2.540 M32.652 2.727 C 32.161 3.217,32.516 8.209,33.078 8.729 C 33.702 9.308,34.146 9.404,34.283 8.991 C 34.353 8.782,34.494 8.780,34.932 8.979 C 35.528 9.251,35.559 9.023,35.179 7.149 C 35.024 6.388,34.661 6.814,34.661 7.756 C 34.661 8.416,34.591 8.571,34.338 8.474 C 34.134 8.396,34.015 8.477,34.015 8.696 C 34.015 9.178,33.740 9.128,33.191 8.544 C 32.764 8.088,32.723 7.819,32.723 5.422 L 32.723 2.799 34.661 2.799 C 35.818 2.799,36.598 2.886,36.598 3.015 C 36.598 3.154,36.034 3.182,35.038 3.093 C 33.303 2.939,33.281 3.093,34.940 3.794 L 36.060 4.267 36.122 6.583 C 36.167 8.291,36.111 8.946,35.906 9.075 C 35.703 9.204,35.729 9.252,36.006 9.254 C 36.214 9.256,36.383 9.163,36.383 9.047 C 36.383 8.930,36.690 8.890,37.083 8.957 L 37.783 9.077 37.050 8.446 C 36.393 7.880,36.330 7.731,36.446 7.017 C 36.739 5.209,36.411 4.121,35.438 3.675 L 34.553 3.270 35.684 3.387 C 36.731 3.496,36.814 3.471,36.814 3.044 C 36.814 2.582,33.081 2.298,32.652 2.727 M6.442 11.276 C 6.262 11.570,6.324 12.062,6.517 11.869 C 6.650 11.735,6.934 11.625,7.147 11.625 C 7.361 11.625,7.535 11.541,7.535 11.437 C 7.535 11.293,6.523 11.144,6.442 11.276 M10.616 11.572 C 10.363 12.282,10.070 12.540,9.872 12.228 C 9.761 12.053,9.693 12.249,9.691 12.756 C 9.689 13.200,9.785 13.563,9.903 13.563 C 10.022 13.563,10.118 13.326,10.118 13.037 C 10.118 12.291,10.506 12.144,10.588 12.860 C 10.645 13.357,10.759 13.455,11.279 13.455 C 11.975 13.454,12.413 12.950,12.199 12.395 C 12.023 11.935,11.625 12.157,11.625 12.715 C 11.625 12.944,11.522 13.132,11.397 13.132 C 11.119 13.132,11.216 12.227,11.518 12.005 C 11.651 11.907,11.631 11.846,11.464 11.844 C 11.316 11.842,11.195 11.695,11.195 11.518 C 11.195 11.072,10.781 11.111,10.616 11.572 M14.639 12.379 C 14.639 13.259,14.714 13.574,14.909 13.509 C 15.074 13.454,15.178 13.020,15.178 12.379 C 15.178 11.738,15.074 11.304,14.909 11.249 C 14.714 11.184,14.639 11.499,14.639 12.379 M15.608 12.379 C 15.608 13.030,15.681 13.563,15.770 13.563 C 15.858 13.563,15.931 13.460,15.931 13.335 C 15.931 13.204,16.046 13.180,16.200 13.280 C 16.553 13.506,17.438 13.523,17.438 13.304 C 17.438 13.210,17.269 13.126,17.061 13.119 C 16.777 13.108,16.806 13.056,17.178 12.907 C 17.594 12.740,17.635 12.640,17.440 12.275 C 17.158 11.747,16.846 11.726,16.325 12.197 C 15.951 12.535,15.931 12.518,15.931 11.874 C 15.931 11.500,15.858 11.195,15.770 11.195 C 15.681 11.195,15.608 11.728,15.608 12.379 M34.876 11.430 C 34.633 11.602,34.620 11.685,34.822 11.767 C 34.970 11.827,35.091 12.202,35.091 12.599 C 35.091 12.997,35.170 13.371,35.267 13.431 C 35.363 13.490,35.381 13.062,35.306 12.479 C 35.220 11.807,35.254 11.385,35.400 11.324 C 35.534 11.269,35.540 11.223,35.414 11.215 C 35.296 11.208,35.054 11.304,34.876 11.430 M11.045 12.448 C 11.085 12.943,11.037 13.348,10.940 13.348 C 10.844 13.348,10.764 12.896,10.764 12.343 C 10.764 11.129,10.946 11.197,11.045 12.448 M13.265 12.217 C 13.626 12.577,13.622 12.597,13.187 12.661 C 12.543 12.756,12.629 13.509,13.284 13.509 C 13.923 13.509,13.933 13.137,13.294 13.119 L 12.809 13.105 13.294 12.910 C 13.931 12.654,13.763 11.841,13.074 11.841 C 12.971 11.841,13.057 12.010,13.265 12.217 M8.094 12.776 C 8.126 13.841,9.473 13.755,9.473 12.688 C 9.473 12.203,9.126 11.962,8.916 12.301 C 8.819 12.458,8.853 12.495,9.009 12.399 C 9.162 12.305,9.257 12.398,9.257 12.643 C 9.257 12.886,9.090 13.053,8.827 13.073 C 8.537 13.095,8.396 12.973,8.396 12.701 C 8.396 12.479,8.323 12.252,8.235 12.197 C 8.146 12.142,8.082 12.403,8.094 12.776 M14.168 12.809 C 14.120 13.224,14.157 13.563,14.252 13.563 C 14.347 13.563,14.424 13.224,14.424 12.809 C 14.424 12.395,14.386 12.056,14.340 12.056 C 14.294 12.056,14.216 12.395,14.168 12.809 M17.301 12.379 C 17.385 12.599,17.289 12.702,17.001 12.702 C 16.768 12.702,16.577 12.815,16.577 12.953 C 16.577 13.091,16.520 13.147,16.450 13.077 C 16.237 12.864,16.587 12.056,16.891 12.056 C 17.048 12.056,17.233 12.201,17.301 12.379 M6.332 13.047 C 6.393 13.462,7.535 13.735,7.535 13.335 C 7.535 13.223,7.361 13.132,7.147 13.132 C 6.934 13.132,6.650 13.023,6.517 12.889 C 6.335 12.708,6.288 12.749,6.332 13.047 M188.643 100.376 L 188.698 161.356 247.901 161.356 L 307.104 161.356 307.104 100.431 L 307.104 39.505 247.847 39.451 L 188.589 39.396 188.643 100.376 M306.997 100.431 L 306.997 161.249 247.901 161.249 L 188.805 161.249 188.805 100.431 L 188.805 39.612 247.901 39.612 L 306.997 39.612 306.997 100.431 M192.896 42.258 C 192.896 42.654,192.779 42.749,192.304 42.743 C 191.787 42.735,191.712 42.817,191.712 43.380 C 191.712 43.925,191.804 44.037,192.304 44.094 C 192.684 44.138,192.895 44.061,192.895 43.879 C 192.895 43.689,193.197 43.595,193.810 43.595 L 194.726 43.595 194.792 42.680 L 194.858 41.765 193.877 41.765 C 192.998 41.765,192.896 41.817,192.896 42.258 M194.403 42.269 C 194.403 42.428,194.160 42.668,193.864 42.803 C 193.369 43.028,193.326 43.005,193.326 42.514 C 193.326 42.089,193.435 41.981,193.864 41.981 C 194.171 41.981,194.403 42.105,194.403 42.269 M210.768 43.864 C 210.770 44.097,210.831 44.150,210.929 44.004 C 211.016 43.874,211.233 43.712,211.410 43.645 C 211.626 43.562,211.572 43.516,211.249 43.505 C 210.923 43.493,210.765 43.611,210.768 43.864 M194.187 44.373 C 194.187 44.517,193.929 44.575,193.541 44.518 C 193.186 44.466,192.896 44.503,192.896 44.601 C 192.896 44.699,193.235 44.779,193.649 44.779 C 194.175 44.779,194.403 44.682,194.403 44.456 C 194.403 44.279,194.354 44.133,194.295 44.133 C 194.236 44.133,194.187 44.241,194.187 44.373 M191.819 58.342 L 191.819 66.093 247.901 66.093 L 303.983 66.093 303.983 58.342 L 303.983 50.592 247.901 50.592 L 191.819 50.592 191.819 58.342 M303.767 58.342 L 303.767 65.877 247.901 65.877 L 192.034 65.877 192.034 58.342 L 192.034 50.807 247.901 50.807 L 303.767 50.807 303.767 58.342 M222.067 76.867 C 221.767 77.003,221.897 77.022,222.497 76.931 C 222.971 76.859,223.399 76.764,223.448 76.721 C 223.633 76.558,222.480 76.680,222.067 76.867 M244.618 76.864 C 243.933 77.139,244.015 77.303,244.726 77.078 C 245.940 76.694,245.976 76.676,245.533 76.672 C 245.296 76.670,244.884 76.756,244.618 76.864 M197.920 77.503 C 197.954 78.033,197.986 78.042,200.054 78.103 C 201.208 78.136,202.153 78.214,202.153 78.275 C 202.153 78.335,202.020 78.647,201.857 78.967 C 201.310 80.042,201.273 80.635,201.814 79.656 C 202.735 77.987,202.685 77.933,200.230 77.933 C 198.188 77.933,198.088 77.912,197.988 77.449 C 197.897 77.022,197.888 77.028,197.920 77.503 M220.920 77.570 C 220.238 78.297,220.285 79.565,221.022 80.335 L 221.593 80.930 220.927 81.552 C 220.232 82.201,219.912 83.006,220.085 83.675 C 220.141 83.893,220.198 83.749,220.212 83.352 C 220.230 82.829,220.463 82.405,221.073 81.783 L 221.909 80.930 221.288 80.309 C 220.527 79.548,220.457 78.474,221.114 77.639 C 221.665 76.939,221.551 76.899,220.920 77.570 M243.270 77.987 C 242.282 79.608,243.205 82.478,244.704 82.446 C 244.966 82.440,244.872 82.337,244.430 82.145 C 243.024 81.533,242.574 79.520,243.505 78.012 C 243.752 77.614,243.896 77.287,243.825 77.287 C 243.754 77.287,243.505 77.602,243.270 77.987 M223.856 78.157 C 224.472 78.731,224.450 79.043,223.735 79.908 C 223.146 80.621,223.145 80.623,223.681 80.277 C 224.694 79.623,224.660 77.718,223.636 77.718 C 223.498 77.718,223.597 77.916,223.856 78.157 M246.358 78.158 C 246.852 78.548,247.358 79.706,247.362 80.458 C 247.362 80.603,246.999 80.913,246.555 81.148 C 245.689 81.605,245.901 81.760,246.820 81.341 C 247.820 80.885,247.720 78.789,246.663 78.049 C 245.961 77.557,245.709 77.648,246.358 78.158 M200.125 83.010 C 199.572 84.272,199.159 85.344,199.206 85.392 C 199.254 85.439,199.517 84.967,199.791 84.343 C 200.986 81.622,201.286 80.870,201.211 80.795 C 201.167 80.750,200.678 81.747,200.125 83.010 M222.499 81.591 C 222.425 81.710,222.506 81.750,222.685 81.682 C 224.018 81.170,225.122 83.474,223.975 84.376 C 223.663 84.622,223.518 84.822,223.652 84.822 C 224.110 84.822,224.758 83.963,224.758 83.357 C 224.758 82.237,222.965 80.836,222.499 81.591 M247.147 82.225 C 247.147 83.115,246.776 84.005,246.221 84.441 C 245.961 84.645,245.852 84.815,245.980 84.818 C 246.392 84.826,247.100 83.876,247.341 82.992 C 247.633 81.921,247.638 81.593,247.363 81.593 C 247.244 81.593,247.147 81.877,247.147 82.225 M220.237 84.327 C 220.237 84.558,221.279 85.592,221.370 85.451 C 221.403 85.401,221.161 85.082,220.833 84.742 C 220.505 84.401,220.237 84.215,220.237 84.327 M243.491 84.910 C 243.850 85.371,244.998 85.906,245.580 85.884 C 245.791 85.876,245.544 85.739,245.031 85.579 C 244.518 85.419,243.890 85.111,243.635 84.894 C 243.183 84.509,243.180 84.510,243.491 84.910 M222.067 85.673 C 222.480 85.861,223.633 85.983,223.448 85.820 C 223.399 85.776,222.971 85.682,222.497 85.610 C 221.897 85.518,221.767 85.538,222.067 85.673 M200.861 100.484 C 199.910 101.901,199.871 101.981,200.299 101.630 C 200.505 101.461,200.818 101.045,200.994 100.704 C 201.170 100.364,201.527 100.000,201.787 99.895 C 202.228 99.717,202.231 99.704,201.830 99.693 C 201.566 99.687,201.192 99.992,200.861 100.484 M244.995 99.904 C 244.763 100.061,244.916 100.083,245.533 99.979 C 246.601 99.801,246.773 99.676,245.945 99.680 C 245.600 99.682,245.172 99.783,244.995 99.904 M220.585 101.130 C 220.243 103.990,220.304 104.733,220.883 104.776 C 221.241 104.802,221.287 104.778,221.020 104.702 C 220.649 104.596,220.630 104.421,220.771 102.348 C 220.927 100.064,220.807 99.279,220.585 101.130 M243.800 100.677 C 243.510 100.991,243.272 101.349,243.272 101.474 C 243.272 101.613,243.336 101.622,243.437 101.496 C 243.528 101.384,243.835 101.025,244.120 100.700 C 244.785 99.941,244.501 99.921,243.800 100.677 M246.771 101.116 C 246.978 101.350,247.147 101.654,247.147 101.793 C 247.147 101.932,247.235 102.045,247.343 102.045 C 247.700 102.045,247.316 101.174,246.851 100.931 C 246.409 100.699,246.407 100.705,246.771 101.116 M201.044 103.541 L 201.118 105.467 199.860 105.551 L 198.601 105.636 199.892 105.617 L 201.184 105.597 201.246 103.606 C 201.280 102.511,201.232 101.615,201.138 101.615 C 201.045 101.614,201.002 102.481,201.044 103.541 M242.976 102.503 C 242.802 103.374,242.830 105.921,243.018 106.395 C 243.099 106.597,243.165 105.653,243.165 104.296 C 243.165 101.555,243.165 101.559,242.976 102.503 M198.604 103.819 C 196.902 106.362,196.949 106.566,199.235 106.566 L 201.053 106.566 201.133 107.589 L 201.214 108.611 201.253 107.481 L 201.292 106.351 199.462 106.351 C 197.230 106.351,197.177 106.215,198.616 104.186 C 199.711 102.642,200.070 102.045,199.904 102.045 C 199.842 102.045,199.258 102.844,198.604 103.819 M222.067 103.222 C 221.218 103.610,221.410 103.617,222.605 103.240 C 223.138 103.073,223.380 102.933,223.143 102.930 C 222.906 102.928,222.422 103.059,222.067 103.222 M245.210 103.131 C 244.974 103.291,245.061 103.311,245.533 103.206 C 246.324 103.028,246.496 102.905,245.945 102.910 C 245.719 102.911,245.388 103.011,245.210 103.131 M244.295 103.485 C 244.088 103.539,243.918 103.674,243.918 103.783 C 243.918 104.087,244.264 104.021,244.564 103.660 C 244.711 103.482,244.796 103.348,244.752 103.362 C 244.708 103.376,244.502 103.431,244.295 103.485 M246.452 104.127 C 247.590 104.585,247.569 107.051,246.423 107.606 C 246.170 107.729,246.089 107.835,246.242 107.843 C 246.837 107.874,247.578 106.829,247.578 105.959 C 247.578 105.093,246.919 103.967,246.432 104.000 C 246.259 104.011,246.265 104.052,246.452 104.127 M224.597 105.813 C 224.599 106.286,224.643 106.455,224.695 106.187 C 224.746 105.919,224.744 105.532,224.690 105.326 C 224.637 105.120,224.594 105.339,224.597 105.813 M220.023 106.523 C 220.020 107.037,220.666 108.057,221.154 108.311 L 221.636 108.562 221.166 108.049 C 220.908 107.766,220.545 107.244,220.360 106.889 C 220.175 106.534,220.024 106.369,220.023 106.523 M224.004 107.212 C 223.790 107.449,223.468 107.643,223.289 107.643 C 223.110 107.643,223.021 107.700,223.091 107.770 C 223.314 107.993,224.104 107.629,224.335 107.197 C 224.621 106.663,224.497 106.668,224.004 107.212 M243.272 107.083 C 243.272 107.448,243.746 108.081,244.192 108.311 C 244.596 108.520,244.569 108.444,244.026 107.833 C 243.671 107.433,243.356 107.066,243.326 107.016 C 243.297 106.966,243.272 106.996,243.272 107.083 M200.687 121.842 C 200.387 122.247,199.944 122.529,199.463 122.619 C 198.816 122.740,198.712 122.841,198.738 123.329 C 198.764 123.836,198.777 123.845,198.860 123.412 C 198.920 123.100,199.108 122.928,199.391 122.928 C 199.631 122.928,200.160 122.596,200.565 122.191 C 200.971 121.785,201.421 121.405,201.566 121.346 C 201.734 121.278,201.707 121.233,201.494 121.223 C 201.309 121.213,200.946 121.492,200.687 121.842 M221.599 121.520 C 220.660 121.928,219.561 123.789,220.258 123.789 C 220.404 123.789,220.463 123.728,220.389 123.654 C 219.870 123.135,221.375 121.714,222.714 121.459 C 223.659 121.278,223.698 121.252,223.036 121.238 C 222.621 121.229,221.974 121.356,221.599 121.520 M244.181 121.551 C 243.793 121.749,243.518 121.953,243.569 122.005 C 243.621 122.056,243.958 121.946,244.318 121.760 C 245.083 121.364,245.803 121.330,246.649 121.650 C 247.113 121.825,247.197 121.819,247.005 121.625 C 246.581 121.197,244.960 121.154,244.181 121.551 M224.075 122.822 C 224.332 123.149,224.543 123.613,224.543 123.854 C 224.543 124.095,224.600 124.234,224.671 124.163 C 224.929 123.905,224.494 122.702,224.057 122.468 C 223.611 122.229,223.612 122.233,224.075 122.822 M246.502 122.713 C 247.204 123.415,246.880 124.865,246.020 124.865 C 245.890 124.865,245.846 124.927,245.921 125.002 C 245.996 125.077,246.303 124.978,246.603 124.782 C 247.466 124.216,247.210 122.282,246.271 122.282 C 246.161 122.282,246.265 122.476,246.502 122.713 M200.371 123.532 C 200.554 123.648,200.654 124.680,200.700 126.920 L 200.766 130.140 200.814 126.749 C 200.857 123.644,200.829 123.359,200.484 123.362 C 200.223 123.364,200.188 123.416,200.371 123.532 M222.228 126.710 C 221.015 127.902,220.023 129.016,220.025 129.186 C 220.027 129.355,220.224 129.190,220.462 128.818 C 220.700 128.447,221.619 127.544,222.504 126.812 C 223.889 125.666,224.753 124.702,224.506 124.578 C 224.467 124.558,223.442 125.517,222.228 126.710 M245.067 125.508 C 245.096 125.956,245.241 126.066,245.946 126.180 C 248.031 126.517,247.730 129.035,245.581 129.229 L 244.672 129.311 245.596 129.349 C 246.322 129.378,246.635 129.273,247.050 128.858 C 248.155 127.753,247.405 125.942,245.842 125.942 C 245.392 125.942,245.214 125.819,245.136 125.457 C 245.043 125.027,245.036 125.033,245.067 125.508 M242.916 127.996 C 242.846 128.179,242.849 128.389,242.923 128.463 C 242.997 128.537,243.057 128.443,243.057 128.254 C 243.057 128.065,243.227 127.867,243.434 127.813 C 243.787 127.720,243.786 127.713,243.427 127.689 C 243.216 127.675,242.986 127.814,242.916 127.996 M243.057 128.881 C 243.057 129.118,243.595 129.637,244.133 129.922 C 244.311 130.016,244.263 129.910,244.026 129.686 C 243.789 129.462,243.474 129.139,243.326 128.969 C 243.178 128.798,243.057 128.759,243.057 128.881 M222.558 129.115 C 223.184 129.158,224.153 129.158,224.711 129.114 C 225.270 129.070,224.758 129.034,223.574 129.034 C 222.390 129.035,221.933 129.071,222.558 129.115 M199.305 144.617 C 198.983 144.817,198.670 145.106,198.612 145.259 C 198.553 145.412,198.788 145.328,199.133 145.072 C 199.479 144.817,200.130 144.536,200.581 144.449 L 201.399 144.291 200.646 144.272 C 200.231 144.261,199.628 144.416,199.305 144.617 M201.757 145.964 C 203.045 147.706,202.284 151.920,200.624 152.240 L 199.892 152.381 200.732 152.348 C 202.671 152.270,203.482 146.675,201.713 145.576 C 201.284 145.309,201.286 145.328,201.757 145.964 M197.983 146.663 C 197.809 147.311,197.840 150.497,198.024 150.961 C 198.104 151.164,198.170 150.171,198.170 148.754 C 198.170 145.946,198.171 145.960,197.983 146.663 M198.278 151.666 C 198.278 152.247,199.826 153.529,200.144 153.211 C 200.201 153.154,200.051 153.045,199.810 152.968 C 199.570 152.892,199.127 152.537,198.825 152.179 C 198.524 151.821,198.278 151.590,198.278 151.666 M222.174 152.422 C 222.174 152.853,222.282 153.068,222.497 153.068 C 222.927 153.068,222.908 153.690,222.463 154.182 C 222.266 154.400,222.183 154.650,222.277 154.738 C 222.371 154.826,222.492 154.776,222.545 154.627 C 222.598 154.479,222.706 154.396,222.785 154.445 C 222.863 154.493,222.952 154.209,222.981 153.812 C 223.010 153.416,222.937 153.032,222.819 152.960 C 222.701 152.887,222.605 152.591,222.605 152.302 C 222.605 152.013,222.508 151.776,222.390 151.776 C 222.271 151.776,222.174 152.067,222.174 152.422 M33.406 215.231 C 45.208 215.262,64.583 215.262,76.463 215.231 C 88.343 215.201,78.687 215.176,55.005 215.176 C 31.324 215.176,21.604 215.201,33.406 215.231 " stroke="none" fill="#6f6c68" fill-rule="evenodd"></path></g></svg>