<svg id="svg" version="1.1" xmlns="http://www.w3.org/2000/svg" xmlns:xlink="http://www.w3.org/1999/xlink" width="400" height="237.55102040816325" viewBox="0, 0, 400,237.55102040816325"><g id="svgg"><path id="path0" d="M41.109 0.355 C 40.821 0.649,39.971 1.497,38.014 3.446 C 37.883 3.577,37.377 4.071,36.891 4.544 C 35.757 5.648,34.899 6.655,35.091 6.655 C 35.174 6.655,35.521 6.381,35.862 6.047 C 39.608 2.373,41.689 0.475,41.973 0.475 C 42.161 0.475,44.038 2.160,46.144 4.219 C 56.825 14.659,56.774 14.612,56.997 14.371 C 57.087 14.274,57.022 14.146,56.853 14.086 C 56.685 14.026,56.018 13.426,55.372 12.752 C 54.726 12.078,54.115 11.450,54.015 11.355 C 53.915 11.261,53.535 10.886,53.172 10.523 C 52.809 10.160,52.405 9.756,52.275 9.626 C 52.144 9.495,51.906 9.249,51.746 9.080 C 51.586 8.910,51.317 8.642,51.147 8.485 C 50.778 8.143,49.905 7.273,49.502 6.844 C 48.970 6.280,48.609 5.923,48.035 5.395 C 47.722 5.108,47.348 4.733,47.203 4.564 C 47.058 4.394,46.801 4.127,46.631 3.970 C 46.235 3.602,45.358 2.725,44.991 2.329 C 44.833 2.159,44.566 1.889,44.396 1.730 C 44.227 1.570,43.981 1.327,43.850 1.189 C 42.718 -0.003,41.751 -0.297,41.109 0.355 M356.959 0.471 C 356.353 0.970,356.090 1.214,355.622 1.712 C 355.462 1.881,355.224 2.127,355.093 2.258 C 354.131 3.220,353.684 3.790,353.834 3.862 C 353.931 3.909,354.899 3.060,355.985 1.974 C 357.799 0.161,358.331 -0.661,356.959 0.471 M359.596 1.246 C 359.596 1.409,360.639 2.543,361.913 3.767 C 363.188 4.990,366.445 8.145,369.151 10.779 C 371.858 13.413,374.227 15.695,374.415 15.851 C 374.604 16.007,374.808 16.275,374.869 16.445 C 374.930 16.616,375.058 16.683,375.155 16.593 C 375.323 16.437,375.034 15.984,374.380 15.378 C 374.210 15.221,373.943 14.953,373.785 14.784 C 373.628 14.614,373.361 14.347,373.191 14.189 C 373.021 14.032,372.617 13.636,372.293 13.310 C 371.633 12.644,371.667 12.677,370.074 11.085 C 369.438 10.449,368.811 9.822,368.681 9.691 C 368.550 9.561,367.908 8.919,367.255 8.265 C 365.795 6.806,365.798 6.808,364.348 5.348 C 363.082 4.071,363.054 4.044,362.118 3.171 C 361.777 2.853,361.497 2.498,361.497 2.382 C 361.497 2.266,361.289 2.105,361.034 2.024 C 360.779 1.943,360.505 1.669,360.424 1.414 C 360.263 0.906,359.596 0.771,359.596 1.246 M340.026 16.907 C 335.864 21.092,332.511 24.569,332.575 24.632 C 332.638 24.696,333.661 23.806,334.847 22.653 C 344.694 13.085,348.188 9.631,348.188 9.464 C 348.188 8.827,346.844 10.052,340.026 16.907 M29.049 11.955 C 28.882 12.112,28.614 12.378,28.454 12.547 C 28.295 12.716,27.629 13.383,26.976 14.028 C 26.322 14.674,25.695 15.299,25.583 15.418 C 25.174 15.848,24.258 16.762,23.957 17.041 C 23.787 17.199,23.518 17.466,23.358 17.636 C 23.198 17.805,22.945 18.066,22.797 18.215 C 22.648 18.364,22.258 18.753,21.932 19.080 C 21.605 19.406,21.241 19.766,21.122 19.878 C 21.004 19.991,20.376 20.618,19.728 21.272 C 18.075 22.938,15.966 25.050,15.456 25.550 C 14.644 26.347,13.547 27.602,13.547 27.735 C 13.547 27.820,13.734 27.711,13.963 27.492 C 14.192 27.273,15.301 26.212,16.428 25.133 C 22.147 19.660,29.946 11.981,29.946 11.824 C 29.947 11.553,29.391 11.634,29.049 11.955 M62.507 20.039 C 62.507 20.210,64.922 22.697,67.873 25.565 C 70.824 28.432,74.311 31.828,75.621 33.111 C 76.932 34.394,78.058 35.390,78.124 35.324 C 78.245 35.204,62.876 19.727,62.636 19.727 C 62.565 19.727,62.507 19.867,62.507 20.039 M380.273 21.586 C 380.273 21.694,382.904 24.341,386.118 27.469 C 389.333 30.596,392.869 34.049,393.975 35.142 C 395.082 36.235,396.045 37.070,396.116 36.999 C 396.279 36.837,380.836 21.390,380.511 21.390 C 380.380 21.390,380.273 21.479,380.273 21.586 M323.359 33.214 C 321.456 35.143,319.805 36.812,319.691 36.925 C 319.576 37.038,318.963 37.650,318.327 38.285 C 317.692 38.921,317.035 39.577,316.868 39.744 C 316.702 39.911,316.060 40.553,315.442 41.170 C 314.825 41.788,314.213 42.402,314.082 42.536 C 313.951 42.669,313.218 43.373,312.452 44.101 C 311.687 44.828,311.119 45.482,311.190 45.553 C 311.310 45.673,312.128 44.993,313.369 43.743 C 313.500 43.611,316.762 40.403,320.618 36.613 C 324.680 32.621,327.459 29.719,327.224 29.715 C 327.001 29.712,325.262 31.286,323.359 33.214 M4.219 36.389 C 0.462 40.198,-0.333 41.117,0.134 41.117 C 0.347 41.117,9.031 32.488,9.031 32.277 C 9.031 31.673,8.009 32.547,4.219 36.389 M83.185 40.371 C 83.185 40.484,86.178 43.505,89.837 47.085 C 98.536 55.596,98.871 55.914,98.871 55.636 C 98.871 55.506,98.310 54.857,97.623 54.194 C 96.115 52.736,97.189 53.811,89.839 46.405 C 84.139 40.661,83.185 39.796,83.185 40.371 M0.000 42.052 C 0.000 42.350,8.500 50.862,8.798 50.862 C 9.343 50.862,8.811 50.258,4.654 46.153 C 0.372 41.925,0.000 41.597,0.000 42.052 M393.269 48.069 C 391.900 49.409,388.416 52.805,385.528 55.615 C 382.639 58.425,380.276 60.805,380.275 60.903 C 380.270 61.480,381.511 60.339,388.493 53.357 C 392.741 49.109,396.114 45.633,395.988 45.633 C 395.863 45.633,394.639 46.729,393.269 48.069 M305.638 50.418 C 305.445 50.697,305.149 51.045,304.980 51.191 C 304.810 51.336,304.543 51.595,304.386 51.764 C 304.044 52.134,303.174 53.006,302.745 53.410 C 302.352 53.780,301.908 54.223,301.538 54.616 C 301.378 54.786,300.995 55.175,300.687 55.481 C 300.378 55.787,300.004 56.159,299.855 56.308 C 299.706 56.457,299.445 56.710,299.276 56.869 C 299.106 57.029,298.839 57.299,298.681 57.468 C 298.314 57.865,297.437 58.742,297.041 59.109 C 296.871 59.266,296.601 59.534,296.442 59.703 C 296.282 59.873,296.014 60.148,295.847 60.315 C 295.680 60.482,295.308 60.857,295.020 61.147 C 294.733 61.438,294.358 61.804,294.189 61.961 C 294.019 62.118,293.751 62.386,293.594 62.555 C 293.437 62.725,293.170 62.982,293.000 63.127 C 292.830 63.272,292.458 63.646,292.173 63.959 C 291.888 64.272,291.514 64.660,291.341 64.822 C 290.497 65.614,290.127 66.083,290.250 66.206 C 290.325 66.280,290.530 66.169,290.707 65.958 C 290.883 65.747,291.166 65.446,291.335 65.289 C 291.606 65.037,295.845 60.919,304.040 52.945 C 305.446 51.578,306.595 50.336,306.595 50.185 C 306.595 49.733,306.012 49.875,305.638 50.418 M13.785 55.464 C 13.785 55.658,29.857 71.777,30.050 71.777 C 30.646 71.777,29.399 70.404,24.210 65.353 C 20.925 62.154,17.467 58.788,16.527 57.873 C 14.382 55.786,13.785 55.261,13.785 55.464 M104.575 61.314 C 104.575 61.441,106.474 63.408,108.794 65.684 C 120.501 77.169,120.261 76.948,120.261 76.292 C 120.261 76.162,120.168 76.055,120.054 76.055 C 119.889 76.055,117.870 74.088,114.439 70.585 C 114.308 70.451,113.666 69.814,113.012 69.168 C 112.359 68.522,111.693 67.856,111.534 67.687 C 110.987 67.108,110.635 66.762,110.067 66.239 C 109.754 65.951,109.380 65.577,109.235 65.408 C 109.090 65.238,108.833 64.970,108.664 64.813 C 108.494 64.656,108.227 64.389,108.069 64.219 C 107.912 64.049,107.548 63.675,107.260 63.387 C 106.973 63.099,106.598 62.735,106.429 62.578 C 106.259 62.421,105.991 62.154,105.834 61.984 C 105.071 61.160,104.575 60.896,104.575 61.314 M374.705 66.257 C 374.631 66.489,374.348 66.837,374.077 67.030 C 373.015 67.782,359.596 81.031,359.596 81.328 C 359.596 81.726,360.283 81.503,360.424 81.058 C 360.505 80.803,360.779 80.529,361.034 80.448 C 361.289 80.367,361.497 80.206,361.497 80.090 C 361.497 79.974,361.760 79.634,362.080 79.333 C 363.372 78.124,363.630 77.873,364.178 77.291 C 364.582 76.862,365.454 75.992,365.823 75.650 C 365.993 75.493,366.263 75.226,366.422 75.056 C 366.582 74.886,366.835 74.626,366.984 74.477 C 367.133 74.328,367.505 73.954,367.811 73.645 C 368.117 73.336,368.506 72.953,368.675 72.793 C 369.068 72.423,369.512 71.980,369.882 71.587 C 370.255 71.190,371.131 70.315,371.527 69.941 C 371.697 69.781,371.958 69.529,372.107 69.380 C 372.255 69.231,372.630 68.859,372.938 68.554 C 374.174 67.331,375.282 66.114,375.282 65.978 C 375.282 65.649,374.828 65.868,374.705 66.257 M277.540 78.207 C 273.259 82.511,269.756 86.139,269.756 86.269 C 269.756 86.399,270.651 85.625,271.744 84.548 C 272.838 83.471,276.421 79.983,279.706 76.796 C 284.932 71.727,286.216 70.303,285.502 70.366 C 285.404 70.375,281.821 73.903,277.540 78.207 M35.062 76.342 C 35.311 76.641,36.161 77.549,36.950 78.359 C 37.738 79.169,38.515 79.972,38.674 80.142 C 38.834 80.312,39.072 80.559,39.203 80.689 C 39.333 80.820,39.706 81.194,40.030 81.521 C 40.354 81.848,40.758 82.244,40.927 82.401 C 41.097 82.558,41.367 82.825,41.526 82.995 C 41.686 83.165,41.939 83.425,42.088 83.574 C 42.237 83.723,42.609 84.097,42.915 84.406 C 43.221 84.715,43.610 85.098,43.779 85.258 C 43.949 85.418,44.195 85.655,44.326 85.786 C 44.456 85.917,44.831 86.289,45.157 86.613 C 45.484 86.937,45.880 87.341,46.037 87.511 C 46.194 87.681,46.462 87.950,46.632 88.110 C 46.801 88.270,47.077 88.537,47.244 88.704 C 47.411 88.871,47.785 89.243,48.075 89.531 C 48.366 89.819,48.732 90.193,48.889 90.363 C 49.047 90.533,49.314 90.800,49.484 90.957 C 49.653 91.114,49.921 91.382,50.078 91.551 C 50.791 92.321,51.575 92.726,51.575 92.325 C 51.575 92.254,49.584 90.249,47.151 87.869 C 44.718 85.489,41.227 82.071,39.394 80.273 C 37.561 78.476,35.976 77.005,35.872 77.005 C 35.768 77.005,35.618 76.801,35.539 76.552 C 35.460 76.303,35.218 76.031,35.001 75.948 C 34.671 75.821,34.680 75.884,35.062 76.342 M125.728 82.184 C 125.728 82.287,128.146 84.720,131.101 87.591 C 134.056 90.462,137.547 93.856,138.859 95.133 C 140.171 96.411,141.294 97.407,141.354 97.347 C 141.507 97.194,126.285 81.996,125.978 81.996 C 125.840 81.996,125.728 82.081,125.728 82.184 M352.296 88.249 C 351.484 89.059,348.035 92.438,344.631 95.759 C 341.228 99.080,338.443 101.887,338.443 101.998 C 338.443 102.536,339.164 101.929,342.328 98.726 C 344.215 96.816,345.865 95.146,345.996 95.015 C 346.126 94.885,346.768 94.243,347.422 93.589 C 348.075 92.936,348.717 92.294,348.848 92.163 C 348.978 92.032,349.605 91.405,350.241 90.770 C 350.876 90.134,351.503 89.505,351.634 89.371 C 351.765 89.238,352.380 88.651,353.001 88.067 C 353.622 87.483,354.130 86.948,354.130 86.878 C 354.130 86.541,353.653 86.898,352.296 88.249 M261.200 94.140 C 259.436 95.960,257.853 97.582,257.684 97.744 C 255.762 99.591,249.113 106.255,248.841 106.608 C 248.265 107.356,249.866 106.061,251.337 104.588 C 251.468 104.457,254.596 101.388,258.289 97.768 C 261.982 94.148,265.003 91.097,265.003 90.988 C 265.003 90.402,264.099 91.152,261.200 94.140 M56.566 97.556 C 56.566 97.617,58.892 99.973,61.735 102.791 C 64.578 105.609,66.982 107.993,67.076 108.087 C 67.171 108.182,67.813 108.823,68.502 109.513 C 69.192 110.203,69.836 110.844,69.934 110.939 C 70.031 111.034,70.589 111.619,71.173 112.240 C 72.168 113.299,72.727 113.633,72.727 113.168 C 72.727 113.002,64.588 104.928,58.375 98.930 C 56.955 97.560,56.566 97.264,56.566 97.556 M146.405 102.396 C 146.405 102.504,149.405 105.525,153.072 109.110 C 162.325 118.155,162.108 117.947,162.224 117.832 C 162.281 117.775,162.112 117.523,161.850 117.272 C 161.587 117.021,161.240 116.676,161.078 116.507 C 160.828 116.244,158.770 114.186,158.232 113.660 C 158.135 113.565,155.540 110.948,152.465 107.843 C 147.340 102.670,146.405 101.829,146.405 102.396 M330.395 109.745 C 329.234 110.888,325.757 114.282,322.668 117.285 C 317.285 122.521,316.740 123.113,317.305 123.113 C 317.549 123.113,332.739 108.025,332.739 107.784 C 332.739 107.490,332.375 107.794,330.395 109.745 M243.260 111.693 C 243.179 111.948,242.905 112.222,242.650 112.303 C 242.395 112.384,242.187 112.545,242.187 112.661 C 242.187 112.848,241.946 113.106,240.713 114.249 C 240.543 114.406,240.273 114.673,240.114 114.843 C 239.954 115.013,239.701 115.273,239.552 115.422 C 239.203 115.771,238.172 116.803,237.823 117.152 C 237.674 117.301,237.413 117.553,237.244 117.713 C 237.074 117.873,236.806 118.142,236.649 118.312 C 236.307 118.681,235.437 119.554,235.008 119.958 C 234.839 120.118,234.578 120.370,234.429 120.519 C 234.280 120.668,233.906 121.040,233.597 121.346 C 233.289 121.652,232.908 122.041,232.751 122.211 C 232.593 122.380,232.326 122.646,232.156 122.801 C 231.882 123.053,230.061 124.877,229.290 125.675 C 228.246 126.754,227.932 127.154,228.130 127.154 C 228.253 127.154,229.848 125.683,231.673 123.886 C 233.498 122.089,237.038 118.623,239.540 116.186 C 242.041 113.748,244.088 111.636,244.088 111.492 C 244.088 111.042,243.415 111.206,243.260 111.693 M77.481 118.005 C 77.481 118.248,93.384 134.046,93.628 134.046 C 94.215 134.046,93.616 133.390,88.511 128.439 C 85.558 125.575,81.916 122.029,80.418 120.559 C 77.846 118.033,77.481 117.715,77.481 118.005 M167.796 123.340 C 167.796 123.545,171.790 127.540,179.095 134.641 C 182.853 138.294,183.427 138.802,183.773 138.784 C 183.939 138.775,183.835 138.652,183.541 138.510 C 183.247 138.368,183.007 138.178,183.007 138.087 C 183.007 137.996,182.793 137.675,182.531 137.374 C 182.270 137.072,182.056 136.912,182.056 137.017 C 182.056 137.123,181.845 136.952,181.587 136.638 C 181.328 136.324,181.005 135.960,180.868 135.829 C 180.731 135.698,180.089 135.056,179.441 134.403 C 178.792 133.749,178.150 133.108,178.013 132.977 C 177.560 132.543,176.713 131.697,176.418 131.384 C 176.258 131.214,175.991 130.939,175.824 130.772 C 175.657 130.605,175.381 130.337,175.211 130.178 C 175.042 130.018,174.653 129.635,174.347 129.326 C 174.041 129.017,173.668 128.643,173.520 128.494 C 173.371 128.345,173.118 128.085,172.958 127.915 C 172.799 127.745,172.529 127.478,172.359 127.321 C 171.990 126.979,171.118 126.109,170.714 125.680 C 170.554 125.510,170.287 125.235,170.119 125.068 C 169.952 124.901,169.580 124.526,169.292 124.236 C 168.215 123.149,167.796 122.897,167.796 123.340 M311.763 128.067 C 311.402 128.284,311.048 128.648,310.974 128.877 C 310.901 129.106,310.751 129.293,310.641 129.293 C 310.327 129.293,296.376 143.035,296.376 143.345 C 296.376 143.839,297.086 143.304,298.686 141.604 C 298.846 141.434,299.084 141.188,299.215 141.058 C 299.345 140.927,299.717 140.553,300.041 140.226 C 300.366 139.899,300.770 139.503,300.939 139.346 C 301.109 139.189,301.378 138.921,301.538 138.752 C 301.698 138.582,301.965 138.307,302.132 138.140 C 302.299 137.973,302.672 137.598,302.959 137.308 C 303.247 137.017,303.622 136.649,303.791 136.489 C 304.176 136.127,304.620 135.683,304.998 135.284 C 305.157 135.115,305.823 134.449,306.477 133.803 C 307.130 133.157,307.772 132.518,307.903 132.382 C 308.033 132.246,308.675 131.604,309.329 130.956 C 309.982 130.307,310.624 129.663,310.755 129.523 C 310.885 129.384,311.362 128.900,311.814 128.449 C 312.726 127.540,312.719 127.492,311.763 128.067 M214.782 139.765 C 210.363 144.202,206.849 147.831,206.973 147.831 C 207.097 147.831,208.216 146.842,209.459 145.633 C 210.703 144.424,214.350 140.877,217.565 137.750 C 220.780 134.624,223.411 131.977,223.411 131.868 C 223.411 131.225,222.034 132.485,214.782 139.765 M98.761 138.786 C 98.685 138.908,98.791 139.149,98.996 139.320 C 99.201 139.492,99.605 139.869,99.893 140.160 C 100.180 140.450,100.555 140.825,100.725 140.992 C 100.895 141.159,101.269 141.551,101.557 141.864 C 101.844 142.177,102.218 142.551,102.388 142.696 C 102.558 142.841,102.825 143.098,102.982 143.267 C 103.139 143.437,103.407 143.705,103.577 143.862 C 103.973 144.229,104.850 145.106,105.217 145.503 C 105.375 145.672,105.642 145.942,105.812 146.102 C 106.146 146.417,106.165 146.436,107.903 148.188 C 108.552 148.841,109.194 149.483,109.331 149.614 C 109.825 150.086,110.642 150.905,110.921 151.207 C 111.079 151.376,111.346 151.646,111.516 151.806 C 111.685 151.965,111.961 152.233,112.128 152.400 C 112.295 152.567,112.696 152.949,113.019 153.249 C 113.342 153.549,113.607 153.890,113.607 154.005 C 113.607 154.121,113.815 154.282,114.070 154.363 C 114.325 154.444,114.599 154.719,114.680 154.974 C 114.832 155.453,115.508 155.628,115.508 155.187 C 115.508 155.050,113.462 152.938,110.960 150.493 C 108.459 148.049,104.943 144.605,103.147 142.840 C 101.351 141.075,99.660 139.478,99.389 139.291 C 99.118 139.104,98.951 138.863,99.017 138.756 C 99.083 138.650,99.083 138.562,99.018 138.562 C 98.953 138.562,98.837 138.663,98.761 138.786 M188.473 143.739 C 188.473 143.842,190.994 146.382,194.076 149.384 C 197.158 152.386,199.727 154.890,199.786 154.947 C 199.918 155.077,202.496 152.554,202.496 152.296 C 202.496 151.863,201.951 152.177,200.963 153.179 C 200.383 153.767,199.851 154.248,199.780 154.248 C 199.709 154.248,197.250 151.842,194.314 148.901 C 189.475 144.053,188.473 143.167,188.473 143.739 M289.439 149.926 C 288.826 150.539,285.323 153.971,281.655 157.553 C 277.987 161.135,274.985 164.156,274.985 164.267 C 274.985 164.825,275.791 164.126,279.622 160.250 C 281.914 157.929,283.882 155.939,283.995 155.826 C 284.264 155.558,286.499 153.323,286.847 152.974 C 286.995 152.825,287.649 152.181,288.300 151.542 C 288.951 150.904,289.483 150.296,289.483 150.192 C 289.483 150.088,289.670 149.943,289.900 149.870 C 290.318 149.737,291.070 148.769,290.733 148.797 C 290.634 148.806,290.051 149.314,289.439 149.926 M119.952 159.629 C 119.883 159.697,120.594 160.495,121.530 161.402 C 122.466 162.309,123.325 163.144,123.437 163.258 C 123.550 163.371,124.177 163.999,124.830 164.653 C 125.484 165.306,126.126 165.948,126.256 166.079 C 126.387 166.209,127.029 166.851,127.682 167.505 C 128.336 168.158,128.978 168.800,129.108 168.931 C 129.239 169.062,130.889 170.732,132.776 172.642 C 134.662 174.551,136.388 176.111,136.611 176.107 C 136.848 176.102,134.090 173.222,130.006 169.208 C 120.644 160.007,120.096 159.484,119.952 159.629 M267.354 171.569 C 266.097 172.827,262.541 176.313,259.451 179.317 C 254.082 184.535,253.519 185.146,254.078 185.146 C 254.321 185.146,269.994 169.588,269.994 169.347 C 269.994 169.011,269.457 169.463,267.354 171.569 M141.414 180.748 C 141.414 180.989,157.556 197.029,157.799 197.029 C 158.381 197.029,157.777 196.373,152.214 190.952 C 149.004 187.824,145.310 184.222,144.006 182.947 C 141.773 180.765,141.414 180.460,141.414 180.748 M248.247 190.402 C 248.116 190.534,246.566 192.036,244.802 193.738 C 239.680 198.680,232.917 205.360,232.917 205.478 C 232.917 205.859,233.719 205.433,234.414 204.683 C 234.571 204.513,234.839 204.246,235.008 204.088 C 235.178 203.931,235.445 203.664,235.603 203.494 C 235.945 203.125,236.814 202.252,237.243 201.849 C 237.413 201.689,237.689 201.421,237.856 201.254 C 238.023 201.087,238.397 200.715,238.687 200.427 C 238.978 200.140,239.346 199.765,239.506 199.596 C 239.666 199.426,239.919 199.165,240.067 199.016 C 240.216 198.868,240.606 198.478,240.932 198.152 C 241.259 197.825,241.623 197.465,241.742 197.353 C 241.860 197.240,242.488 196.613,243.136 195.960 C 244.874 194.208,244.894 194.189,245.228 193.873 C 245.398 193.714,245.665 193.444,245.822 193.274 C 246.965 192.041,247.224 191.800,247.410 191.800 C 247.526 191.800,247.687 191.592,247.768 191.337 C 247.849 191.082,248.123 190.808,248.378 190.727 C 248.633 190.646,248.841 190.480,248.841 190.358 C 248.841 190.073,248.550 190.094,248.247 190.402 M163.161 202.216 C 163.684 202.749,164.219 203.299,164.349 203.439 C 164.480 203.578,165.122 204.223,165.775 204.871 C 166.429 205.520,167.071 206.161,167.201 206.297 C 167.455 206.559,172.460 211.559,172.972 212.061 C 173.139 212.225,173.406 212.498,173.566 212.667 C 173.725 212.837,173.995 213.104,174.165 213.262 C 174.534 213.604,175.406 214.473,175.810 214.902 C 175.970 215.072,176.238 215.348,176.405 215.515 C 176.572 215.681,176.954 216.083,177.254 216.406 C 177.554 216.729,177.894 216.993,178.010 216.993 C 178.126 216.993,178.289 217.207,178.372 217.469 C 178.538 217.993,179.204 218.126,179.204 217.635 C 179.204 217.464,178.428 216.596,177.481 215.704 C 176.533 214.812,173.274 211.663,170.240 208.705 C 167.205 205.747,164.584 203.199,164.417 203.042 C 164.249 202.885,163.983 202.617,163.826 202.448 C 163.450 202.042,163.006 201.688,162.567 201.445 C 162.371 201.336,162.638 201.684,163.161 202.216 M226.213 211.957 C 225.598 212.570,222.095 216.004,218.430 219.587 C 214.764 223.171,211.765 226.192,211.765 226.301 C 211.765 226.764,212.325 226.428,213.319 225.371 C 213.903 224.750,214.490 224.135,214.624 224.005 C 214.758 223.874,215.402 223.232,216.055 222.579 C 216.709 221.925,217.351 221.283,217.482 221.153 C 218.031 220.605,224.569 214.066,224.815 213.818 C 224.963 213.669,225.617 213.025,226.268 212.386 C 226.919 211.747,227.451 211.132,227.451 211.019 C 227.451 210.726,227.445 210.730,226.213 211.957 M184.369 223.056 C 184.861 223.514,185.357 223.983,185.469 224.099 C 185.582 224.214,186.194 224.828,186.830 225.464 C 187.465 226.099,188.092 226.726,188.223 226.857 C 188.354 226.988,189.010 227.644,189.682 228.316 C 191.285 229.919,190.915 229.546,195.200 233.876 C 197.267 235.963,199.138 237.668,199.360 237.664 C 199.592 237.661,197.030 234.969,193.308 231.307 C 186.292 224.403,183.979 222.222,183.672 222.222 C 183.563 222.222,183.876 222.597,184.369 223.056 M203.212 234.488 C 201.449 236.238,200.141 237.671,200.304 237.671 C 200.588 237.671,206.774 231.663,206.774 231.387 C 206.774 231.025,206.168 231.552,203.212 234.488 " stroke="none" fill="#d2d2d2" fill-rule="evenodd"></path><path id="path1" d="M356.720 1.620 C 356.119 2.232,352.905 5.407,349.578 8.675 C 334.757 23.232,322.239 35.510,320.380 37.313 C 319.269 38.391,315.628 41.960,312.289 45.245 C 293.929 63.306,282.908 74.126,282.145 74.838 C 281.671 75.280,276.471 80.373,270.588 86.157 C 264.706 91.940,259.091 97.447,258.111 98.393 C 257.130 99.339,253.489 102.909,250.018 106.325 C 234.703 121.402,220.688 135.154,220.192 135.591 C 219.895 135.853,215.308 140.345,210.000 145.573 C 204.691 150.802,200.181 155.116,199.978 155.160 C 199.616 155.239,198.480 154.155,184.912 140.785 C 181.577 137.498,177.671 133.665,176.233 132.267 C 174.795 130.870,169.180 125.366,163.755 120.036 C 158.330 114.707,153.090 109.570,152.109 108.621 C 149.514 106.108,128.594 85.577,122.757 79.814 C 120.012 77.104,116.001 73.162,113.844 71.054 C 111.687 68.946,105.823 63.193,100.812 58.269 C 95.801 53.345,90.827 48.470,89.760 47.436 C 88.693 46.401,82.595 40.412,76.209 34.126 C 69.824 27.840,64.516 22.644,64.414 22.579 C 64.313 22.513,59.293 17.594,53.260 11.646 C 47.226 5.698,42.184 0.795,42.055 0.751 C 41.925 0.706,39.676 2.792,37.056 5.385 C 34.437 7.979,31.150 11.211,29.753 12.567 C 28.356 13.923,22.347 19.812,16.399 25.654 C 10.452 31.496,4.379 37.441,2.906 38.864 L 0.226 41.453 2.311 43.460 C 4.420 45.489,22.694 63.410,33.630 74.175 C 36.898 77.391,42.346 82.739,45.736 86.060 C 49.125 89.381,55.008 95.157,58.807 98.897 C 62.607 102.637,66.358 106.313,67.142 107.066 C 67.926 107.820,73.680 113.469,79.929 119.620 C 86.177 125.770,91.483 130.971,91.720 131.177 C 91.957 131.382,97.379 136.698,103.770 142.989 C 110.160 149.280,116.298 155.310,117.409 156.389 C 119.531 158.449,124.222 163.056,142.972 181.498 C 149.240 187.662,154.742 193.057,155.199 193.486 C 156.083 194.316,174.413 212.303,185.367 223.089 C 195.438 233.005,199.748 237.182,199.914 237.189 C 199.998 237.193,201.505 235.778,203.262 234.046 C 208.390 228.993,227.015 210.705,230.034 207.759 C 231.554 206.275,237.169 200.767,242.510 195.519 C 247.851 190.271,253.092 185.133,254.156 184.100 C 255.220 183.068,261.049 177.346,267.109 171.385 C 273.170 165.424,279.069 159.638,280.220 158.526 C 281.370 157.415,286.679 152.213,292.017 146.965 C 297.355 141.718,303.007 136.175,304.575 134.648 C 306.144 133.120,309.997 129.339,313.137 126.244 C 322.487 117.031,341.565 98.307,342.795 97.136 C 343.424 96.537,348.772 91.296,354.679 85.488 C 360.586 79.679,366.328 74.045,367.439 72.967 C 368.550 71.889,372.188 68.319,375.523 65.034 C 378.858 61.749,385.623 55.105,390.556 50.269 C 395.489 45.433,399.525 41.370,399.525 41.240 C 399.525 41.109,397.498 39.023,395.021 36.603 C 392.544 34.184,386.795 28.554,382.246 24.092 C 377.697 19.630,372.424 14.459,370.529 12.600 C 368.633 10.741,365.088 7.253,362.651 4.848 C 357.610 -0.126,358.147 0.166,356.720 1.620 " stroke="none" fill="#040404" fill-rule="evenodd"></path><path id="path2" d="M44.444 2.971 C 45.550 4.082,46.508 4.991,46.573 4.991 C 46.638 4.991,45.787 4.082,44.682 2.971 C 43.577 1.860,42.619 0.951,42.554 0.951 C 42.488 0.951,43.339 1.860,44.444 2.971 M363.874 6.061 C 365.766 7.956,367.368 9.507,367.433 9.507 C 367.498 9.507,366.004 7.956,364.112 6.061 C 362.220 4.165,360.618 2.614,360.553 2.614 C 360.487 2.614,361.982 4.165,363.874 6.061 M351.342 6.675 C 349.995 7.997,349.041 8.762,348.869 8.656 C 348.685 8.542,348.653 8.586,348.776 8.784 C 348.878 8.949,348.868 9.156,348.753 9.244 C 348.638 9.332,347.904 10.095,347.121 10.940 C 346.338 11.786,347.487 10.714,349.676 8.559 C 351.864 6.403,353.654 4.612,353.654 4.578 C 353.654 4.423,353.406 4.649,351.342 6.675 M34.630 7.521 C 33.220 8.907,32.102 10.078,32.147 10.123 C 32.192 10.167,33.398 9.031,34.827 7.598 C 36.256 6.164,37.373 4.993,37.310 4.996 C 37.247 4.999,36.041 6.135,34.630 7.521 M46.821 5.303 C 46.821 5.344,47.169 5.692,47.594 6.076 L 48.366 6.774 47.668 6.001 C 47.017 5.281,46.821 5.120,46.821 5.303 M31.170 10.839 C 30.994 11.038,30.896 11.249,30.954 11.306 C 31.011 11.364,31.253 11.197,31.490 10.934 C 31.727 10.672,31.825 10.462,31.706 10.467 C 31.588 10.472,31.347 10.639,31.170 10.839 M30.244 11.579 C 30.080 11.638,29.947 11.804,29.947 11.950 C 29.947 12.095,29.706 12.491,29.412 12.829 C 29.118 13.167,29.291 13.034,29.797 12.533 C 30.703 11.637,30.828 11.371,30.244 11.579 M59.772 18.005 C 62.254 20.520,64.336 22.579,64.398 22.579 C 64.612 22.579,61.390 19.306,57.614 15.687 C 56.318 14.446,57.289 15.489,59.772 18.005 M23.644 18.360 L 21.034 21.034 23.708 18.424 C 25.178 16.988,26.381 15.785,26.381 15.750 C 26.381 15.578,26.069 15.877,23.644 18.360 M339.152 18.717 L 336.898 21.034 339.216 18.781 C 340.490 17.541,341.533 16.499,341.533 16.463 C 341.533 16.291,341.244 16.564,339.152 18.717 M374.569 16.409 C 374.569 16.473,376.307 18.235,378.431 20.324 C 380.556 22.414,381.839 23.638,381.283 23.045 C 380.728 22.452,380.273 21.837,380.273 21.678 C 380.273 21.520,380.171 21.390,380.045 21.390 C 379.919 21.390,379.403 20.989,378.899 20.499 C 378.394 20.009,377.213 18.862,376.275 17.951 C 375.337 17.039,374.569 16.345,374.569 16.409 M20.068 21.925 L 19.370 22.698 20.143 22.000 C 20.567 21.616,20.915 21.268,20.915 21.227 C 20.915 21.043,20.719 21.205,20.068 21.925 M65.835 23.841 C 65.835 23.882,66.182 24.230,66.607 24.614 L 67.380 25.312 66.682 24.540 C 66.031 23.819,65.835 23.658,65.835 23.841 M69.400 27.451 C 70.505 28.562,71.463 29.471,71.528 29.471 C 71.594 29.471,70.743 28.562,69.638 27.451 C 68.532 26.340,67.574 25.431,67.509 25.431 C 67.444 25.431,68.295 26.340,69.400 27.451 M387.998 29.709 C 389.431 31.147,390.657 32.323,390.723 32.323 C 390.788 32.323,389.669 31.147,388.235 29.709 C 386.802 28.271,385.576 27.094,385.510 27.094 C 385.445 27.094,386.564 28.271,387.998 29.709 M9.015 32.690 C 6.998 34.722,5.298 36.460,5.237 36.553 C 5.177 36.645,6.861 35.010,8.981 32.920 C 11.100 30.830,12.834 29.092,12.834 29.058 C 12.834 28.869,12.366 29.314,9.015 32.690 M325.338 32.222 C 323.592 33.997,322.113 35.521,322.052 35.609 C 321.991 35.697,323.462 34.274,325.320 32.445 C 327.178 30.617,328.699 29.093,328.699 29.058 C 328.699 28.846,328.195 29.320,325.338 32.222 M71.777 29.783 C 71.777 29.824,72.124 30.172,72.549 30.556 L 73.321 31.254 72.623 30.481 C 71.973 29.761,71.777 29.600,71.777 29.783 M390.969 32.635 C 390.969 32.676,391.316 33.024,391.741 33.408 L 392.513 34.106 391.815 33.333 C 391.165 32.613,390.969 32.452,390.969 32.635 M83.895 41.656 C 86.181 43.974,88.101 45.870,88.161 45.870 C 88.244 45.870,83.709 41.158,82.337 39.820 C 79.785 37.329,80.747 38.463,83.895 41.656 M398.633 40.069 C 399.749 41.257,399.753 41.217,398.396 42.645 L 397.267 43.833 398.490 42.772 C 399.987 41.474,400.026 41.013,398.732 39.940 L 397.742 39.119 398.633 40.069 M1.055 40.463 L 0.357 41.236 1.129 40.538 C 1.849 39.887,2.011 39.691,1.827 39.691 C 1.786 39.691,1.439 40.039,1.055 40.463 M312.482 44.808 C 310.556 46.700,309.061 48.247,309.158 48.247 C 309.255 48.247,310.883 46.696,312.775 44.801 C 314.667 42.906,316.163 41.358,316.099 41.362 C 316.035 41.366,314.408 42.917,312.482 44.808 M6.656 47.891 C 9.742 51.112,13.060 54.312,12.572 53.595 C 12.394 53.333,10.375 51.301,8.087 49.079 C 4.611 45.705,4.375 45.509,6.656 47.891 M308.295 48.866 C 308.118 49.066,308.021 49.276,308.078 49.334 C 308.136 49.391,308.377 49.224,308.614 48.962 C 308.852 48.699,308.949 48.489,308.831 48.494 C 308.712 48.499,308.471 48.666,308.295 48.866 M94.949 52.525 C 96.383 53.963,97.609 55.140,97.675 55.140 C 97.740 55.140,96.621 53.963,95.187 52.525 C 93.754 51.087,92.527 49.911,92.462 49.911 C 92.397 49.911,93.516 51.087,94.949 52.525 M386.096 54.664 C 384.532 56.233,383.305 57.516,383.370 57.516 C 383.436 57.516,384.769 56.233,386.334 54.664 C 387.898 53.096,389.125 51.812,389.060 51.812 C 388.994 51.812,387.661 53.096,386.096 54.664 M302.313 54.843 L 299.822 57.398 302.377 54.906 C 303.782 53.536,304.932 52.386,304.932 52.351 C 304.932 52.180,304.627 52.469,302.313 54.843 M97.920 55.452 C 97.920 55.493,98.268 55.840,98.693 56.224 L 99.465 56.922 98.767 56.150 C 98.116 55.430,97.920 55.268,97.920 55.452 M99.942 57.518 C 100.179 57.780,100.422 57.946,100.482 57.886 C 100.611 57.757,99.934 57.041,99.683 57.041 C 99.588 57.041,99.705 57.256,99.942 57.518 M101.961 59.279 C 101.961 59.530,102.677 60.207,102.805 60.078 C 102.865 60.018,102.700 59.775,102.438 59.538 C 102.175 59.301,101.961 59.184,101.961 59.279 M19.489 60.443 C 19.489 60.484,19.837 60.831,20.261 61.215 L 21.034 61.913 20.336 61.141 C 19.685 60.421,19.489 60.259,19.489 60.443 M103.149 60.460 C 103.149 60.547,109.963 67.312,110.179 67.439 C 110.432 67.589,109.942 67.075,106.745 63.832 C 103.564 60.606,103.149 60.217,103.149 60.460 M379.833 60.764 C 379.453 61.177,379.560 61.376,380.012 61.096 C 380.188 60.987,380.291 60.790,380.243 60.657 C 380.192 60.517,380.019 60.562,379.833 60.764 M375.390 65.189 C 372.603 68.021,372.354 68.312,374.450 66.286 C 376.019 64.770,377.770 63.081,378.342 62.533 C 378.913 61.985,379.336 61.491,379.281 61.436 C 379.226 61.381,377.475 63.070,375.390 65.189 M23.292 64.290 C 24.528 65.532,25.594 66.548,25.659 66.548 C 25.724 66.548,24.766 65.532,23.529 64.290 C 22.293 63.048,21.227 62.032,21.162 62.032 C 21.097 62.032,22.055 63.048,23.292 64.290 M288.532 68.297 C 287.160 69.646,285.289 71.542,284.375 72.511 C 283.461 73.479,284.611 72.402,286.930 70.115 C 289.249 67.829,291.147 65.931,291.147 65.897 C 291.147 65.744,290.887 65.983,288.532 68.297 M29.361 70.149 C 31.062 71.914,32.494 73.331,34.490 75.221 C 35.455 76.135,34.481 75.092,32.326 72.904 C 30.171 70.715,28.356 68.925,28.294 68.925 C 28.233 68.925,28.713 69.475,29.361 70.149 M361.681 78.611 C 357.108 83.188,357.340 82.947,357.502 82.947 C 357.591 82.947,363.863 76.704,365.756 74.732 C 365.810 74.675,365.810 74.629,365.756 74.630 C 365.701 74.630,363.867 76.422,361.681 78.611 M122.992 80.037 C 125.475 82.553,127.556 84.611,127.618 84.611 C 127.832 84.611,124.610 81.338,120.834 77.720 C 119.539 76.478,120.510 77.521,122.992 80.037 M276.883 79.798 L 273.678 83.066 276.946 79.861 C 279.982 76.883,280.322 76.530,280.151 76.530 C 280.117 76.530,278.646 78.001,276.883 79.798 M36.364 77.080 C 36.364 77.121,36.711 77.468,37.136 77.852 L 37.908 78.550 37.210 77.778 C 36.560 77.058,36.364 76.896,36.364 77.080 M47.772 88.295 C 49.664 90.190,51.265 91.741,51.331 91.741 C 51.396 91.741,49.902 90.190,48.010 88.295 C 46.117 86.399,44.516 84.848,44.451 84.848 C 44.385 84.848,45.880 86.399,47.772 88.295 M129.531 86.349 C 129.531 86.390,129.878 86.737,130.303 87.121 L 131.075 87.819 130.377 87.047 C 129.727 86.327,129.531 86.165,129.531 86.349 M349.373 90.731 L 345.692 94.474 349.436 90.793 C 351.494 88.769,353.179 87.084,353.179 87.050 C 353.179 86.880,352.793 87.253,349.373 90.731 M132.264 89.127 C 132.908 89.780,133.488 90.315,133.553 90.315 C 133.618 90.315,133.145 89.780,132.501 89.127 C 131.858 88.473,131.278 87.938,131.212 87.938 C 131.147 87.938,131.620 88.473,132.264 89.127 M263.084 93.302 C 261.198 95.204,259.606 96.834,259.545 96.924 C 259.484 97.015,261.031 95.538,262.983 93.642 C 264.934 91.747,266.579 90.169,266.639 90.137 C 266.698 90.104,266.693 90.025,266.629 89.960 C 266.564 89.896,264.969 91.399,263.084 93.302 M133.809 90.627 C 133.809 90.668,134.156 91.015,134.581 91.399 L 135.354 92.097 134.655 91.325 C 134.005 90.605,133.809 90.443,133.809 90.627 M51.582 92.157 C 51.591 92.382,52.763 93.246,52.763 93.028 C 52.763 92.871,51.822 91.979,51.657 91.979 C 51.612 91.979,51.578 92.059,51.582 92.157 M136.661 93.479 C 136.661 93.520,137.008 93.868,137.433 94.251 L 138.206 94.949 137.508 94.177 C 136.857 93.457,136.661 93.295,136.661 93.479 M54.189 94.454 C 54.189 94.705,54.905 95.382,55.034 95.254 C 55.094 95.194,54.928 94.950,54.666 94.713 C 54.404 94.476,54.189 94.359,54.189 94.454 M55.377 95.679 C 55.377 95.840,55.787 96.239,56.448 96.723 C 56.709 96.914,56.608 96.727,56.224 96.307 C 55.520 95.537,55.377 95.431,55.377 95.679 M59.537 99.822 C 60.970 101.260,62.196 102.436,62.262 102.436 C 62.327 102.436,61.208 101.260,59.774 99.822 C 58.341 98.384,57.114 97.207,57.049 97.207 C 56.984 97.207,58.103 98.384,59.537 99.822 M337.965 101.898 C 335.810 104.085,334.528 105.435,335.116 104.897 C 337.058 103.122,342.191 97.920,342.000 97.920 C 341.936 97.920,340.121 99.710,337.965 101.898 M146.996 103.570 C 148.956 105.561,150.611 107.190,150.676 107.190 C 150.740 107.190,149.779 106.157,148.540 104.894 C 145.309 101.603,145.390 101.683,144.368 100.777 C 143.854 100.323,145.037 101.579,146.996 103.570 M251.041 105.094 C 249.179 106.945,247.687 108.491,247.725 108.529 C 247.763 108.568,249.339 107.052,251.226 105.161 C 253.114 103.270,254.606 101.724,254.542 101.725 C 254.479 101.727,252.903 103.242,251.041 105.094 M62.507 102.748 C 62.507 102.789,62.855 103.137,63.280 103.521 L 64.052 104.219 63.354 103.446 C 62.704 102.726,62.507 102.565,62.507 102.748 M68.217 108.181 C 68.760 108.945,76.719 116.780,76.264 116.102 C 76.088 115.841,74.181 113.916,72.024 111.824 C 69.868 109.733,68.155 108.093,68.217 108.181 M246.618 109.388 C 246.245 109.764,245.985 110.117,246.041 110.173 C 246.097 110.229,246.448 109.956,246.821 109.566 C 247.698 108.651,247.512 108.488,246.618 109.388 M158.645 115.033 C 160.079 116.471,161.305 117.647,161.370 117.647 C 161.436 117.647,160.316 116.471,158.883 115.033 C 157.449 113.595,156.223 112.418,156.158 112.418 C 156.092 112.418,157.212 113.595,158.645 115.033 M239.569 116.399 L 236.126 119.905 239.632 116.462 C 242.888 113.263,243.245 112.894,243.075 112.894 C 243.040 112.894,241.463 114.471,239.569 116.399 M325.000 114.617 L 324.302 115.389 325.074 114.691 C 325.499 114.307,325.847 113.960,325.847 113.919 C 325.847 113.735,325.651 113.897,325.000 114.617 M322.631 116.993 L 321.212 118.479 322.698 117.060 C 324.077 115.743,324.292 115.508,324.116 115.508 C 324.079 115.508,323.411 116.176,322.631 116.993 M161.616 117.957 C 161.616 117.999,161.950 118.348,162.359 118.732 C 162.879 119.220,163.011 119.280,162.799 118.930 C 162.538 118.498,161.616 117.741,161.616 117.957 M320.246 119.370 L 319.548 120.143 320.321 119.445 C 321.041 118.794,321.203 118.598,321.019 118.598 C 320.978 118.598,320.630 118.945,320.246 119.370 M81.521 121.286 C 81.521 121.327,81.869 121.675,82.294 122.059 L 83.066 122.757 82.368 121.985 C 81.717 121.265,81.521 121.103,81.521 121.286 M317.394 121.985 L 316.696 122.757 317.469 122.059 C 318.189 121.408,318.350 121.212,318.167 121.212 C 318.126 121.212,317.778 121.560,317.394 121.985 M165.657 121.786 C 165.657 122.122,166.402 122.700,166.567 122.492 C 166.659 122.376,166.687 122.309,166.630 122.342 C 166.574 122.375,166.331 122.224,166.092 122.008 C 165.852 121.791,165.657 121.691,165.657 121.786 M86.156 125.966 C 87.851 127.665,89.292 129.055,89.357 129.055 C 89.423 129.055,88.089 127.665,86.393 125.966 C 84.698 124.266,83.257 122.876,83.192 122.876 C 83.126 122.876,84.460 124.266,86.156 125.966 M170.288 126.430 C 172.247 128.397,173.901 130.006,173.963 130.006 C 174.161 130.006,167.454 123.199,167.083 123.023 C 166.887 122.930,168.329 124.463,170.288 126.430 M312.890 126.504 C 310.927 128.495,310.392 129.092,311.702 127.831 C 313.011 126.569,314.719 124.938,315.497 124.206 C 316.275 123.474,316.809 122.878,316.685 122.880 C 316.561 122.882,314.853 124.513,312.890 126.504 M226.381 129.249 C 224.944 130.655,223.023 132.604,222.113 133.580 C 221.203 134.555,222.406 133.430,224.786 131.078 C 227.167 128.726,229.115 126.774,229.115 126.740 C 229.115 126.591,228.857 126.828,226.381 129.249 M93.057 132.660 C 94.832 134.507,95.740 135.406,97.938 137.491 C 99.039 138.536,98.177 137.600,96.022 135.412 C 93.866 133.223,92.052 131.432,91.990 131.432 C 91.928 131.432,92.408 131.984,93.057 132.660 M185.143 140.999 C 187.691 143.580,189.840 145.692,189.919 145.692 C 190.090 145.692,186.726 142.292,183.101 138.801 C 181.676 137.429,182.596 138.418,185.143 140.999 M297.858 141.216 C 295.601 143.457,293.790 145.325,293.833 145.368 C 293.876 145.411,295.722 143.624,297.936 141.398 C 302.600 136.707,302.185 137.135,302.060 137.140 C 302.005 137.142,300.114 138.976,297.858 141.216 M214.851 140.642 L 211.646 143.910 214.914 140.704 C 217.950 137.727,218.289 137.374,218.119 137.374 C 218.085 137.374,216.614 138.844,214.851 140.642 M210.680 144.801 L 209.982 145.573 210.755 144.875 C 211.179 144.491,211.527 144.144,211.527 144.103 C 211.527 143.919,211.331 144.081,210.680 144.801 M106.477 145.767 C 106.477 145.807,106.824 146.155,107.249 146.539 L 108.021 147.237 107.323 146.465 C 106.673 145.745,106.477 145.583,106.477 145.767 M111.111 150.446 C 112.807 152.145,114.247 153.535,114.313 153.535 C 114.378 153.535,113.044 152.145,111.349 150.446 C 109.653 148.746,108.212 147.356,108.147 147.356 C 108.082 147.356,109.416 148.746,111.111 150.446 M194.890 150.564 C 196.127 151.806,197.192 152.822,197.257 152.822 C 197.323 152.822,196.364 151.806,195.128 150.564 C 193.891 149.323,192.826 148.307,192.760 148.307 C 192.695 148.307,193.653 149.323,194.890 150.564 M286.390 152.525 L 282.947 156.031 286.453 152.588 C 289.709 149.389,290.066 149.020,289.896 149.020 C 289.862 149.020,288.284 150.597,286.390 152.525 M202.602 152.595 C 199.448 155.779,199.452 155.858,202.614 152.822 C 204.044 151.450,205.261 150.300,205.320 150.267 C 205.379 150.235,205.323 150.208,205.196 150.208 C 205.070 150.208,203.902 151.282,202.602 152.595 M197.504 153.134 C 197.504 153.175,197.852 153.523,198.277 153.907 L 199.049 154.605 198.351 153.832 C 197.701 153.112,197.504 152.951,197.504 153.134 M115.746 155.038 C 115.746 155.229,115.906 155.447,116.102 155.523 C 116.298 155.598,116.459 155.602,116.459 155.531 C 116.459 155.461,116.298 155.242,116.102 155.046 C 115.793 154.737,115.746 154.736,115.746 155.038 M119.108 158.229 C 119.126 158.327,120.704 159.904,122.613 161.732 L 126.084 165.056 122.641 161.554 C 119.173 158.026,119.045 157.905,119.108 158.229 M274.269 164.405 C 272.114 166.593,270.832 167.938,271.420 167.394 C 273.650 165.334,278.498 160.428,278.304 160.428 C 278.240 160.428,276.425 162.218,274.269 164.405 M131.452 170.272 C 131.506 170.327,132.904 171.744,134.558 173.421 C 136.212 175.098,138.084 176.950,138.718 177.536 C 139.351 178.123,137.999 176.705,135.713 174.387 C 133.426 172.069,131.510 170.172,131.454 170.172 C 131.398 170.172,131.397 170.217,131.452 170.272 M262.968 175.460 L 262.270 176.233 263.042 175.535 C 263.762 174.884,263.924 174.688,263.740 174.688 C 263.699 174.688,263.352 175.036,262.968 175.460 M260.007 178.431 L 257.992 180.511 260.071 178.496 C 262.003 176.625,262.259 176.352,262.086 176.352 C 262.051 176.352,261.115 177.288,260.007 178.431 M253.714 184.433 C 253.338 184.825,253.131 185.140,253.253 185.132 C 253.463 185.120,254.688 183.720,254.489 183.720 C 254.438 183.720,254.089 184.040,253.714 184.433 M149.614 188.235 C 151.178 189.804,152.512 191.087,152.577 191.087 C 152.643 191.087,151.416 189.804,149.851 188.235 C 148.287 186.667,146.953 185.383,146.888 185.383 C 146.823 185.383,148.049 186.667,149.614 188.235 M249.424 188.770 C 247.862 190.363,246.661 191.609,246.756 191.541 C 247.257 191.178,252.415 186.025,252.346 185.956 C 252.301 185.911,250.986 187.178,249.424 188.770 M156.958 195.342 C 157.858 196.251,158.281 196.849,158.162 197.042 C 158.037 197.244,158.074 197.281,158.278 197.155 C 158.464 197.040,158.777 197.184,159.100 197.534 C 159.387 197.844,160.685 199.114,161.986 200.355 C 163.286 201.597,162.425 200.661,160.074 198.276 C 157.722 195.891,155.747 193.939,155.684 193.939 C 155.622 193.939,156.195 194.570,156.958 195.342 M235.358 202.556 C 231.440 206.478,231.612 206.298,231.780 206.298 C 231.878 206.298,235.447 202.745,238.839 199.270 C 238.894 199.214,238.894 199.169,238.839 199.169 C 238.785 199.170,237.218 200.694,235.358 202.556 M230.814 206.917 C 230.637 207.117,230.540 207.327,230.597 207.385 C 230.655 207.442,230.896 207.275,231.134 207.013 C 231.371 206.751,231.468 206.540,231.350 206.545 C 231.232 206.550,230.990 206.717,230.814 206.917 M228.522 209.149 C 228.284 209.411,228.168 209.626,228.263 209.626 C 228.514 209.626,229.191 208.910,229.062 208.781 C 229.002 208.721,228.759 208.887,228.522 209.149 M174.807 212.953 C 176.502 214.652,177.943 216.043,178.009 216.043 C 178.074 216.043,176.740 214.652,175.045 212.953 C 173.349 211.254,171.908 209.863,171.843 209.863 C 171.778 209.863,173.111 211.254,174.807 212.953 M223.289 214.439 L 219.251 218.538 223.351 214.501 C 227.160 210.749,227.558 210.339,227.389 210.339 C 227.355 210.339,225.510 212.184,223.289 214.439 M181.105 218.994 C 181.105 219.244,181.821 219.922,181.950 219.793 C 182.010 219.733,181.844 219.490,181.582 219.253 C 181.320 219.015,181.105 218.899,181.105 218.994 M182.803 220.737 C 182.822 220.835,184.400 222.411,186.309 224.239 L 189.780 227.564 186.337 224.061 C 182.869 220.533,182.741 220.413,182.803 220.737 M212.237 225.249 C 209.245 228.286,208.466 229.230,210.917 226.848 C 212.146 225.654,216.348 221.272,216.264 221.272 C 216.205 221.272,214.393 223.061,212.237 225.249 M197.742 235.413 C 198.847 236.524,199.805 237.433,199.871 237.433 C 199.936 237.433,199.085 236.524,197.980 235.413 C 196.874 234.302,195.917 233.393,195.851 233.393 C 195.786 233.393,196.637 234.302,197.742 235.413 " stroke="none" fill="#565656" fill-rule="evenodd"></path><path id="path3" d="M45.395 3.684 C 46.500 4.795,47.458 5.704,47.524 5.704 C 47.589 5.704,46.738 4.795,45.633 3.684 C 44.527 2.573,43.570 1.664,43.504 1.664 C 43.439 1.664,44.290 2.573,45.395 3.684 M353.151 4.100 C 353.135 4.263,353.136 4.480,353.153 4.582 C 353.170 4.683,352.995 4.833,352.765 4.915 C 352.535 4.996,352.005 5.395,351.586 5.800 C 351.168 6.205,350.714 6.643,350.577 6.774 C 350.047 7.280,348.278 9.292,347.712 10.030 C 347.386 10.456,348.642 9.298,350.505 7.456 C 352.368 5.614,353.892 4.038,353.892 3.955 C 353.892 3.665,353.179 3.804,353.151 4.100 M36.124 5.706 C 35.822 5.968,35.627 6.235,35.691 6.299 C 35.755 6.363,36.058 6.148,36.365 5.822 C 37.034 5.110,36.891 5.041,36.124 5.706 M365.775 7.724 C 366.881 8.835,367.839 9.745,367.904 9.745 C 367.969 9.745,367.118 8.835,366.013 7.724 C 364.908 6.613,363.950 5.704,363.885 5.704 C 363.819 5.704,364.670 6.613,365.775 7.724 M33.582 7.912 C 33.425 8.070,33.158 8.327,32.988 8.482 C 32.060 9.330,30.387 11.171,30.544 11.171 C 30.644 11.171,31.005 10.900,31.346 10.569 C 31.688 10.239,32.475 9.494,33.096 8.915 C 33.717 8.335,34.225 7.803,34.225 7.733 C 34.225 7.515,33.881 7.610,33.582 7.912 M58.195 16.153 C 59.549 17.465,60.777 18.538,60.924 18.538 C 61.157 18.538,60.794 18.095,59.705 17.050 C 59.536 16.888,58.882 16.248,58.251 15.627 C 57.620 15.006,56.983 14.498,56.835 14.498 C 56.687 14.498,56.566 14.402,56.566 14.286 C 56.566 14.169,56.378 14.004,56.150 13.920 C 55.921 13.836,56.842 14.840,58.195 16.153 M376.788 18.419 C 379.199 20.731,379.652 20.734,377.385 18.423 C 376.424 17.445,375.479 16.642,375.284 16.640 C 375.088 16.639,375.765 17.439,376.788 18.419 M21.502 20.261 L 20.083 21.747 21.569 20.328 C 22.386 19.548,23.054 18.880,23.054 18.843 C 23.054 18.667,22.820 18.882,21.502 20.261 M337.043 20.454 C 336.730 20.714,336.525 20.977,336.587 21.039 C 336.648 21.100,336.949 20.884,337.256 20.558 C 337.923 19.848,337.827 19.801,337.043 20.454 M335.151 22.247 C 334.975 22.447,334.877 22.657,334.935 22.715 C 334.992 22.772,335.234 22.605,335.471 22.343 C 335.708 22.080,335.806 21.870,335.687 21.875 C 335.569 21.880,335.328 22.047,335.151 22.247 M380.273 21.940 C 380.273 21.981,380.621 22.329,381.046 22.713 L 381.818 23.411 381.120 22.638 C 380.469 21.918,380.273 21.756,380.273 21.940 M329.562 27.365 C 328.402 28.536,327.514 29.554,327.587 29.627 C 327.660 29.700,328.241 29.240,328.878 28.605 C 329.515 27.970,330.404 27.126,330.853 26.728 C 332.041 25.677,332.411 25.187,331.996 25.214 C 331.816 25.226,330.721 26.194,329.562 27.365 M14.032 27.377 C 13.765 27.663,13.547 27.812,13.547 27.708 C 13.547 27.604,12.679 28.391,11.617 29.457 C 8.837 32.249,9.470 32.080,12.391 29.251 C 13.746 27.939,14.778 26.864,14.685 26.861 C 14.592 26.859,14.298 27.091,14.032 27.377 M71.539 29.352 C 71.982 29.810,72.399 30.184,72.464 30.184 C 72.529 30.184,72.220 29.810,71.777 29.352 C 71.333 28.895,70.917 28.520,70.851 28.520 C 70.786 28.520,71.095 28.895,71.539 29.352 M325.010 32.383 L 322.638 34.819 325.074 32.447 C 326.414 31.142,327.510 30.046,327.510 30.010 C 327.510 29.838,327.214 30.120,325.010 32.383 M390.731 32.204 C 391.174 32.662,391.591 33.036,391.656 33.036 C 391.721 33.036,391.412 32.662,390.969 32.204 C 390.525 31.747,390.109 31.373,390.043 31.373 C 389.978 31.373,390.287 31.747,390.731 32.204 M7.855 33.590 L 6.322 35.294 7.694 33.987 C 8.819 32.916,9.759 31.783,9.456 31.866 C 9.418 31.877,8.698 32.652,7.855 33.590 M392.277 33.751 C 392.514 34.013,392.758 34.178,392.817 34.119 C 392.946 33.990,392.269 33.274,392.018 33.274 C 391.923 33.274,392.040 33.488,392.277 33.751 M79.704 37.217 C 80.730 38.202,81.624 38.955,81.689 38.890 C 81.866 38.712,78.494 35.412,78.142 35.420 C 77.975 35.423,78.677 36.232,79.704 37.217 M395.960 37.191 C 395.960 37.253,396.460 37.761,397.072 38.320 C 397.683 38.878,398.496 39.636,398.878 40.004 C 400.380 41.451,399.702 40.340,398.118 38.759 C 396.645 37.290,395.960 36.791,395.960 37.191 M84.611 42.187 C 85.453 43.036,86.195 43.731,86.261 43.731 C 86.326 43.731,85.691 43.036,84.848 42.187 C 84.006 41.337,83.264 40.642,83.199 40.642 C 83.133 40.642,83.769 41.337,84.611 42.187 M399.762 41.380 C 399.762 41.525,398.773 42.596,397.564 43.759 C 396.355 44.923,395.579 45.800,395.841 45.708 C 396.912 45.331,400.620 41.117,399.881 41.117 C 399.816 41.117,399.762 41.236,399.762 41.380 M311.860 45.063 C 311.683 45.263,311.586 45.473,311.643 45.531 C 311.701 45.589,311.942 45.421,312.179 45.159 C 312.417 44.897,312.514 44.686,312.396 44.691 C 312.277 44.696,312.036 44.864,311.860 45.063 M308.790 47.720 C 307.291 49.273,306.567 50.337,307.647 49.400 C 309.263 47.999,310.885 46.265,310.719 46.115 C 310.608 46.015,309.740 46.737,308.790 47.720 M7.249 48.723 C 8.420 49.964,9.421 51.034,9.475 51.099 C 9.528 51.165,9.457 51.004,9.318 50.743 C 9.178 50.481,8.177 49.412,7.093 48.366 L 5.121 46.465 7.249 48.723 M9.745 51.451 C 9.745 51.698,13.526 55.377,13.780 55.377 C 13.929 55.377,13.974 55.511,13.880 55.674 C 13.786 55.838,13.796 55.892,13.903 55.795 C 14.010 55.698,14.241 55.738,14.417 55.884 C 14.592 56.029,14.736 56.074,14.736 55.984 C 14.736 55.805,14.121 55.140,13.956 55.140 C 13.901 55.140,12.981 54.284,11.913 53.238 C 10.090 51.454,9.745 51.170,9.745 51.451 M387.866 53.179 L 387.047 54.070 387.938 53.251 C 388.768 52.489,388.939 52.288,388.757 52.288 C 388.718 52.288,388.316 52.689,387.866 53.179 M96.720 54.057 C 97.033 54.391,97.326 54.664,97.370 54.664 C 97.584 54.664,96.814 53.705,96.505 53.586 C 96.309 53.511,96.406 53.723,96.720 54.057 M299.698 57.219 L 297.683 59.299 299.762 57.284 C 301.694 55.412,301.950 55.140,301.777 55.140 C 301.742 55.140,300.806 56.075,299.698 57.219 M98.871 56.007 C 98.871 56.205,102.082 59.208,103.280 60.131 C 103.902 60.609,103.286 59.756,102.555 59.127 C 101.940 58.597,101.890 58.547,100.689 57.262 C 99.764 56.273,98.871 55.656,98.871 56.007 M18.538 59.730 C 18.538 59.771,18.886 60.118,19.311 60.502 L 20.083 61.200 19.385 60.428 C 18.734 59.708,18.538 59.546,18.538 59.730 M20.915 62.151 C 21.358 62.608,21.775 62.983,21.840 62.983 C 21.905 62.983,21.596 62.608,21.153 62.151 C 20.709 61.693,20.293 61.319,20.228 61.319 C 20.162 61.319,20.472 61.693,20.915 62.151 M378.491 62.521 C 378.360 62.646,377.585 63.378,376.768 64.147 C 375.951 64.916,375.282 65.600,375.282 65.668 C 375.282 65.988,376.234 65.492,376.356 65.108 C 376.432 64.868,376.703 64.605,376.958 64.524 C 377.213 64.443,377.421 64.282,377.421 64.166 C 377.421 63.883,378.572 62.745,378.858 62.745 C 378.983 62.745,379.085 62.638,379.085 62.507 C 379.085 62.213,378.806 62.219,378.491 62.521 M109.091 66.191 C 110.196 67.302,111.154 68.212,111.219 68.212 C 111.285 68.212,110.434 67.302,109.329 66.191 C 108.223 65.080,107.265 64.171,107.200 64.171 C 107.135 64.171,107.986 65.080,109.091 66.191 M289.413 66.766 C 289.074 67.103,288.657 67.516,288.486 67.683 C 286.799 69.334,285.680 70.543,285.680 70.715 C 285.680 70.831,285.279 71.357,284.789 71.885 L 283.898 72.846 284.908 71.907 C 285.463 71.390,285.918 70.828,285.918 70.659 C 285.918 70.489,286.004 70.351,286.110 70.351 C 286.216 70.351,287.293 69.406,288.504 68.251 C 289.715 67.096,290.554 66.152,290.368 66.152 C 290.182 66.152,289.753 66.428,289.413 66.766 M373.855 66.905 C 373.549 67.232,373.354 67.499,373.422 67.499 C 373.658 67.499,374.645 66.544,374.529 66.428 C 374.465 66.364,374.162 66.579,373.855 66.905 M29.649 70.604 C 29.944 70.939,30.184 71.316,30.184 71.442 C 30.184 71.568,30.398 71.854,30.660 72.078 C 30.921 72.302,31.135 72.376,31.135 72.242 C 31.135 72.109,30.974 71.938,30.778 71.863 C 30.582 71.787,30.422 71.595,30.422 71.436 C 30.422 71.277,30.128 70.887,29.768 70.570 L 29.115 69.994 29.649 70.604 M31.373 72.605 C 31.373 72.709,31.667 73.093,32.026 73.458 C 32.386 73.824,32.808 74.263,32.965 74.435 C 33.123 74.607,33.406 74.875,33.595 75.031 C 33.784 75.187,33.976 75.429,34.023 75.568 C 34.069 75.708,34.359 75.870,34.667 75.929 C 35.105 76.014,34.920 75.743,33.811 74.679 C 31.819 72.769,31.373 72.389,31.373 72.605 M362.562 78.015 L 360.190 80.452 362.626 78.079 C 364.889 75.876,365.170 75.579,364.999 75.579 C 364.963 75.579,363.867 76.676,362.562 78.015 M121.536 78.317 C 123.621 80.339,124.738 81.000,122.965 79.162 C 121.007 77.134,120.474 76.661,119.904 76.450 C 119.643 76.354,120.377 77.193,121.536 78.317 M275.570 80.867 L 274.391 82.115 275.639 80.936 C 276.325 80.287,276.887 79.726,276.887 79.688 C 276.887 79.511,276.666 79.708,275.570 80.867 M273.119 83.091 C 272.943 83.290,272.845 83.501,272.903 83.558 C 272.960 83.616,273.202 83.448,273.439 83.186 C 273.676 82.924,273.774 82.714,273.655 82.718 C 273.537 82.723,273.296 82.891,273.119 83.091 M356.867 83.720 C 355.445 84.977,353.892 86.495,353.892 86.627 C 353.892 87.017,354.515 86.578,355.841 85.256 C 358.116 82.985,358.721 82.080,356.867 83.720 M45.633 86.393 C 46.869 87.635,47.935 88.651,48.000 88.651 C 48.065 88.651,47.107 87.635,45.870 86.393 C 44.634 85.152,43.569 84.135,43.503 84.135 C 43.438 84.135,44.396 85.152,45.633 86.393 M269.518 86.156 C 269.487 86.286,269.475 86.474,269.491 86.572 C 269.506 86.670,269.406 86.750,269.269 86.750 C 269.131 86.750,268.111 87.659,267.003 88.770 C 265.894 89.881,265.093 90.790,265.222 90.790 C 265.351 90.790,266.032 90.229,266.735 89.542 C 267.438 88.856,268.413 87.944,268.901 87.515 C 269.465 87.020,269.749 86.587,269.681 86.327 C 269.622 86.102,269.549 86.025,269.518 86.156 M350.546 89.761 L 349.970 90.396 350.616 89.939 C 350.972 89.688,351.266 89.403,351.270 89.305 C 351.282 89.012,351.152 89.094,350.546 89.761 M135.221 91.794 C 136.064 92.673,136.803 93.341,136.865 93.279 C 136.927 93.218,136.930 93.140,136.873 93.108 C 136.815 93.075,136.075 92.406,135.229 91.622 L 133.690 90.196 135.221 91.794 M262.740 93.464 L 260.606 95.663 262.805 93.528 C 264.846 91.546,265.111 91.266,264.939 91.266 C 264.903 91.266,263.914 92.255,262.740 93.464 M52.184 93.219 C 52.568 93.640,53.096 94.172,53.357 94.402 C 53.619 94.631,53.925 94.916,54.039 95.034 C 56.048 97.125,56.436 97.456,56.774 97.365 C 57.104 97.277,57.100 97.259,56.744 97.235 C 56.515 97.220,56.328 97.097,56.328 96.961 C 56.328 96.826,55.838 96.264,55.238 95.713 C 54.639 95.163,53.628 94.204,52.992 93.583 C 51.684 92.307,51.120 92.053,52.184 93.219 M139.988 96.356 C 139.988 96.606,140.704 97.284,140.833 97.155 C 140.893 97.095,140.727 96.852,140.465 96.615 C 140.203 96.377,139.988 96.261,139.988 96.356 M142.916 99.232 C 143.939 100.210,144.886 101.010,145.022 101.010 C 145.157 101.010,144.439 100.208,143.427 99.228 C 142.414 98.247,141.467 97.447,141.321 97.449 C 141.176 97.451,141.894 98.254,142.916 99.232 M340.924 99.168 L 340.226 99.941 340.998 99.243 C 341.423 98.859,341.771 98.511,341.771 98.470 C 341.771 98.286,341.575 98.448,340.924 99.168 M58.950 99.525 C 58.954 99.623,59.248 99.908,59.603 100.159 L 60.250 100.615 59.673 99.981 C 59.068 99.314,58.938 99.232,58.950 99.525 M339.042 101.006 C 338.533 101.526,338.164 101.988,338.221 102.031 C 338.278 102.074,338.739 101.648,339.247 101.085 C 340.405 99.797,340.272 99.746,339.042 101.006 M147.831 104.219 C 148.673 105.068,149.416 105.764,149.481 105.764 C 149.547 105.764,148.911 105.068,148.069 104.219 C 147.227 103.369,146.484 102.674,146.419 102.674 C 146.354 102.674,146.989 103.369,147.831 104.219 M334.403 105.717 C 333.161 106.956,332.465 107.776,332.856 107.537 C 333.764 106.983,337.067 103.679,336.836 103.555 C 336.739 103.504,335.645 104.477,334.403 105.717 M249.827 105.907 C 249.651 106.107,249.554 106.317,249.611 106.375 C 249.669 106.432,249.910 106.265,250.147 106.003 C 250.385 105.740,250.482 105.530,250.364 105.535 C 250.245 105.540,250.004 105.707,249.827 105.907 M248.968 106.702 C 248.880 106.844,248.736 106.916,248.647 106.862 C 248.558 106.808,248.352 106.908,248.190 107.083 C 247.987 107.303,247.974 107.451,248.149 107.559 C 248.412 107.721,249.456 106.774,249.246 106.564 C 249.180 106.498,249.055 106.561,248.968 106.702 M246.229 109.150 C 244.171 111.276,244.088 111.370,244.088 111.566 C 244.088 111.663,244.506 111.333,245.018 110.833 C 245.529 110.332,246.438 109.472,247.038 108.921 C 247.638 108.370,248.128 107.862,248.128 107.792 C 248.128 107.388,247.501 107.837,246.229 109.150 M71.064 111.349 C 71.906 112.198,72.648 112.894,72.714 112.894 C 72.779 112.894,72.143 112.198,71.301 111.349 C 70.459 110.499,69.717 109.804,69.651 109.804 C 69.586 109.804,70.221 110.499,71.064 111.349 M325.366 114.498 L 323.351 116.578 325.431 114.563 C 327.362 112.691,327.619 112.418,327.446 112.418 C 327.410 112.418,326.474 113.354,325.366 114.498 M73.440 113.967 C 73.440 114.185,77.387 118.002,77.676 118.063 C 78.157 118.165,77.992 117.927,76.851 116.880 C 76.243 116.321,75.276 115.410,74.703 114.854 C 73.701 113.885,73.440 113.701,73.440 113.967 M159.952 116.101 C 160.258 116.428,160.561 116.642,160.625 116.578 C 160.741 116.462,159.754 115.508,159.518 115.508 C 159.450 115.508,159.645 115.775,159.952 116.101 M238.496 117.231 L 236.839 118.954 238.562 117.297 C 239.510 116.385,240.285 115.610,240.285 115.574 C 240.285 115.399,240.036 115.631,238.496 117.231 M162.092 118.012 C 162.092 118.143,163.384 119.423,165.165 121.058 C 166.086 121.903,166.877 122.161,166.070 121.354 C 165.874 121.158,165.647 121.063,165.566 121.144 C 165.485 121.225,165.419 121.180,165.419 121.043 C 165.419 120.907,164.756 120.140,163.946 119.340 C 162.613 118.023,162.092 117.650,162.092 118.012 M82.505 122.603 C 82.656 122.845,83.005 123.179,83.279 123.346 C 83.629 123.558,83.570 123.426,83.081 122.906 C 82.286 122.060,82.107 121.966,82.505 122.603 M84.967 125.015 C 85.611 125.668,86.191 126.203,86.257 126.203 C 86.322 126.203,85.849 125.668,85.205 125.015 C 84.561 124.361,83.981 123.827,83.916 123.827 C 83.850 123.827,84.324 124.361,84.967 125.015 M315.270 124.565 C 313.060 126.494,311.575 128.076,312.005 128.043 C 312.280 128.023,312.464 127.941,312.415 127.861 C 312.365 127.781,312.547 127.563,312.819 127.375 C 313.091 127.188,313.433 126.896,313.579 126.727 C 314.359 125.819,314.958 125.253,315.137 125.253 C 315.331 125.253,315.706 124.531,315.573 124.414 C 315.537 124.383,315.401 124.451,315.270 124.565 M171.123 127.035 C 172.228 128.146,173.186 129.055,173.252 129.055 C 173.317 129.055,172.466 128.146,171.361 127.035 C 170.255 125.924,169.297 125.015,169.232 125.015 C 169.167 125.015,170.018 125.924,171.123 127.035 M227.926 127.154 C 227.600 127.259,227.429 127.355,227.547 127.368 C 227.665 127.381,227.504 127.603,227.190 127.861 C 226.876 128.119,226.527 128.428,226.414 128.547 C 226.302 128.667,225.949 129.044,225.631 129.385 C 225.313 129.727,224.958 130.006,224.842 130.006 C 224.726 130.006,224.565 130.214,224.484 130.469 C 224.403 130.724,224.129 130.998,223.874 131.079 C 223.412 131.226,223.222 131.670,223.621 131.670 C 223.737 131.670,224.936 130.600,226.286 129.293 C 227.636 127.986,228.691 126.927,228.631 126.940 C 228.570 126.953,228.253 127.049,227.926 127.154 M222.564 132.917 L 221.866 133.690 222.638 132.992 C 223.063 132.608,223.411 132.260,223.411 132.219 C 223.411 132.036,223.214 132.197,222.564 132.917 M93.438 133.295 C 93.746 133.731,94.828 134.947,95.841 135.997 C 96.854 137.046,97.683 137.975,97.683 138.061 C 97.683 138.146,98.057 138.418,98.515 138.664 C 98.972 138.911,99.346 139.191,99.346 139.287 C 99.346 139.383,99.534 139.533,99.762 139.621 C 99.991 139.708,99.055 138.703,97.683 137.388 C 94.700 134.528,95.054 134.881,93.855 133.571 C 93.161 132.812,93.040 132.732,93.438 133.295 M181.721 137.101 C 181.620 137.264,185.071 140.725,186.682 142.077 C 187.142 142.464,187.166 142.034,186.708 141.609 C 185.859 140.823,183.405 138.613,182.670 137.973 C 182.223 137.583,181.909 137.182,181.971 137.081 C 182.033 136.981,182.030 136.898,181.965 136.898 C 181.900 136.898,181.790 136.990,181.721 137.101 M299.461 139.929 L 297.207 142.246 299.525 139.993 C 301.677 137.900,301.950 137.611,301.778 137.611 C 301.743 137.611,300.700 138.654,299.461 139.929 M214.008 141.236 L 213.310 142.008 214.082 141.310 C 214.507 140.926,214.854 140.579,214.854 140.538 C 214.854 140.354,214.658 140.516,214.008 141.236 M211.915 143.215 C 211.279 143.806,210.804 144.336,210.860 144.391 C 210.916 144.447,211.486 143.961,212.127 143.310 C 213.578 141.837,213.457 141.782,211.915 143.215 M294.327 145.048 C 294.180 145.206,293.298 146.049,292.366 146.921 C 291.434 147.793,290.671 148.568,290.671 148.644 C 290.671 148.969,291.167 148.737,291.704 148.161 C 292.533 147.272,292.576 147.229,293.821 146.059 C 294.441 145.475,294.949 144.939,294.949 144.869 C 294.949 144.649,294.604 144.748,294.327 145.048 M109.685 149.257 C 111.119 150.695,112.345 151.872,112.410 151.872 C 112.476 151.872,111.356 150.695,109.923 149.257 C 108.489 147.819,107.263 146.643,107.198 146.643 C 107.132 146.643,108.252 147.819,109.685 149.257 M206.750 148.028 C 205.901 148.661,203.209 151.320,203.209 151.526 C 203.209 151.768,203.461 151.587,204.467 150.624 C 205.047 150.068,206.025 149.150,206.641 148.582 C 207.934 147.391,207.990 147.103,206.750 148.028 M288.653 150.444 C 288.415 150.706,288.299 150.921,288.394 150.921 C 288.644 150.921,289.322 150.205,289.193 150.076 C 289.133 150.016,288.890 150.182,288.653 150.444 M197.861 153.298 C 198.637 154.082,199.326 154.724,199.391 154.724 C 199.456 154.724,198.875 154.082,198.099 153.298 C 197.323 152.513,196.634 151.872,196.569 151.872 C 196.503 151.872,197.085 152.513,197.861 153.298 M201.438 153.493 L 200.025 155.080 201.278 153.892 C 202.309 152.914,203.209 151.816,202.920 151.889 C 202.883 151.898,202.216 152.620,201.438 153.493 M116.221 155.890 C 116.221 156.193,117.357 157.338,117.658 157.338 C 117.783 157.338,117.885 157.231,117.885 157.100 C 117.885 156.970,117.783 156.863,117.658 156.863 C 117.533 156.863,117.159 156.591,116.826 156.258 C 116.493 155.925,116.221 155.760,116.221 155.890 M117.798 157.524 C 117.734 157.627,118.019 157.974,118.429 158.297 C 118.840 158.619,119.367 159.070,119.600 159.299 C 119.833 159.528,120.024 159.604,120.024 159.468 C 120.024 159.240,118.224 157.338,118.008 157.338 C 117.956 157.338,117.861 157.422,117.798 157.524 M120.974 160.289 C 120.974 160.540,121.690 161.217,121.819 161.088 C 121.879 161.028,121.713 160.785,121.451 160.548 C 121.189 160.311,120.974 160.194,120.974 160.289 M276.404 162.507 L 274.866 164.112 276.471 162.574 C 277.961 161.145,278.184 160.903,278.009 160.903 C 277.972 160.903,277.250 161.625,276.404 162.507 M122.453 161.849 C 122.614 162.108,122.907 162.381,123.103 162.457 C 123.299 162.532,123.202 162.320,122.888 161.986 C 122.204 161.258,122.054 161.211,122.453 161.849 M271.631 167.319 C 270.534 168.365,269.763 169.220,269.916 169.221 C 270.069 169.221,271.060 168.366,272.119 167.320 C 274.621 164.848,274.223 164.848,271.631 167.319 M268.825 169.994 C 268.531 170.466,268.534 170.494,268.849 170.234 C 269.045 170.072,269.258 169.991,269.323 170.056 C 269.387 170.120,269.439 170.012,269.439 169.816 C 269.439 169.308,269.211 169.375,268.825 169.994 M133.333 172.377 C 133.333 172.413,134.162 173.242,135.175 174.219 L 137.017 175.995 135.241 174.153 C 133.591 172.443,133.333 172.203,133.333 172.377 M262.389 176.233 C 261.415 177.213,260.671 178.015,260.737 178.015 C 260.802 178.015,261.652 177.213,262.626 176.233 C 263.600 175.253,264.343 174.450,264.278 174.450 C 264.213 174.450,263.362 175.253,262.389 176.233 M136.898 176.234 C 136.898 176.500,141.200 180.630,141.475 180.627 C 141.637 180.626,140.728 179.610,139.454 178.369 C 137.284 176.257,136.898 175.935,136.898 176.234 M145.954 184.848 C 145.967 184.947,146.529 185.504,147.202 186.088 L 148.425 187.148 147.246 185.909 C 146.041 184.643,145.912 184.537,145.954 184.848 M249.307 189.161 C 247.799 190.678,246.942 191.598,247.403 191.206 C 247.863 190.814,248.278 190.413,248.323 190.315 C 248.368 190.217,248.510 190.137,248.637 190.137 C 248.764 190.137,249.397 189.629,250.042 189.008 C 250.688 188.387,251.351 187.750,251.515 187.593 C 251.977 187.150,252.406 186.605,252.406 186.463 C 252.406 186.120,251.841 186.612,249.307 189.161 M156.625 195.202 C 156.625 195.243,156.973 195.591,157.398 195.975 L 158.170 196.673 157.472 195.900 C 156.821 195.180,156.625 195.019,156.625 195.202 M159.083 198.125 C 160.132 199.251,161.887 200.913,162.710 201.560 C 164.045 202.611,163.632 202.087,161.411 199.914 C 159.223 197.774,157.575 196.507,159.083 198.125 M236.597 201.604 L 233.987 204.278 236.661 201.668 C 239.144 199.243,239.442 198.930,239.271 198.930 C 239.236 198.930,238.033 200.134,236.597 201.604 M230.872 207.323 C 230.597 207.609,229.715 208.452,228.911 209.196 C 227.474 210.526,227.251 210.814,227.655 210.814 C 227.911 210.814,230.303 208.436,230.303 208.182 C 230.303 208.078,230.490 207.935,230.720 207.862 C 231.138 207.729,231.890 206.761,231.553 206.788 C 231.454 206.796,231.147 207.037,230.872 207.323 M173.381 211.765 C 174.814 213.203,176.041 214.379,176.106 214.379 C 176.171 214.379,175.052 213.203,173.619 211.765 C 172.185 210.327,170.959 209.150,170.893 209.150 C 170.828 209.150,171.947 210.327,173.381 211.765 M224.819 213.112 L 224.242 213.747 224.889 213.290 C 225.244 213.040,225.538 212.754,225.542 212.656 C 225.554 212.363,225.424 212.445,224.819 213.112 M179.204 217.636 C 179.204 217.747,179.391 218.014,179.620 218.228 C 179.848 218.442,180.534 219.134,181.144 219.766 C 181.753 220.398,182.469 221.068,182.735 221.255 C 183.001 221.443,183.179 221.659,183.131 221.737 C 183.083 221.815,183.356 222.058,183.738 222.277 C 184.787 222.879,184.597 222.607,182.709 220.804 C 181.762 219.899,180.585 218.770,180.095 218.296 C 179.605 217.822,179.204 217.525,179.204 217.636 M184.670 222.797 C 184.670 223.047,185.386 223.725,185.515 223.596 C 185.575 223.536,185.409 223.293,185.147 223.055 C 184.885 222.818,184.670 222.702,184.670 222.797 M212.945 224.777 L 211.646 226.144 213.012 224.845 C 214.282 223.638,214.488 223.411,214.312 223.411 C 214.274 223.411,213.659 224.026,212.945 224.777 M185.866 224.064 C 185.870 224.162,186.164 224.448,186.520 224.699 L 187.166 225.155 186.590 224.520 C 185.984 223.854,185.854 223.771,185.866 224.064 M208.200 229.492 C 207.219 230.460,206.554 231.252,206.722 231.252 C 207.009 231.254,210.339 228.090,210.339 227.816 C 210.339 227.483,209.843 227.871,208.200 229.492 M198.156 236.006 L 199.878 237.782 200.533 237.080 L 201.188 236.377 200.529 236.952 L 199.869 237.527 198.152 235.878 L 196.435 234.229 198.156 236.006 " stroke="none" fill="#7c7c7c" fill-rule="evenodd"></path><path id="path4" d="M358.408 0.373 C 358.408 0.626,359.142 1.246,359.279 1.109 C 359.354 1.034,359.249 0.808,359.047 0.605 C 358.670 0.228,358.408 0.133,358.408 0.373 M29.100 12.894 L 28.402 13.666 29.174 12.968 C 29.599 12.584,29.947 12.236,29.947 12.196 C 29.947 12.012,29.750 12.174,29.100 12.894 M61.343 19.275 C 61.739 19.681,62.121 19.955,62.192 19.884 C 62.354 19.721,61.186 18.538,60.863 18.538 C 60.730 18.538,60.946 18.870,61.343 19.275 M378.847 20.352 C 378.847 20.566,379.829 21.390,380.083 21.390 C 380.199 21.390,380.028 21.123,379.701 20.796 C 379.108 20.203,378.847 20.068,378.847 20.352 M62.983 20.989 C 62.983 21.030,63.330 21.378,63.755 21.762 L 64.528 22.460 63.830 21.687 C 63.179 20.967,62.983 20.806,62.983 20.989 M9.374 31.633 C 9.168 31.966,9.687 32.085,9.951 31.766 C 10.148 31.529,10.123 31.452,9.849 31.452 C 9.649 31.452,9.435 31.534,9.374 31.633 M82.115 39.610 C 82.638 40.122,83.100 40.521,83.142 40.496 C 83.351 40.371,82.541 39.459,81.897 39.093 C 81.217 38.708,81.232 38.745,82.115 39.610 M9.388 51.099 C 9.307 51.230,9.274 51.345,9.315 51.355 C 10.097 51.549,10.230 51.517,9.966 51.199 C 9.633 50.798,9.580 50.789,9.388 51.099 M102.911 60.126 C 102.911 60.242,103.125 60.404,103.387 60.487 C 103.648 60.570,103.862 60.738,103.862 60.860 C 103.862 60.982,103.969 61.081,104.100 61.081 C 104.555 61.081,104.330 60.722,103.623 60.320 C 103.232 60.097,102.911 60.010,102.911 60.126 M379.321 61.558 C 379.019 61.821,378.835 62.099,378.912 62.176 C 378.990 62.254,379.354 62.040,379.721 61.700 C 380.497 60.979,380.136 60.851,379.321 61.558 M27.332 68.286 C 27.332 68.327,27.680 68.674,28.105 69.058 L 28.877 69.756 28.179 68.984 C 27.528 68.264,27.332 68.102,27.332 68.286 M123.827 80.443 C 123.827 80.672,125.289 82.039,125.407 81.921 C 125.475 81.853,125.216 81.468,124.831 81.065 C 124.187 80.390,123.827 80.168,123.827 80.443 M358.484 82.071 C 358.246 82.373,357.837 82.750,357.576 82.909 C 357.105 83.194,357.105 83.196,357.572 83.131 C 357.988 83.074,359.358 81.923,359.358 81.632 C 359.358 81.336,358.871 81.580,358.484 82.071 M127.392 84.254 C 127.835 84.712,128.251 85.086,128.317 85.086 C 128.382 85.086,128.073 84.712,127.629 84.254 C 127.186 83.797,126.769 83.422,126.704 83.422 C 126.639 83.422,126.948 83.797,127.392 84.254 M145.455 101.621 C 145.455 101.874,146.189 102.494,146.326 102.357 C 146.401 102.282,146.296 102.056,146.094 101.853 C 145.717 101.476,145.455 101.381,145.455 101.621 M337.290 102.823 C 336.983 103.150,336.790 103.476,336.860 103.547 C 336.988 103.675,338.206 102.573,338.206 102.328 C 338.206 102.048,337.823 102.255,337.290 102.823 M166.400 122.341 C 166.975 123.074,167.558 123.351,167.558 122.892 C 167.558 122.770,167.342 122.602,167.079 122.518 C 166.816 122.435,166.662 122.267,166.737 122.146 C 166.812 122.024,166.693 121.925,166.473 121.925 C 166.127 121.925,166.117 121.981,166.400 122.341 M316.268 123.438 C 315.902 123.812,315.654 124.171,315.718 124.234 C 315.889 124.406,317.125 123.200,317.022 122.962 C 316.974 122.849,316.634 123.063,316.268 123.438 M187.047 142.492 C 187.047 142.561,187.368 142.932,187.760 143.316 C 188.152 143.699,188.473 143.875,188.473 143.707 C 188.473 143.539,188.205 143.168,187.877 142.883 C 187.280 142.364,187.047 142.254,187.047 142.492 M295.187 144.147 C 294.528 144.849,294.969 144.960,295.663 144.266 C 295.924 144.005,296.138 143.737,296.138 143.672 C 296.138 143.382,295.700 143.601,295.187 144.147 M202.838 151.657 C 202.632 151.990,203.151 152.109,203.416 151.790 C 203.612 151.553,203.587 151.476,203.313 151.476 C 203.113 151.476,202.899 151.557,202.838 151.657 M273.797 165.118 L 272.965 165.967 273.970 165.277 C 274.523 164.898,274.977 164.507,274.980 164.409 C 274.990 164.058,274.616 164.283,273.797 165.118 M254.412 184.017 L 253.714 184.789 254.486 184.091 C 255.206 183.440,255.368 183.244,255.184 183.244 C 255.143 183.244,254.796 183.592,254.412 184.017 M252.803 185.661 C 252.563 185.922,252.419 186.188,252.483 186.252 C 252.624 186.393,253.595 185.589,253.595 185.330 C 253.595 185.021,253.262 185.160,252.803 185.661 M153.773 192.350 C 153.773 192.391,154.121 192.739,154.545 193.122 L 155.318 193.821 154.620 193.048 C 153.969 192.328,153.773 192.166,153.773 192.350 M232.442 205.807 C 232.442 205.929,232.228 206.096,231.967 206.179 C 231.501 206.327,231.295 206.774,231.693 206.774 C 231.939 206.774,232.917 205.944,232.917 205.736 C 232.917 205.653,232.810 205.585,232.680 205.585 C 232.549 205.585,232.442 205.685,232.442 205.807 M210.837 226.883 C 210.393 227.326,210.167 227.689,210.335 227.689 C 210.646 227.689,211.764 226.527,211.764 226.203 C 211.765 225.962,211.757 225.967,210.837 226.883 " stroke="none" fill="#747474" fill-rule="evenodd"></path></g></svg>