<svg id="svg" version="1.1" xmlns="http://www.w3.org/2000/svg" xmlns:xlink="http://www.w3.org/1999/xlink" width="400" height="400" viewBox="0, 0, 400,400"><g id="svgg"><path id="path1" d="M189.258 41.853 C 68.193 49.823,0.973 186.427,68.189 287.891 C 135.769 389.905,289.711 378.918,342.944 268.281 C 395.325 159.415,310.130 33.896,189.258 41.853 M211.523 55.086 C 327.370 64.745,386.064 199.847,313.766 290.430 C 247.406 373.573,117.336 359.794,69.802 264.585 C 19.637 164.106,99.694 45.763,211.523 55.086 M198.960 116.063 C 196.290 116.815,191.444 124.783,173.628 157.719 C 171.970 160.783,170.460 163.385,170.272 163.502 C 170.084 163.618,159.865 165.635,147.563 167.984 C 116.287 173.957,117.171 173.727,115.611 176.285 C 113.786 179.279,114.894 181.352,122.442 189.063 C 128.744 195.501,136.797 204.068,146.169 214.303 L 151.908 220.572 151.136 225.813 C 148.820 241.555,145.697 267.507,145.712 270.898 C 145.731 275.229,148.701 278.163,152.465 277.568 C 154.272 277.283,162.081 273.785,184.938 263.022 C 193.305 259.083,200.295 255.859,200.471 255.859 C 201.125 255.859,224.151 266.453,238.281 273.254 C 249.842 278.819,251.550 279.133,254.052 276.159 C 255.609 274.309,255.615 272.814,254.112 262.297 C 253.344 256.930,251.873 245.420,250.843 236.719 L 248.971 220.898 258.596 210.938 C 280.347 188.429,285.195 182.574,285.253 178.741 C 285.317 174.507,283.729 173.823,266.211 170.541 C 244.427 166.460,230.758 163.728,230.454 163.395 C 230.299 163.225,227.579 158.340,224.410 152.539 C 204.221 115.590,203.632 114.746,198.960 116.063 " stroke="none" fill="#fbfbfb" fill-rule="evenodd"></path><path id="path2" d="M195.219 54.964 C 195.705 55.057,196.408 55.054,196.782 54.956 C 197.155 54.858,196.758 54.782,195.898 54.786 C 195.039 54.790,194.733 54.870,195.219 54.964 M203.423 54.964 C 203.908 55.057,204.612 55.054,204.985 54.956 C 205.358 54.858,204.961 54.782,204.102 54.786 C 203.242 54.790,202.937 54.870,203.423 54.964 M188.867 58.830 C 178.982 59.806,172.959 60.764,165.690 62.513 C 116.935 74.250,76.866 111.270,61.362 158.902 C 60.573 161.328,59.826 163.211,59.703 163.088 C 59.579 162.965,59.568 163.335,59.679 163.912 C 59.808 164.587,59.733 164.870,59.468 164.706 C 59.212 164.548,59.134 164.747,59.262 165.234 C 59.374 165.664,59.286 166.016,59.067 166.016 C 58.847 166.016,58.759 166.367,58.871 166.797 C 58.984 167.227,58.885 167.578,58.652 167.578 C 58.418 167.578,58.330 167.844,58.454 168.169 C 58.579 168.494,58.487 168.994,58.250 169.279 C 58.013 169.565,57.931 169.910,58.067 170.046 C 58.203 170.182,58.138 170.518,57.921 170.791 C 57.705 171.065,57.525 171.553,57.521 171.875 C 57.516 172.197,57.394 172.988,57.249 173.633 C 55.637 180.776,54.540 195.981,54.980 205.078 L 55.273 211.133 55.518 201.563 C 57.041 141.888,93.689 89.689,148.438 69.214 C 242.751 33.942,341.913 100.885,344.482 201.563 L 344.727 211.133 345.020 204.813 C 345.446 195.621,344.367 180.792,342.752 173.633 C 342.606 172.988,342.484 172.197,342.479 171.875 C 342.475 171.553,342.295 171.065,342.079 170.791 C 341.862 170.518,341.797 170.182,341.933 170.046 C 342.069 169.910,341.987 169.565,341.750 169.279 C 341.513 168.994,341.421 168.494,341.546 168.169 C 341.670 167.844,341.582 167.578,341.348 167.578 C 341.115 167.578,341.016 167.227,341.129 166.797 C 341.241 166.367,341.153 166.016,340.933 166.016 C 340.714 166.016,340.626 165.664,340.738 165.234 C 340.866 164.747,340.788 164.548,340.532 164.706 C 340.267 164.870,340.192 164.587,340.321 163.912 C 340.432 163.335,340.421 162.965,340.297 163.088 C 340.174 163.211,339.427 161.328,338.638 158.902 C 321.275 105.559,275.159 67.466,218.359 59.552 C 214.078 58.956,192.855 58.436,188.867 58.830 M284.952 181.277 C 284.793 181.778,284.632 182.827,284.594 183.607 C 284.430 186.993,276.990 195.779,257.098 216.074 C 251.913 221.364,249.589 224.001,249.677 224.491 C 249.769 225.009,252.998 221.924,261.404 213.286 C 281.304 192.838,285.946 187.130,285.932 183.121 C 285.924 181.003,285.370 179.960,284.952 181.277 M114.258 182.030 C 113.622 184.926,114.562 186.290,123.772 195.830 C 129.466 201.727,140.778 213.847,149.723 223.633 C 150.973 225.001,151.152 225.090,151.161 224.348 C 151.167 223.883,151.276 223.179,151.404 222.786 C 151.568 222.280,151.530 222.218,151.274 222.574 C 151.008 222.944,149.365 221.390,145.085 216.719 C 137.472 208.412,127.185 197.473,121.465 191.602 C 116.699 186.710,115.517 185.016,115.655 183.270 C 115.830 181.047,114.695 180.039,114.258 182.030 M118.359 185.264 C 118.359 185.323,119.722 186.685,121.387 188.291 L 124.414 191.211 121.494 188.184 C 118.782 185.372,118.359 184.978,118.359 185.264 M40.859 198.633 C 39.793 220.687,44.278 246.997,52.345 266.016 C 53.029 267.627,53.923 269.782,54.333 270.805 C 54.743 271.828,56.384 275.387,57.979 278.715 C 59.575 282.043,60.788 284.766,60.676 284.766 C 60.564 284.766,60.929 285.544,61.486 286.495 C 62.044 287.447,62.500 288.326,62.500 288.448 C 62.500 288.571,48.438 288.672,31.250 288.672 L 0.000 288.672 0.000 344.336 L 0.000 400.000 200.000 400.000 L 400.000 400.000 400.000 344.336 L 400.000 288.672 368.750 288.672 C 351.563 288.672,337.500 288.571,337.500 288.448 C 337.500 288.326,337.956 287.447,338.514 286.495 C 339.071 285.544,339.436 284.766,339.324 284.766 C 339.212 284.766,340.425 282.043,342.021 278.715 C 343.616 275.387,345.257 271.828,345.667 270.805 C 346.077 269.782,346.971 267.627,347.655 266.016 C 355.743 246.949,360.203 220.784,359.141 198.633 L 358.804 191.602 358.544 202.539 C 358.308 212.481,357.768 218.668,356.381 227.344 C 356.261 228.096,356.179 229.098,356.200 229.570 C 356.221 230.043,356.089 230.522,355.906 230.635 C 355.723 230.748,355.658 231.284,355.762 231.827 C 355.866 232.369,355.779 232.813,355.568 232.813 C 355.358 232.813,355.270 233.252,355.373 233.789 C 355.476 234.326,355.388 234.766,355.178 234.766 C 354.968 234.766,354.885 235.231,354.994 235.800 C 355.121 236.465,355.045 236.744,354.781 236.581 C 354.528 236.425,354.444 236.612,354.563 237.065 C 355.684 241.352,345.076 269.834,337.289 283.442 C 276.596 389.511,123.404 389.511,62.711 283.442 C 54.924 269.834,44.316 241.352,45.437 237.065 C 45.556 236.612,45.472 236.425,45.219 236.581 C 44.955 236.744,44.879 236.465,45.006 235.800 C 45.115 235.231,45.032 234.766,44.822 234.766 C 44.612 234.766,44.524 234.326,44.627 233.789 C 44.730 233.252,44.642 232.813,44.432 232.813 C 44.221 232.813,44.134 232.369,44.238 231.827 C 44.342 231.284,44.277 230.748,44.094 230.635 C 43.911 230.522,43.779 230.043,43.800 229.570 C 43.821 229.098,43.739 228.096,43.619 227.344 C 42.208 218.517,41.684 212.523,41.452 202.539 L 41.198 191.602 40.859 198.633 M266.385 203.027 L 265.039 204.492 266.504 203.146 C 267.867 201.893,268.148 201.563,267.850 201.563 C 267.785 201.563,267.126 202.222,266.385 203.027 M186.914 265.847 C 160.393 278.410,154.635 280.964,152.376 281.167 C 148.889 281.481,146.590 279.624,146.288 276.250 C 145.903 271.960,144.917 270.839,144.930 274.707 C 144.950 280.272,148.667 283.634,153.466 282.426 C 155.534 281.905,175.558 272.733,196.875 262.543 C 200.771 260.680,198.640 259.972,223.438 271.373 C 225.049 272.114,231.165 275.015,237.029 277.820 C 246.380 282.294,247.941 282.923,249.724 282.940 C 254.325 282.984,256.652 279.759,255.975 274.275 L 255.703 272.070 255.374 273.633 C 255.193 274.492,254.886 276.162,254.692 277.344 C 254.204 280.320,252.745 281.641,249.945 281.641 C 248.181 281.641,246.573 280.984,236.144 276.004 C 220.689 268.624,202.088 260.159,200.814 259.926 C 200.077 259.790,196.322 261.390,186.914 265.847 " stroke="none" fill="#4f6d95" fill-rule="evenodd"></path><path id="path3" d="M194.922 54.934 C 129.588 58.405,75.316 101.582,59.779 162.448 C 58.694 166.697,58.965 166.950,60.142 162.787 C 83.290 80.876,175.983 36.713,255.851 69.543 C 295.875 85.996,328.340 122.030,339.858 162.787 C 341.034 166.947,341.305 166.697,340.225 162.448 C 323.988 98.520,260.381 51.456,194.922 54.934 M115.625 183.381 C 115.625 185.172,116.768 186.781,121.465 191.602 C 127.185 197.473,137.472 208.412,145.085 216.719 C 150.853 223.014,151.547 223.504,151.553 221.289 C 151.555 220.286,138.262 205.725,122.186 189.123 C 116.540 183.293,115.625 182.492,115.625 183.381 M283.821 183.411 C 281.408 187.147,271.351 198.194,259.052 210.618 L 249.122 220.650 249.395 222.105 L 249.668 223.561 253.770 219.495 C 266.781 206.599,282.135 189.527,283.835 186.065 C 285.057 183.579,285.046 181.515,283.821 183.411 M45.172 236.719 C 47.770 255.721,61.403 284.864,76.520 303.728 C 146.391 390.921,281.817 380.385,337.289 283.442 C 345.131 269.737,353.283 248.022,354.828 236.719 C 355.152 234.345,355.004 234.788,353.134 241.752 C 328.676 332.853,228.361 382.617,140.625 347.174 C 94.827 328.673,59.554 289.013,46.866 241.752 C 44.996 234.788,44.848 234.345,45.172 236.719 M187.281 262.173 C 150.389 279.615,150.875 279.444,147.434 276.172 L 145.997 274.805 146.276 276.367 C 146.911 279.913,148.906 281.482,152.376 281.164 C 154.698 280.951,157.297 279.805,184.491 267.003 C 196.400 261.396,200.254 259.745,200.994 259.930 C 202.362 260.274,222.178 269.335,236.144 276.004 C 246.573 280.984,248.181 281.641,249.945 281.641 C 252.633 281.641,254.244 280.280,254.570 277.734 L 254.795 275.977 253.759 276.929 C 251.175 279.304,249.585 278.906,236.273 272.551 C 229.751 269.437,219.141 264.477,212.695 261.529 C 206.250 258.581,200.878 256.109,200.757 256.037 C 200.637 255.964,194.573 258.725,187.281 262.173 " stroke="none" fill="#354c63" fill-rule="evenodd"></path><path id="path4" d="M191.113 41.686 C 191.704 41.776,192.671 41.776,193.262 41.686 C 193.853 41.597,193.369 41.523,192.188 41.523 C 191.006 41.523,190.522 41.597,191.113 41.686 M206.738 41.686 C 207.329 41.776,208.296 41.776,208.887 41.686 C 209.478 41.597,208.994 41.523,207.813 41.523 C 206.631 41.523,206.147 41.597,206.738 41.686 M185.449 42.073 C 185.933 42.166,186.724 42.166,187.207 42.073 C 187.690 41.979,187.295 41.903,186.328 41.903 C 185.361 41.903,184.966 41.979,185.449 42.073 M212.793 42.073 C 213.276 42.166,214.067 42.166,214.551 42.073 C 215.034 41.979,214.639 41.903,213.672 41.903 C 212.705 41.903,212.310 41.979,212.793 42.073 M90.417 85.254 L 88.086 87.695 90.527 85.364 C 92.795 83.198,93.147 82.813,92.859 82.813 C 92.798 82.813,91.700 83.911,90.417 85.254 M309.180 85.156 C 310.455 86.445,311.587 87.500,311.694 87.500 C 311.802 87.500,310.846 86.445,309.570 85.156 C 308.295 83.867,307.163 82.813,307.056 82.813 C 306.948 82.813,307.904 83.867,309.180 85.156 M84.949 90.723 L 82.617 93.164 85.059 90.833 C 87.326 88.667,87.679 88.281,87.390 88.281 C 87.330 88.281,86.231 89.380,84.949 90.723 M314.648 90.625 C 315.924 91.914,317.056 92.969,317.163 92.969 C 317.270 92.969,316.315 91.914,315.039 90.625 C 313.763 89.336,312.632 88.281,312.524 88.281 C 312.417 88.281,313.373 89.336,314.648 90.625 M97.063 97.363 L 93.164 101.367 97.168 97.468 C 100.887 93.847,101.349 93.359,101.067 93.359 C 101.009 93.359,99.207 95.161,97.063 97.363 M302.539 97.266 C 304.679 99.414,306.519 101.172,306.626 101.172 C 306.733 101.172,305.070 99.414,302.930 97.266 C 300.789 95.117,298.950 93.359,298.843 93.359 C 298.735 93.359,300.399 95.117,302.539 97.266 M41.523 192.578 C 41.523 193.760,41.597 194.243,41.686 193.652 C 41.776 193.062,41.776 192.095,41.686 191.504 C 41.597 190.913,41.523 191.396,41.523 192.578 M54.799 192.383 C 54.802 193.457,54.878 193.850,54.968 193.256 C 55.058 192.663,55.055 191.784,54.962 191.303 C 54.870 190.823,54.796 191.309,54.799 192.383 M345.034 192.383 C 345.037 193.457,345.112 193.850,345.202 193.256 C 345.292 192.663,345.290 191.784,345.197 191.303 C 345.104 190.823,345.031 191.309,345.034 192.383 M358.320 192.578 C 358.320 193.760,358.393 194.243,358.483 193.652 C 358.572 193.062,358.572 192.095,358.483 191.504 C 358.393 190.913,358.320 191.396,358.320 192.578 M126.367 193.359 C 127.425 194.434,128.379 195.313,128.486 195.313 C 128.594 195.313,127.816 194.434,126.758 193.359 C 125.700 192.285,124.746 191.406,124.639 191.406 C 124.531 191.406,125.309 192.285,126.367 193.359 M269.702 199.316 L 268.555 200.586 269.824 199.439 C 270.522 198.808,271.094 198.236,271.094 198.169 C 271.094 197.867,270.771 198.133,269.702 199.316 M132.813 200.195 C 133.541 200.947,134.226 201.563,134.333 201.563 C 134.440 201.563,133.932 200.947,133.203 200.195 C 132.474 199.443,131.790 198.828,131.683 198.828 C 131.575 198.828,132.084 199.443,132.813 200.195 M137.500 205.200 C 137.500 205.268,138.071 205.839,138.770 206.470 L 140.039 207.617 138.892 206.348 C 137.822 205.164,137.500 204.899,137.500 205.200 M261.707 207.715 L 259.180 210.352 261.816 207.824 C 263.267 206.434,264.453 205.247,264.453 205.187 C 264.453 204.900,264.055 205.266,261.707 207.715 M41.518 207.227 C 41.521 208.301,41.597 208.694,41.687 208.100 C 41.776 207.506,41.774 206.627,41.681 206.147 C 41.589 205.667,41.515 206.152,41.518 207.227 M54.799 207.227 C 54.802 208.301,54.878 208.694,54.968 208.100 C 55.058 207.506,55.055 206.627,54.962 206.147 C 54.870 205.667,54.796 206.152,54.799 207.227 M345.034 207.227 C 345.037 208.301,345.112 208.694,345.202 208.100 C 345.292 207.506,345.290 206.627,345.197 206.147 C 345.104 205.667,345.031 206.152,345.034 207.227 M358.315 207.227 C 358.318 208.301,358.394 208.694,358.483 208.100 C 358.573 207.506,358.571 206.627,358.478 206.147 C 358.385 205.667,358.312 206.152,358.315 207.227 M97.070 302.734 C 98.563 304.238,99.872 305.469,99.979 305.469 C 100.086 305.469,98.953 304.238,97.461 302.734 C 95.969 301.230,94.660 300.000,94.552 300.000 C 94.445 300.000,95.578 301.230,97.070 302.734 M302.529 302.832 L 299.805 305.664 302.637 302.940 C 305.267 300.410,305.647 300.000,305.361 300.000 C 305.301 300.000,304.027 301.274,302.529 302.832 M87.695 312.109 C 89.404 313.828,90.890 315.234,90.997 315.234 C 91.105 315.234,89.795 313.828,88.086 312.109 C 86.377 310.391,84.891 308.984,84.784 308.984 C 84.677 308.984,85.987 310.391,87.695 312.109 M311.905 312.207 L 308.789 315.430 312.012 312.314 C 313.784 310.600,315.234 309.150,315.234 309.091 C 315.234 308.806,314.799 309.214,311.905 312.207 M187.016 344.808 C 187.502 344.901,188.205 344.897,188.579 344.800 C 188.952 344.702,188.555 344.625,187.695 344.630 C 186.836 344.634,186.530 344.714,187.016 344.808 M211.626 344.808 C 212.112 344.901,212.815 344.897,213.188 344.800 C 213.562 344.702,213.164 344.625,212.305 344.630 C 211.445 344.634,211.140 344.714,211.626 344.808 M192.676 345.206 C 193.481 345.291,194.800 345.291,195.605 345.206 C 196.411 345.122,195.752 345.053,194.141 345.053 C 192.529 345.053,191.870 345.122,192.676 345.206 M204.395 345.206 C 205.200 345.291,206.519 345.291,207.324 345.206 C 208.130 345.122,207.471 345.053,205.859 345.053 C 204.248 345.053,203.589 345.122,204.395 345.206 M192.285 358.472 C 192.661 358.571,193.276 358.571,193.652 358.472 C 194.028 358.374,193.721 358.294,192.969 358.294 C 192.217 358.294,191.909 358.374,192.285 358.472 M206.348 358.472 C 206.724 358.571,207.339 358.571,207.715 358.472 C 208.091 358.374,207.783 358.294,207.031 358.294 C 206.279 358.294,205.972 358.374,206.348 358.472 " stroke="none" fill="#9db1c5" fill-rule="evenodd"></path><path id="path0" d="M0.000 144.336 L 0.000 288.672 31.250 288.672 C 48.438 288.672,62.500 288.571,62.500 288.448 C 62.500 288.326,62.044 287.447,61.486 286.495 C 60.929 285.544,60.564 284.766,60.676 284.766 C 60.788 284.766,59.575 282.043,57.979 278.715 C 56.384 275.387,54.743 271.828,54.333 270.805 C 53.923 269.782,53.029 267.627,52.345 266.016 C 44.027 246.405,39.265 217.073,40.994 196.094 C 41.233 193.193,41.494 189.854,41.574 188.672 C 41.653 187.490,41.825 185.732,41.955 184.766 C 42.085 183.799,42.374 181.602,42.598 179.883 C 55.234 82.971,150.328 20.714,244.531 47.679 C 307.431 65.683,354.155 123.599,358.436 188.867 C 358.507 189.941,358.761 193.193,359.003 196.094 C 360.744 217.050,355.984 246.380,347.655 266.016 C 346.971 267.627,346.077 269.782,345.667 270.805 C 345.257 271.828,343.616 275.387,342.021 278.715 C 340.425 282.043,339.212 284.766,339.324 284.766 C 339.436 284.766,339.071 285.544,338.514 286.495 C 337.956 287.447,337.500 288.326,337.500 288.448 C 337.500 288.571,351.563 288.672,368.750 288.672 L 400.000 288.672 400.000 144.336 L 400.000 0.000 200.000 0.000 L 0.000 0.000 0.000 144.336 M187.891 60.193 C 112.617 66.680,55.627 128.875,55.489 204.688 C 55.386 261.337,93.766 315.270,148.840 335.870 C 221.902 363.198,303.207 328.283,333.787 256.445 C 347.148 225.059,348.168 190.826,336.738 157.328 C 315.461 94.966,253.510 54.538,187.891 60.193 M202.478 116.160 C 205.074 117.245,205.770 118.362,220.504 145.117 C 224.409 152.207,228.277 159.249,229.101 160.766 L 230.599 163.524 243.327 165.986 C 250.327 167.339,261.569 169.489,268.309 170.763 C 283.634 173.659,285.178 174.367,285.472 178.634 C 285.548 179.751,285.700 181.564,285.809 182.663 C 286.222 186.857,280.897 193.483,260.035 214.738 C 252.465 222.449,249.618 225.594,249.763 226.082 C 249.874 226.454,250.067 227.900,250.192 229.297 C 250.318 230.693,250.590 233.154,250.797 234.766 C 251.004 236.377,251.269 238.574,251.386 239.648 C 251.938 244.739,253.678 258.160,254.901 266.774 C 256.555 278.416,256.290 280.568,252.990 282.309 C 250.165 283.800,248.618 283.365,237.029 277.820 C 231.165 275.015,225.049 272.114,223.438 271.373 C 198.640 259.972,200.771 260.680,196.875 262.543 C 153.190 283.427,151.248 284.159,147.463 281.182 C 145.559 279.684,143.689 272.267,145.215 272.265 C 145.376 272.265,145.524 271.254,145.543 270.019 C 145.589 267.115,145.765 265.536,148.056 247.461 C 148.900 240.801,149.925 233.066,150.333 230.273 L 151.076 225.195 149.689 223.633 C 145.501 218.916,129.964 202.252,123.332 195.364 C 119.118 190.989,115.359 186.770,114.979 185.989 C 114.192 184.375,114.024 181.198,114.713 180.968 C 115.023 180.865,115.064 180.455,114.841 179.678 C 114.188 177.401,115.638 175.078,118.501 173.811 C 119.797 173.238,161.310 164.977,168.645 163.832 C 170.267 163.579,170.335 163.505,172.319 159.815 C 175.541 153.824,186.454 134.010,190.527 126.758 C 196.452 116.207,198.418 114.464,202.478 116.160 M345.020 204.102 C 345.025 204.961,345.105 205.267,345.198 204.781 C 345.292 204.295,345.288 203.592,345.190 203.218 C 345.092 202.845,345.016 203.242,345.020 204.102 M54.778 204.297 C 54.778 205.049,54.859 205.356,54.957 204.980 C 55.055 204.604,55.055 203.989,54.957 203.613 C 54.859 203.237,54.778 203.545,54.778 204.297 " stroke="none" fill="#6291c0" fill-rule="evenodd"></path><path id="path1" d="M189.258 41.853 C 68.193 49.823,0.973 186.427,68.189 287.891 C 135.769 389.905,289.711 378.918,342.944 268.281 C 395.325 159.415,310.130 33.896,189.258 41.853 M211.523 55.086 C 327.370 64.745,386.064 199.847,313.766 290.430 C 247.406 373.573,117.336 359.794,69.802 264.585 C 19.637 164.106,99.694 45.763,211.523 55.086 M198.960 116.063 C 196.290 116.815,191.444 124.783,173.628 157.719 C 171.970 160.783,170.460 163.385,170.272 163.502 C 170.084 163.618,159.865 165.635,147.563 167.984 C 116.287 173.957,117.171 173.727,115.611 176.285 C 113.786 179.279,114.894 181.352,122.442 189.063 C 128.744 195.501,136.797 204.068,146.169 214.303 L 151.908 220.572 151.136 225.813 C 148.820 241.555,145.697 267.507,145.712 270.898 C 145.731 275.229,148.701 278.163,152.465 277.568 C 154.272 277.283,162.081 273.785,184.938 263.022 C 193.305 259.083,200.295 255.859,200.471 255.859 C 201.125 255.859,224.151 266.453,238.281 273.254 C 249.842 278.819,251.550 279.133,254.052 276.159 C 255.609 274.309,255.615 272.814,254.112 262.297 C 253.344 256.930,251.873 245.420,250.843 236.719 L 248.971 220.898 258.596 210.938 C 280.347 188.429,285.195 182.574,285.253 178.741 C 285.317 174.507,283.729 173.823,266.211 170.541 C 244.427 166.460,230.758 163.728,230.454 163.395 C 230.299 163.225,227.579 158.340,224.410 152.539 C 204.221 115.590,203.632 114.746,198.960 116.063 " stroke="none" fill="#fbfbfb" fill-rule="evenodd"></path><path id="path2" d="M195.219 54.964 C 195.705 55.057,196.408 55.054,196.782 54.956 C 197.155 54.858,196.758 54.782,195.898 54.786 C 195.039 54.790,194.733 54.870,195.219 54.964 M203.423 54.964 C 203.908 55.057,204.612 55.054,204.985 54.956 C 205.358 54.858,204.961 54.782,204.102 54.786 C 203.242 54.790,202.937 54.870,203.423 54.964 M188.867 58.830 C 178.982 59.806,172.959 60.764,165.690 62.513 C 116.935 74.250,76.866 111.270,61.362 158.902 C 60.573 161.328,59.826 163.211,59.703 163.088 C 59.579 162.965,59.568 163.335,59.679 163.912 C 59.808 164.587,59.733 164.870,59.468 164.706 C 59.212 164.548,59.134 164.747,59.262 165.234 C 59.374 165.664,59.286 166.016,59.067 166.016 C 58.847 166.016,58.759 166.367,58.871 166.797 C 58.984 167.227,58.885 167.578,58.652 167.578 C 58.418 167.578,58.330 167.844,58.454 168.169 C 58.579 168.494,58.487 168.994,58.250 169.279 C 58.013 169.565,57.931 169.910,58.067 170.046 C 58.203 170.182,58.138 170.518,57.921 170.791 C 57.705 171.065,57.525 171.553,57.521 171.875 C 57.516 172.197,57.394 172.988,57.249 173.633 C 55.637 180.776,54.540 195.981,54.980 205.078 L 55.273 211.133 55.518 201.563 C 57.041 141.888,93.689 89.689,148.438 69.214 C 242.751 33.942,341.913 100.885,344.482 201.563 L 344.727 211.133 345.020 204.813 C 345.446 195.621,344.367 180.792,342.752 173.633 C 342.606 172.988,342.484 172.197,342.479 171.875 C 342.475 171.553,342.295 171.065,342.079 170.791 C 341.862 170.518,341.797 170.182,341.933 170.046 C 342.069 169.910,341.987 169.565,341.750 169.279 C 341.513 168.994,341.421 168.494,341.546 168.169 C 341.670 167.844,341.582 167.578,341.348 167.578 C 341.115 167.578,341.016 167.227,341.129 166.797 C 341.241 166.367,341.153 166.016,340.933 166.016 C 340.714 166.016,340.626 165.664,340.738 165.234 C 340.866 164.747,340.788 164.548,340.532 164.706 C 340.267 164.870,340.192 164.587,340.321 163.912 C 340.432 163.335,340.421 162.965,340.297 163.088 C 340.174 163.211,339.427 161.328,338.638 158.902 C 321.275 105.559,275.159 67.466,218.359 59.552 C 214.078 58.956,192.855 58.436,188.867 58.830 M284.952 181.277 C 284.793 181.778,284.632 182.827,284.594 183.607 C 284.430 186.993,276.990 195.779,257.098 216.074 C 251.913 221.364,249.589 224.001,249.677 224.491 C 249.769 225.009,252.998 221.924,261.404 213.286 C 281.304 192.838,285.946 187.130,285.932 183.121 C 285.924 181.003,285.370 179.960,284.952 181.277 M114.258 182.030 C 113.622 184.926,114.562 186.290,123.772 195.830 C 129.466 201.727,140.778 213.847,149.723 223.633 C 150.973 225.001,151.152 225.090,151.161 224.348 C 151.167 223.883,151.276 223.179,151.404 222.786 C 151.568 222.280,151.530 222.218,151.274 222.574 C 151.008 222.944,149.365 221.390,145.085 216.719 C 137.472 208.412,127.185 197.473,121.465 191.602 C 116.699 186.710,115.517 185.016,115.655 183.270 C 115.830 181.047,114.695 180.039,114.258 182.030 M118.359 185.264 C 118.359 185.323,119.722 186.685,121.387 188.291 L 124.414 191.211 121.494 188.184 C 118.782 185.372,118.359 184.978,118.359 185.264 M40.859 198.633 C 39.793 220.687,44.278 246.997,52.345 266.016 C 53.029 267.627,53.923 269.782,54.333 270.805 C 54.743 271.828,56.384 275.387,57.979 278.715 C 59.575 282.043,60.788 284.766,60.676 284.766 C 60.564 284.766,60.929 285.544,61.486 286.495 C 62.044 287.447,62.500 288.326,62.500 288.448 C 62.500 288.571,48.438 288.672,31.250 288.672 L 0.000 288.672 0.000 344.336 L 0.000 400.000 200.000 400.000 L 400.000 400.000 400.000 344.336 L 400.000 288.672 368.750 288.672 C 351.563 288.672,337.500 288.571,337.500 288.448 C 337.500 288.326,337.956 287.447,338.514 286.495 C 339.071 285.544,339.436 284.766,339.324 284.766 C 339.212 284.766,340.425 282.043,342.021 278.715 C 343.616 275.387,345.257 271.828,345.667 270.805 C 346.077 269.782,346.971 267.627,347.655 266.016 C 355.743 246.949,360.203 220.784,359.141 198.633 L 358.804 191.602 358.544 202.539 C 358.308 212.481,357.768 218.668,356.381 227.344 C 356.261 228.096,356.179 229.098,356.200 229.570 C 356.221 230.043,356.089 230.522,355.906 230.635 C 355.723 230.748,355.658 231.284,355.762 231.827 C 355.866 232.369,355.779 232.813,355.568 232.813 C 355.358 232.813,355.270 233.252,355.373 233.789 C 355.476 234.326,355.388 234.766,355.178 234.766 C 354.968 234.766,354.885 235.231,354.994 235.800 C 355.121 236.465,355.045 236.744,354.781 236.581 C 354.528 236.425,354.444 236.612,354.563 237.065 C 355.684 241.352,345.076 269.834,337.289 283.442 C 276.596 389.511,123.404 389.511,62.711 283.442 C 54.924 269.834,44.316 241.352,45.437 237.065 C 45.556 236.612,45.472 236.425,45.219 236.581 C 44.955 236.744,44.879 236.465,45.006 235.800 C 45.115 235.231,45.032 234.766,44.822 234.766 C 44.612 234.766,44.524 234.326,44.627 233.789 C 44.730 233.252,44.642 232.813,44.432 232.813 C 44.221 232.813,44.134 232.369,44.238 231.827 C 44.342 231.284,44.277 230.748,44.094 230.635 C 43.911 230.522,43.779 230.043,43.800 229.570 C 43.821 229.098,43.739 228.096,43.619 227.344 C 42.208 218.517,41.684 212.523,41.452 202.539 L 41.198 191.602 40.859 198.633 M266.385 203.027 L 265.039 204.492 266.504 203.146 C 267.867 201.893,268.148 201.563,267.850 201.563 C 267.785 201.563,267.126 202.222,266.385 203.027 M186.914 265.847 C 160.393 278.410,154.635 280.964,152.376 281.167 C 148.889 281.481,146.590 279.624,146.288 276.250 C 145.903 271.960,144.917 270.839,144.930 274.707 C 144.950 280.272,148.667 283.634,153.466 282.426 C 155.534 281.905,175.558 272.733,196.875 262.543 C 200.771 260.680,198.640 259.972,223.438 271.373 C 225.049 272.114,231.165 275.015,237.029 277.820 C 246.380 282.294,247.941 282.923,249.724 282.940 C 254.325 282.984,256.652 279.759,255.975 274.275 L 255.703 272.070 255.374 273.633 C 255.193 274.492,254.886 276.162,254.692 277.344 C 254.204 280.320,252.745 281.641,249.945 281.641 C 248.181 281.641,246.573 280.984,236.144 276.004 C 220.689 268.624,202.088 260.159,200.814 259.926 C 200.077 259.790,196.322 261.390,186.914 265.847 " stroke="none" fill="#4f6d95" fill-rule="evenodd"></path><path id="path3" d="M194.922 54.934 C 129.588 58.405,75.316 101.582,59.779 162.448 C 58.694 166.697,58.965 166.950,60.142 162.787 C 83.290 80.876,175.983 36.713,255.851 69.543 C 295.875 85.996,328.340 122.030,339.858 162.787 C 341.034 166.947,341.305 166.697,340.225 162.448 C 323.988 98.520,260.381 51.456,194.922 54.934 M115.625 183.381 C 115.625 185.172,116.768 186.781,121.465 191.602 C 127.185 197.473,137.472 208.412,145.085 216.719 C 150.853 223.014,151.547 223.504,151.553 221.289 C 151.555 220.286,138.262 205.725,122.186 189.123 C 116.540 183.293,115.625 182.492,115.625 183.381 M283.821 183.411 C 281.408 187.147,271.351 198.194,259.052 210.618 L 249.122 220.650 249.395 222.105 L 249.668 223.561 253.770 219.495 C 266.781 206.599,282.135 189.527,283.835 186.065 C 285.057 183.579,285.046 181.515,283.821 183.411 M45.172 236.719 C 47.770 255.721,61.403 284.864,76.520 303.728 C 146.391 390.921,281.817 380.385,337.289 283.442 C 345.131 269.737,353.283 248.022,354.828 236.719 C 355.152 234.345,355.004 234.788,353.134 241.752 C 328.676 332.853,228.361 382.617,140.625 347.174 C 94.827 328.673,59.554 289.013,46.866 241.752 C 44.996 234.788,44.848 234.345,45.172 236.719 M187.281 262.173 C 150.389 279.615,150.875 279.444,147.434 276.172 L 145.997 274.805 146.276 276.367 C 146.911 279.913,148.906 281.482,152.376 281.164 C 154.698 280.951,157.297 279.805,184.491 267.003 C 196.400 261.396,200.254 259.745,200.994 259.930 C 202.362 260.274,222.178 269.335,236.144 276.004 C 246.573 280.984,248.181 281.641,249.945 281.641 C 252.633 281.641,254.244 280.280,254.570 277.734 L 254.795 275.977 253.759 276.929 C 251.175 279.304,249.585 278.906,236.273 272.551 C 229.751 269.437,219.141 264.477,212.695 261.529 C 206.250 258.581,200.878 256.109,200.757 256.037 C 200.637 255.964,194.573 258.725,187.281 262.173 " stroke="none" fill="#354c63" fill-rule="evenodd"></path><path id="path4" d="M191.113 41.686 C 191.704 41.776,192.671 41.776,193.262 41.686 C 193.853 41.597,193.369 41.523,192.188 41.523 C 191.006 41.523,190.522 41.597,191.113 41.686 M206.738 41.686 C 207.329 41.776,208.296 41.776,208.887 41.686 C 209.478 41.597,208.994 41.523,207.813 41.523 C 206.631 41.523,206.147 41.597,206.738 41.686 M185.449 42.073 C 185.933 42.166,186.724 42.166,187.207 42.073 C 187.690 41.979,187.295 41.903,186.328 41.903 C 185.361 41.903,184.966 41.979,185.449 42.073 M212.793 42.073 C 213.276 42.166,214.067 42.166,214.551 42.073 C 215.034 41.979,214.639 41.903,213.672 41.903 C 212.705 41.903,212.310 41.979,212.793 42.073 M90.417 85.254 L 88.086 87.695 90.527 85.364 C 92.795 83.198,93.147 82.813,92.859 82.813 C 92.798 82.813,91.700 83.911,90.417 85.254 M309.180 85.156 C 310.455 86.445,311.587 87.500,311.694 87.500 C 311.802 87.500,310.846 86.445,309.570 85.156 C 308.295 83.867,307.163 82.813,307.056 82.813 C 306.948 82.813,307.904 83.867,309.180 85.156 M84.949 90.723 L 82.617 93.164 85.059 90.833 C 87.326 88.667,87.679 88.281,87.390 88.281 C 87.330 88.281,86.231 89.380,84.949 90.723 M314.648 90.625 C 315.924 91.914,317.056 92.969,317.163 92.969 C 317.270 92.969,316.315 91.914,315.039 90.625 C 313.763 89.336,312.632 88.281,312.524 88.281 C 312.417 88.281,313.373 89.336,314.648 90.625 M97.063 97.363 L 93.164 101.367 97.168 97.468 C 100.887 93.847,101.349 93.359,101.067 93.359 C 101.009 93.359,99.207 95.161,97.063 97.363 M302.539 97.266 C 304.679 99.414,306.519 101.172,306.626 101.172 C 306.733 101.172,305.070 99.414,302.930 97.266 C 300.789 95.117,298.950 93.359,298.843 93.359 C 298.735 93.359,300.399 95.117,302.539 97.266 M41.523 192.578 C 41.523 193.760,41.597 194.243,41.686 193.652 C 41.776 193.062,41.776 192.095,41.686 191.504 C 41.597 190.913,41.523 191.396,41.523 192.578 M54.799 192.383 C 54.802 193.457,54.878 193.850,54.968 193.256 C 55.058 192.663,55.055 191.784,54.962 191.303 C 54.870 190.823,54.796 191.309,54.799 192.383 M345.034 192.383 C 345.037 193.457,345.112 193.850,345.202 193.256 C 345.292 192.663,345.290 191.784,345.197 191.303 C 345.104 190.823,345.031 191.309,345.034 192.383 M358.320 192.578 C 358.320 193.760,358.393 194.243,358.483 193.652 C 358.572 193.062,358.572 192.095,358.483 191.504 C 358.393 190.913,358.320 191.396,358.320 192.578 M126.367 193.359 C 127.425 194.434,128.379 195.313,128.486 195.313 C 128.594 195.313,127.816 194.434,126.758 193.359 C 125.700 192.285,124.746 191.406,124.639 191.406 C 124.531 191.406,125.309 192.285,126.367 193.359 M269.702 199.316 L 268.555 200.586 269.824 199.439 C 270.522 198.808,271.094 198.236,271.094 198.169 C 271.094 197.867,270.771 198.133,269.702 199.316 M132.813 200.195 C 133.541 200.947,134.226 201.563,134.333 201.563 C 134.440 201.563,133.932 200.947,133.203 200.195 C 132.474 199.443,131.790 198.828,131.683 198.828 C 131.575 198.828,132.084 199.443,132.813 200.195 M137.500 205.200 C 137.500 205.268,138.071 205.839,138.770 206.470 L 140.039 207.617 138.892 206.348 C 137.822 205.164,137.500 204.899,137.500 205.200 M261.707 207.715 L 259.180 210.352 261.816 207.824 C 263.267 206.434,264.453 205.247,264.453 205.187 C 264.453 204.900,264.055 205.266,261.707 207.715 M41.518 207.227 C 41.521 208.301,41.597 208.694,41.687 208.100 C 41.776 207.506,41.774 206.627,41.681 206.147 C 41.589 205.667,41.515 206.152,41.518 207.227 M54.799 207.227 C 54.802 208.301,54.878 208.694,54.968 208.100 C 55.058 207.506,55.055 206.627,54.962 206.147 C 54.870 205.667,54.796 206.152,54.799 207.227 M345.034 207.227 C 345.037 208.301,345.112 208.694,345.202 208.100 C 345.292 207.506,345.290 206.627,345.197 206.147 C 345.104 205.667,345.031 206.152,345.034 207.227 M358.315 207.227 C 358.318 208.301,358.394 208.694,358.483 208.100 C 358.573 207.506,358.571 206.627,358.478 206.147 C 358.385 205.667,358.312 206.152,358.315 207.227 M97.070 302.734 C 98.563 304.238,99.872 305.469,99.979 305.469 C 100.086 305.469,98.953 304.238,97.461 302.734 C 95.969 301.230,94.660 300.000,94.552 300.000 C 94.445 300.000,95.578 301.230,97.070 302.734 M302.529 302.832 L 299.805 305.664 302.637 302.940 C 305.267 300.410,305.647 300.000,305.361 300.000 C 305.301 300.000,304.027 301.274,302.529 302.832 M87.695 312.109 C 89.404 313.828,90.890 315.234,90.997 315.234 C 91.105 315.234,89.795 313.828,88.086 312.109 C 86.377 310.391,84.891 308.984,84.784 308.984 C 84.677 308.984,85.987 310.391,87.695 312.109 M311.905 312.207 L 308.789 315.430 312.012 312.314 C 313.784 310.600,315.234 309.150,315.234 309.091 C 315.234 308.806,314.799 309.214,311.905 312.207 M187.016 344.808 C 187.502 344.901,188.205 344.897,188.579 344.800 C 188.952 344.702,188.555 344.625,187.695 344.630 C 186.836 344.634,186.530 344.714,187.016 344.808 M211.626 344.808 C 212.112 344.901,212.815 344.897,213.188 344.800 C 213.562 344.702,213.164 344.625,212.305 344.630 C 211.445 344.634,211.140 344.714,211.626 344.808 M192.676 345.206 C 193.481 345.291,194.800 345.291,195.605 345.206 C 196.411 345.122,195.752 345.053,194.141 345.053 C 192.529 345.053,191.870 345.122,192.676 345.206 M204.395 345.206 C 205.200 345.291,206.519 345.291,207.324 345.206 C 208.130 345.122,207.471 345.053,205.859 345.053 C 204.248 345.053,203.589 345.122,204.395 345.206 M192.285 358.472 C 192.661 358.571,193.276 358.571,193.652 358.472 C 194.028 358.374,193.721 358.294,192.969 358.294 C 192.217 358.294,191.909 358.374,192.285 358.472 M206.348 358.472 C 206.724 358.571,207.339 358.571,207.715 358.472 C 208.091 358.374,207.783 358.294,207.031 358.294 C 206.279 358.294,205.972 358.374,206.348 358.472 " stroke="none" fill="#9db1c5" fill-rule="evenodd"></path></g></svg>