<svg id="svg" version="1.1" xmlns="http://www.w3.org/2000/svg" xmlns:xlink="http://www.w3.org/1999/xlink" width="400" height="400" viewBox="0, 0, 400,400"><g id="svgg"><path id="path0" d="M85.413 43.978 C 85.270 44.210,84.364 44.400,83.400 44.400 C 82.436 44.400,81.536 44.580,81.400 44.800 C 81.264 45.020,80.544 45.200,79.800 45.200 C 79.056 45.200,78.336 45.380,78.200 45.600 C 78.064 45.820,77.648 45.998,77.276 45.995 C 76.298 45.988,68.716 49.885,67.482 51.029 C 66.906 51.563,66.292 52.000,66.117 52.000 C 63.863 52.004,54.446 63.365,51.851 69.212 C 51.220 70.635,50.545 72.113,50.351 72.495 C 50.158 72.877,50.000 73.541,50.000 73.971 C 50.000 74.401,49.820 74.864,49.600 75.000 C 49.380 75.136,49.200 75.856,49.200 76.600 C 49.200 77.344,49.020 78.064,48.800 78.200 C 48.580 78.336,48.400 79.416,48.400 80.600 C 48.400 81.784,48.220 82.864,48.000 83.000 C 47.780 83.136,47.600 84.846,47.600 86.800 C 47.600 88.754,47.780 90.464,48.000 90.600 C 48.220 90.736,48.400 91.816,48.400 93.000 C 48.400 94.184,48.580 95.264,48.800 95.400 C 49.020 95.536,49.200 96.030,49.200 96.497 C 49.200 98.724,53.398 108.187,55.336 110.329 C 55.701 110.733,56.000 111.246,56.000 111.470 C 56.000 112.090,65.563 121.600,66.187 121.600 C 66.487 121.600,66.793 121.761,66.867 121.958 C 67.332 123.207,77.678 128.000,79.907 128.000 C 80.310 128.000,80.811 128.163,81.020 128.363 C 81.883 129.188,95.403 129.957,96.136 129.224 C 96.369 128.991,97.157 128.800,97.887 128.800 C 100.851 128.800,110.264 125.678,111.200 124.384 C 111.310 124.232,112.120 123.739,113.000 123.289 C 113.880 122.838,114.997 122.094,115.483 121.635 C 115.969 121.176,116.519 120.800,116.706 120.800 C 117.150 120.800,124.800 113.150,124.800 112.706 C 124.800 112.518,125.245 111.885,125.790 111.298 C 126.334 110.711,127.793 108.153,129.033 105.615 C 130.272 103.077,131.446 100.687,131.643 100.305 C 131.839 99.923,132.000 99.079,132.000 98.429 C 132.000 97.779,132.180 97.136,132.400 97.000 C 132.620 96.864,132.800 95.964,132.800 95.000 C 132.800 94.036,132.980 93.136,133.200 93.000 C 133.703 92.689,133.743 80.136,133.242 79.826 C 133.045 79.705,132.782 78.929,132.658 78.103 C 132.128 74.593,131.892 73.580,131.556 73.373 C 131.360 73.252,131.200 72.820,131.200 72.414 C 131.200 72.008,130.848 70.984,130.419 70.138 C 129.989 69.292,129.271 67.790,128.823 66.800 C 128.376 65.810,127.472 64.280,126.814 63.400 C 126.157 62.520,125.183 61.170,124.648 60.400 C 123.455 58.679,118.701 54.059,116.800 52.773 C 116.030 52.253,115.197 51.640,114.948 51.413 C 113.594 50.175,107.349 46.800,106.412 46.800 C 106.053 46.800,105.589 46.651,105.380 46.470 C 105.171 46.288,104.190 45.907,103.200 45.624 C 102.210 45.341,101.040 44.959,100.600 44.775 C 98.577 43.932,85.855 43.264,85.413 43.978 M269.000 144.000 C 268.864 144.220,267.604 144.400,266.200 144.400 C 264.796 144.400,263.536 144.580,263.400 144.800 C 263.264 145.020,262.184 145.200,261.000 145.200 C 259.816 145.200,258.736 145.380,258.600 145.600 C 258.464 145.820,257.924 146.000,257.400 146.000 C 256.876 146.000,256.336 146.180,256.200 146.400 C 256.064 146.620,255.511 146.800,254.971 146.800 C 254.431 146.800,253.677 146.958,253.295 147.151 C 252.913 147.344,251.880 147.720,251.000 147.986 C 250.120 148.253,248.286 148.995,246.925 149.635 C 245.564 150.276,244.214 150.813,243.925 150.829 C 243.636 150.845,242.860 151.203,242.200 151.623 C 241.540 152.044,240.612 152.560,240.139 152.769 C 239.665 152.979,239.171 153.323,239.041 153.534 C 238.911 153.745,238.038 154.316,237.102 154.804 C 233.391 156.736,220.400 169.501,220.400 171.215 C 220.400 171.427,220.220 171.600,220.000 171.600 C 219.746 171.600,219.600 168.529,219.600 163.187 C 219.600 152.794,219.171 151.540,214.504 148.269 L 212.408 146.800 186.650 146.800 C 166.528 146.800,160.684 146.912,159.946 147.310 C 157.473 148.645,155.533 150.111,155.179 150.915 C 154.964 151.402,154.444 152.340,154.023 153.000 C 152.820 154.888,152.765 346.942,153.967 349.627 C 154.952 351.826,158.142 355.080,159.635 355.408 C 160.271 355.547,160.894 355.828,161.019 356.031 C 161.343 356.554,212.400 356.524,212.400 356.000 C 212.400 355.780,212.625 355.588,212.900 355.573 C 213.649 355.534,216.856 353.104,217.360 352.195 C 217.602 351.758,217.910 351.310,218.044 351.200 C 219.632 349.899,219.600 351.041,219.600 295.843 C 219.600 261.211,219.737 243.163,220.000 243.000 C 220.220 242.864,220.400 241.604,220.400 240.200 C 220.400 238.796,220.580 237.536,220.800 237.400 C 221.020 237.264,221.200 236.364,221.200 235.400 C 221.200 234.436,221.380 233.536,221.600 233.400 C 221.820 233.264,222.000 232.563,222.000 231.843 C 222.000 231.123,222.123 230.410,222.274 230.259 C 222.650 229.883,223.587 227.136,223.591 226.400 C 223.593 225.868,224.434 224.002,227.556 217.600 C 228.891 214.863,229.405 214.047,230.550 212.853 C 231.127 212.250,231.600 211.625,231.600 211.465 C 231.600 211.055,234.300 208.400,234.717 208.400 C 234.906 208.400,235.480 207.954,235.993 207.408 C 236.505 206.862,237.572 206.077,238.362 205.662 C 239.153 205.247,240.480 204.524,241.312 204.054 C 242.144 203.584,243.149 203.200,243.545 203.200 C 243.942 203.200,244.390 203.077,244.541 202.926 C 245.119 202.348,247.872 201.612,249.476 201.606 C 250.398 201.603,251.264 201.420,251.400 201.200 C 251.711 200.697,259.702 200.667,260.220 201.166 C 260.429 201.368,261.680 201.618,263.000 201.723 C 270.507 202.319,277.539 206.486,281.929 212.938 C 283.950 215.911,286.800 221.542,286.800 222.565 C 286.800 222.888,286.980 223.264,287.200 223.400 C 287.420 223.536,287.600 224.256,287.600 225.000 C 287.600 225.744,287.780 226.464,288.000 226.600 C 288.220 226.736,288.400 227.456,288.400 228.200 C 288.400 228.944,288.580 229.664,288.800 229.800 C 289.020 229.936,289.200 231.196,289.200 232.600 C 289.200 234.004,289.380 235.264,289.600 235.400 C 289.864 235.563,290.000 254.596,290.000 291.200 C 290.000 327.804,290.136 346.837,290.400 347.000 C 290.620 347.136,290.800 347.783,290.800 348.438 C 290.800 350.215,293.174 353.612,295.000 354.446 C 295.440 354.647,296.340 355.156,297.000 355.577 C 298.148 356.309,299.308 356.343,324.025 356.371 L 349.850 356.400 351.825 355.412 C 355.063 353.792,356.894 351.827,358.010 348.774 C 358.893 346.356,359.291 239.451,358.419 238.579 C 358.210 238.370,357.946 235.139,357.833 231.399 C 357.544 221.793,357.205 217.060,356.773 216.620 C 356.568 216.411,356.400 214.937,356.400 213.344 C 356.400 211.751,356.220 210.336,356.000 210.200 C 355.780 210.064,355.600 209.189,355.600 208.256 C 355.600 207.323,355.438 206.389,355.241 206.180 C 355.044 205.971,354.780 205.080,354.656 204.200 C 354.178 200.811,353.899 199.585,353.556 199.373 C 353.360 199.252,353.200 198.544,353.200 197.800 C 353.200 197.056,353.020 196.336,352.800 196.200 C 352.580 196.064,352.400 195.457,352.400 194.852 C 352.400 194.246,352.040 193.005,351.600 192.094 C 351.160 191.184,350.800 190.171,350.800 189.843 C 350.800 189.515,350.620 189.136,350.400 189.000 C 350.180 188.864,350.000 188.401,350.000 187.971 C 350.000 187.541,349.844 186.877,349.654 186.495 C 349.464 186.113,348.429 183.918,347.354 181.618 C 344.797 176.146,340.631 169.200,339.906 169.200 C 339.738 169.200,339.599 168.975,339.599 168.700 C 339.597 167.981,330.431 158.682,328.561 157.501 C 327.696 156.956,326.744 156.214,326.445 155.854 C 326.146 155.494,325.713 155.200,325.483 155.200 C 325.252 155.200,324.733 154.901,324.329 154.536 C 323.189 153.504,318.267 150.968,314.000 149.213 C 312.790 148.716,311.487 148.149,311.105 147.954 C 310.723 147.759,310.059 147.600,309.629 147.600 C 309.199 147.600,308.736 147.420,308.600 147.200 C 308.464 146.980,307.924 146.800,307.400 146.800 C 306.876 146.800,306.336 146.620,306.200 146.400 C 306.064 146.180,305.344 146.000,304.600 146.000 C 303.856 146.000,303.136 145.820,303.000 145.600 C 302.864 145.380,301.964 145.200,301.000 145.200 C 300.036 145.200,299.136 145.020,299.000 144.800 C 298.864 144.580,297.694 144.400,296.400 144.400 C 295.106 144.400,293.936 144.220,293.800 144.000 C 293.644 143.748,289.070 143.600,281.400 143.600 C 273.730 143.600,269.156 143.748,269.000 144.000 M64.308 147.460 C 62.812 148.249,58.819 152.298,58.368 153.484 C 57.956 154.569,57.935 347.507,58.347 349.299 C 58.711 350.880,62.114 354.260,64.503 355.413 L 66.550 356.400 90.575 356.394 C 115.072 356.388,116.660 356.300,118.093 354.867 C 118.350 354.610,118.757 354.400,118.999 354.400 C 119.544 354.400,122.400 351.514,122.400 350.963 C 122.400 350.741,122.610 350.350,122.867 350.093 C 124.413 348.547,124.388 350.162,124.394 251.594 C 124.400 157.962,124.389 156.557,123.610 154.426 C 122.508 151.413,120.101 148.863,117.069 147.500 C 114.917 146.532,66.139 146.495,64.308 147.460 " stroke="none" fill="#fbfbfb" fill-rule="evenodd"></path><path id="path1" d="M85.000 43.600 C 84.864 43.820,83.964 44.000,83.000 44.000 C 82.036 44.000,81.136 44.180,81.000 44.400 C 80.864 44.620,80.234 44.800,79.600 44.800 C 78.966 44.800,78.336 44.980,78.200 45.200 C 78.064 45.420,77.575 45.600,77.114 45.600 C 75.886 45.600,68.311 49.418,67.206 50.593 C 66.686 51.147,66.061 51.600,65.818 51.600 C 65.574 51.600,64.301 52.724,62.987 54.097 C 61.674 55.471,61.320 55.949,62.200 55.161 C 65.441 52.257,65.758 52.000,66.093 52.000 C 66.281 52.000,66.906 51.563,67.482 51.029 C 68.716 49.885,76.298 45.988,77.276 45.995 C 77.648 45.998,78.064 45.820,78.200 45.600 C 78.336 45.380,79.056 45.200,79.800 45.200 C 80.544 45.200,81.264 45.020,81.400 44.800 C 81.536 44.580,82.411 44.400,83.344 44.400 C 84.277 44.400,85.231 44.209,85.464 43.976 C 86.165 43.275,98.571 43.930,100.600 44.775 C 101.040 44.959,102.210 45.341,103.200 45.624 C 104.190 45.907,105.171 46.288,105.380 46.470 C 105.589 46.651,106.053 46.800,106.412 46.800 C 107.356 46.800,113.627 50.194,114.948 51.419 C 115.197 51.649,116.210 52.395,117.200 53.076 C 118.190 53.757,120.305 55.664,121.900 57.315 C 123.495 58.965,124.800 60.190,124.800 60.037 C 124.800 59.631,117.519 52.400,117.110 52.400 C 116.920 52.400,116.278 51.942,115.683 51.381 C 115.087 50.821,113.970 50.062,113.200 49.694 C 112.430 49.327,111.451 48.705,111.025 48.313 C 110.598 47.921,110.013 47.600,109.725 47.600 C 109.436 47.600,109.200 47.464,109.200 47.298 C 109.200 46.844,107.220 46.067,105.291 45.764 C 104.351 45.616,103.486 45.339,103.368 45.147 C 103.249 44.956,102.724 44.800,102.200 44.800 C 101.676 44.800,101.136 44.620,101.000 44.400 C 100.864 44.180,99.784 44.000,98.600 44.000 C 97.416 44.000,96.336 43.820,96.200 43.600 C 96.055 43.366,93.737 43.200,90.600 43.200 C 87.463 43.200,85.145 43.366,85.000 43.600 M57.887 59.112 C 56.629 60.383,55.600 61.615,55.600 61.850 C 55.600 62.084,55.240 62.602,54.800 63.000 C 54.360 63.398,54.000 63.944,54.000 64.213 C 54.000 64.482,53.738 64.919,53.418 65.185 C 52.661 65.813,50.000 71.200,50.000 72.104 C 50.000 72.487,49.820 72.800,49.600 72.800 C 49.380 72.800,49.200 73.239,49.200 73.776 C 49.200 74.313,49.020 74.864,48.800 75.000 C 48.580 75.136,48.400 75.856,48.400 76.600 C 48.400 77.344,48.220 78.064,48.000 78.200 C 47.780 78.336,47.600 79.416,47.600 80.600 C 47.600 81.784,47.420 82.864,47.200 83.000 C 46.980 83.136,46.800 84.846,46.800 86.800 C 46.800 88.754,46.980 90.464,47.200 90.600 C 47.420 90.736,47.600 91.726,47.600 92.800 C 47.600 93.874,47.780 94.864,48.000 95.000 C 48.220 95.136,48.400 95.856,48.400 96.600 C 48.400 97.344,48.580 98.064,48.800 98.200 C 49.020 98.336,49.200 98.876,49.200 99.400 C 49.200 99.924,49.380 100.464,49.600 100.600 C 49.820 100.736,50.000 101.150,50.000 101.520 C 50.000 102.406,52.672 107.795,53.418 108.415 C 53.738 108.681,54.000 109.118,54.000 109.387 C 54.000 109.656,54.360 110.202,54.800 110.600 C 55.240 110.998,55.600 111.524,55.600 111.768 C 55.600 112.348,65.276 122.000,65.857 122.000 C 66.102 122.000,66.526 122.270,66.800 122.600 C 67.074 122.930,67.490 123.200,67.724 123.200 C 67.959 123.200,67.764 122.840,67.292 122.400 C 66.820 121.960,66.255 121.600,66.037 121.600 C 65.515 121.600,56.000 111.997,56.000 111.470 C 56.000 111.246,55.701 110.733,55.336 110.329 C 53.398 108.187,49.200 98.724,49.200 96.497 C 49.200 96.030,49.020 95.536,48.800 95.400 C 48.580 95.264,48.400 94.184,48.400 93.000 C 48.400 91.816,48.220 90.736,48.000 90.600 C 47.478 90.278,47.478 83.322,48.000 83.000 C 48.220 82.864,48.400 81.784,48.400 80.600 C 48.400 79.416,48.580 78.336,48.800 78.200 C 49.020 78.064,49.200 77.344,49.200 76.600 C 49.200 75.856,49.380 75.136,49.600 75.000 C 49.820 74.864,50.000 74.401,50.000 73.971 C 50.000 73.541,50.158 72.877,50.351 72.495 C 50.545 72.113,51.220 70.637,51.851 69.216 C 53.410 65.710,56.485 61.004,58.724 58.700 C 59.739 57.655,60.481 56.800,60.372 56.800 C 60.264 56.800,59.146 57.840,57.887 59.112 M125.800 62.024 C 126.460 62.778,127.045 63.472,127.100 63.565 C 127.155 63.657,127.190 63.478,127.178 63.167 C 127.166 62.855,126.581 62.162,125.878 61.626 L 124.600 60.651 125.800 62.024 M127.633 64.643 C 127.981 65.060,128.577 66.120,128.957 67.000 C 129.337 67.880,129.997 69.292,130.424 70.138 C 130.851 70.984,131.200 72.008,131.200 72.414 C 131.200 72.820,131.360 73.252,131.556 73.373 C 131.892 73.580,132.128 74.593,132.658 78.103 C 132.782 78.929,133.045 79.705,133.242 79.826 C 133.743 80.136,133.703 92.689,133.200 93.000 C 132.980 93.136,132.800 94.036,132.800 95.000 C 132.800 95.964,132.620 96.864,132.400 97.000 C 132.180 97.136,132.000 97.779,132.000 98.429 C 132.000 99.079,131.839 99.923,131.643 100.305 C 131.446 100.687,130.272 103.077,129.033 105.615 C 127.793 108.153,126.334 110.711,125.790 111.298 C 124.487 112.703,124.514 113.208,125.826 111.976 C 126.390 111.446,127.140 110.379,127.493 109.606 C 127.846 108.833,128.394 107.894,128.712 107.519 C 129.455 106.643,131.200 103.202,131.200 102.612 C 131.200 101.929,132.158 100.007,132.500 100.003 C 132.665 100.001,132.800 99.280,132.800 98.400 C 132.800 97.520,132.980 96.800,133.200 96.800 C 133.420 96.800,133.600 96.001,133.600 95.024 C 133.600 94.047,133.780 93.136,134.000 93.000 C 134.239 92.852,134.400 90.204,134.400 86.400 C 134.400 82.596,134.239 79.948,134.000 79.800 C 133.780 79.664,133.600 78.944,133.600 78.200 C 133.600 77.456,133.420 76.736,133.200 76.600 C 132.980 76.464,132.800 75.744,132.800 75.000 C 132.800 74.256,132.620 73.536,132.400 73.400 C 132.180 73.264,132.000 72.713,132.000 72.176 C 132.000 71.639,131.820 71.200,131.600 71.200 C 131.380 71.200,131.200 70.840,131.200 70.400 C 131.200 69.960,131.020 69.600,130.800 69.600 C 130.580 69.600,130.400 69.240,130.400 68.800 C 130.400 68.360,130.265 67.999,130.100 67.997 C 129.765 67.993,128.800 66.077,128.800 65.416 C 128.800 65.183,128.395 64.744,127.900 64.440 C 127.041 63.912,127.029 63.921,127.633 64.643 M120.818 117.024 C 118.748 119.101,116.900 120.800,116.711 120.800 C 116.521 120.800,115.969 121.176,115.483 121.635 C 114.997 122.094,113.880 122.838,113.000 123.289 C 112.120 123.739,111.310 124.222,111.200 124.363 C 110.751 124.937,108.781 126.002,108.114 126.032 C 107.670 126.051,107.595 126.141,107.915 126.270 C 108.477 126.495,111.019 125.417,111.407 124.788 C 111.540 124.574,112.407 124.052,113.334 123.630 C 114.261 123.208,115.358 122.488,115.772 122.031 C 116.186 121.574,116.725 121.200,116.970 121.200 C 117.508 121.200,125.039 113.705,124.770 113.437 C 124.666 113.333,122.888 114.947,120.818 117.024 M68.785 123.782 C 69.331 124.440,74.747 127.200,75.491 127.200 C 75.758 127.200,76.617 127.560,77.400 128.000 C 78.183 128.440,79.348 128.800,79.989 128.800 C 80.629 128.800,81.264 128.980,81.400 129.200 C 81.536 129.420,82.627 129.600,83.824 129.600 C 85.021 129.600,86.000 129.780,86.000 130.000 C 86.000 130.245,87.925 130.400,90.976 130.400 C 93.863 130.400,96.057 130.232,96.200 130.000 C 96.336 129.780,97.247 129.600,98.224 129.600 C 99.201 129.600,100.000 129.420,100.000 129.200 C 100.000 128.980,100.720 128.800,101.600 128.800 C 102.480 128.800,103.200 128.620,103.200 128.400 C 103.200 128.180,103.532 128.000,103.939 128.000 C 104.664 128.000,107.200 126.896,107.200 126.581 C 107.200 126.492,106.718 126.603,106.129 126.827 C 103.945 127.658,99.172 128.800,97.887 128.800 C 97.157 128.800,96.369 128.991,96.136 129.224 C 95.403 129.957,81.883 129.188,81.020 128.363 C 80.811 128.163,80.310 128.000,79.907 128.000 C 78.155 128.000,70.012 124.591,69.401 123.601 C 69.264 123.380,68.961 123.200,68.727 123.200 C 68.453 123.200,68.474 123.407,68.785 123.782 M268.600 143.600 C 268.464 143.820,267.204 144.000,265.800 144.000 C 264.396 144.000,263.136 144.180,263.000 144.400 C 262.864 144.620,261.874 144.800,260.800 144.800 C 259.726 144.800,258.741 144.972,258.611 145.182 C 258.482 145.391,257.297 145.685,255.979 145.834 C 254.661 145.983,253.486 146.262,253.367 146.453 C 253.249 146.644,252.724 146.800,252.200 146.800 C 251.676 146.800,251.136 146.980,251.000 147.200 C 250.864 147.420,250.422 147.600,250.017 147.600 C 249.612 147.600,248.255 148.140,247.000 148.800 C 245.745 149.460,244.465 150.000,244.154 150.000 C 243.482 150.000,242.148 150.730,241.045 151.700 C 240.607 152.085,240.096 152.400,239.908 152.400 C 239.720 152.400,239.180 152.760,238.708 153.200 C 238.236 153.640,237.613 154.000,237.325 154.000 C 237.036 154.000,236.800 154.180,236.800 154.400 C 236.800 154.620,236.536 154.800,236.213 154.800 C 235.547 154.800,232.800 157.195,232.800 157.776 C 232.800 157.985,233.385 157.597,234.100 156.913 C 234.815 156.229,236.166 155.275,237.102 154.793 C 238.038 154.311,238.911 153.745,239.041 153.534 C 239.171 153.323,239.665 152.979,240.139 152.769 C 240.612 152.560,241.540 152.044,242.200 151.623 C 242.860 151.203,243.636 150.845,243.925 150.829 C 244.214 150.813,245.564 150.276,246.925 149.635 C 248.286 148.995,250.120 148.253,251.000 147.986 C 251.880 147.720,252.913 147.344,253.295 147.151 C 253.677 146.958,254.431 146.800,254.971 146.800 C 255.511 146.800,256.064 146.620,256.200 146.400 C 256.336 146.180,256.876 146.000,257.400 146.000 C 257.924 146.000,258.464 145.820,258.600 145.600 C 258.736 145.380,259.816 145.200,261.000 145.200 C 262.184 145.200,263.264 145.020,263.400 144.800 C 263.536 144.580,264.796 144.400,266.200 144.400 C 267.604 144.400,268.864 144.220,269.000 144.000 C 269.156 143.748,273.730 143.600,281.400 143.600 C 289.070 143.600,293.644 143.748,293.800 144.000 C 293.936 144.220,295.106 144.400,296.400 144.400 C 297.694 144.400,298.864 144.580,299.000 144.800 C 299.136 145.020,300.036 145.200,301.000 145.200 C 301.964 145.200,302.864 145.380,303.000 145.600 C 303.136 145.820,303.856 146.000,304.600 146.000 C 305.344 146.000,306.064 146.180,306.200 146.400 C 306.336 146.620,306.876 146.800,307.400 146.800 C 307.924 146.800,308.464 146.980,308.600 147.200 C 308.736 147.420,309.199 147.600,309.629 147.600 C 310.059 147.600,310.723 147.759,311.105 147.954 C 311.487 148.149,312.790 148.716,314.000 149.213 C 318.267 150.968,323.189 153.504,324.329 154.536 C 324.733 154.901,325.252 155.200,325.483 155.200 C 325.713 155.200,326.146 155.494,326.445 155.854 C 326.744 156.214,327.696 156.956,328.561 157.501 C 330.431 158.682,339.597 167.981,339.599 168.700 C 339.599 168.975,339.738 169.200,339.906 169.200 C 340.631 169.200,344.797 176.146,347.354 181.618 C 348.429 183.918,349.464 186.113,349.654 186.495 C 349.844 186.877,350.000 187.541,350.000 187.971 C 350.000 188.401,350.180 188.864,350.400 189.000 C 350.620 189.136,350.800 189.515,350.800 189.843 C 350.800 190.171,351.160 191.184,351.600 192.094 C 352.040 193.005,352.400 194.246,352.400 194.852 C 352.400 195.457,352.580 196.064,352.800 196.200 C 353.020 196.336,353.200 197.056,353.200 197.800 C 353.200 198.544,353.360 199.252,353.556 199.373 C 353.899 199.585,354.178 200.811,354.656 204.200 C 354.780 205.080,355.044 205.971,355.241 206.180 C 355.438 206.389,355.600 207.323,355.600 208.256 C 355.600 209.189,355.780 210.064,356.000 210.200 C 356.220 210.336,356.400 211.751,356.400 213.344 C 356.400 214.937,356.568 216.411,356.773 216.620 C 357.205 217.060,357.544 221.793,357.833 231.399 C 357.946 235.139,358.210 238.370,358.419 238.579 C 359.291 239.451,358.893 346.356,358.010 348.774 C 356.894 351.827,355.063 353.792,351.825 355.412 L 349.850 356.400 324.025 356.371 C 299.308 356.343,298.148 356.309,297.000 355.577 C 296.340 355.156,295.440 354.647,295.000 354.446 C 293.174 353.612,290.800 350.215,290.800 348.438 C 290.800 347.783,290.620 347.136,290.400 347.000 C 290.136 346.837,290.000 327.804,290.000 291.200 C 290.000 254.596,289.864 235.563,289.600 235.400 C 289.380 235.264,289.200 234.004,289.200 232.600 C 289.200 231.196,289.020 229.936,288.800 229.800 C 288.580 229.664,288.400 228.944,288.400 228.200 C 288.400 227.456,288.220 226.736,288.000 226.600 C 287.780 226.464,287.600 225.744,287.600 225.000 C 287.600 224.256,287.420 223.536,287.200 223.400 C 286.980 223.264,286.800 222.888,286.800 222.565 C 286.800 221.547,283.954 215.916,281.966 213.000 C 280.235 210.461,277.200 207.080,277.200 207.691 C 277.200 207.827,277.920 208.644,278.800 209.507 C 279.680 210.369,280.400 211.255,280.400 211.476 C 280.400 211.696,280.760 212.202,281.200 212.600 C 281.640 212.998,282.000 213.538,282.000 213.800 C 282.000 214.062,282.360 214.602,282.800 215.000 C 283.240 215.398,283.600 216.038,283.600 216.421 C 283.600 216.805,284.140 218.145,284.800 219.400 C 285.460 220.655,286.000 222.012,286.000 222.417 C 286.000 222.822,286.180 223.264,286.400 223.400 C 286.620 223.536,286.800 224.256,286.800 225.000 C 286.800 225.744,286.980 226.464,287.200 226.600 C 287.420 226.736,287.600 227.456,287.600 228.200 C 287.600 228.944,287.780 229.664,288.000 229.800 C 288.220 229.936,288.400 231.207,288.400 232.624 C 288.400 234.075,288.575 235.200,288.800 235.200 C 289.065 235.200,289.200 254.059,289.200 290.976 C 289.200 327.729,289.336 346.837,289.600 347.000 C 289.820 347.136,290.000 347.867,290.000 348.624 C 290.000 349.381,290.150 350.000,290.332 350.000 C 290.515 350.000,290.911 350.495,291.213 351.100 C 291.881 352.442,294.009 354.800,294.553 354.800 C 294.770 354.800,295.379 355.205,295.906 355.700 L 296.864 356.600 323.636 356.708 C 354.135 356.832,352.130 357.044,355.601 353.328 C 357.668 351.116,358.400 349.939,358.400 348.829 C 358.400 348.399,358.580 347.936,358.800 347.800 C 359.064 347.637,359.200 328.937,359.200 293.000 C 359.200 257.063,359.064 238.363,358.800 238.200 C 358.559 238.051,358.400 235.270,358.400 231.200 C 358.400 227.130,358.241 224.349,358.000 224.200 C 357.779 224.064,357.600 222.270,357.600 220.200 C 357.600 218.136,357.447 216.353,357.261 216.238 C 357.075 216.122,356.799 214.000,356.648 211.521 C 356.498 209.043,356.200 206.840,355.987 206.627 C 355.774 206.414,355.600 205.477,355.600 204.544 C 355.600 203.611,355.420 202.736,355.200 202.600 C 354.980 202.464,354.800 201.744,354.800 201.000 C 354.800 200.256,354.620 199.536,354.400 199.400 C 354.180 199.264,354.000 198.544,354.000 197.800 C 354.000 197.056,353.820 196.336,353.600 196.200 C 353.380 196.064,353.200 195.333,353.200 194.576 C 353.200 193.819,353.020 193.200,352.800 193.200 C 352.580 193.200,352.400 192.840,352.400 192.400 C 352.400 191.960,352.220 191.600,352.000 191.600 C 351.780 191.600,351.600 191.060,351.600 190.400 C 351.600 189.740,351.420 189.200,351.200 189.200 C 350.980 189.200,350.800 188.761,350.800 188.224 C 350.800 187.687,350.620 187.136,350.400 187.000 C 350.180 186.864,350.000 186.442,350.000 186.062 C 350.000 185.291,346.002 177.131,345.106 176.075 C 344.792 175.704,344.237 174.750,343.874 173.955 C 343.512 173.160,342.941 172.283,342.607 172.006 C 342.273 171.729,342.000 171.324,342.000 171.106 C 342.000 170.141,329.897 157.200,328.994 157.200 C 328.750 157.200,328.032 156.660,327.400 156.000 C 326.768 155.340,326.042 154.800,325.787 154.800 C 325.532 154.800,324.998 154.440,324.600 154.000 C 324.202 153.560,323.656 153.200,323.387 153.200 C 323.118 153.200,322.681 152.938,322.415 152.618 C 321.869 151.960,316.453 149.200,315.709 149.200 C 315.442 149.200,314.583 148.840,313.800 148.400 C 313.017 147.960,312.032 147.600,311.611 147.600 C 311.191 147.600,310.736 147.420,310.600 147.200 C 310.464 146.980,309.913 146.800,309.376 146.800 C 308.839 146.800,308.400 146.629,308.400 146.420 C 308.400 146.211,307.316 145.917,305.991 145.767 C 304.666 145.617,303.486 145.338,303.367 145.147 C 303.249 144.956,302.364 144.800,301.400 144.800 C 300.436 144.800,299.536 144.620,299.400 144.400 C 299.264 144.180,298.004 144.000,296.600 144.000 C 295.196 144.000,293.936 143.820,293.800 143.600 C 293.644 143.347,289.004 143.200,281.200 143.200 C 273.396 143.200,268.756 143.347,268.600 143.600 M64.449 146.602 C 63.035 147.379,58.453 152.026,57.783 153.361 C 57.064 154.793,56.883 348.157,57.600 348.600 C 57.820 348.736,58.000 349.247,58.000 349.735 C 58.000 350.851,62.407 355.208,64.490 356.152 C 65.848 356.768,68.253 356.818,91.558 356.714 L 117.136 356.600 118.094 355.700 C 118.621 355.205,119.228 354.800,119.445 354.800 C 119.974 354.800,122.800 351.879,122.800 351.332 C 122.800 351.093,123.070 350.674,123.400 350.400 C 123.730 350.126,124.000 349.485,124.000 348.975 C 124.000 348.465,124.180 347.936,124.400 347.800 C 124.954 347.457,124.954 155.743,124.400 155.400 C 124.180 155.264,124.000 154.831,124.000 154.438 C 124.000 152.405,120.656 148.628,117.393 146.976 L 115.464 146.000 90.432 146.039 C 70.622 146.070,65.202 146.188,64.449 146.602 M160.400 146.400 C 160.400 146.620,160.083 146.800,159.696 146.800 C 159.309 146.800,158.768 147.160,158.493 147.600 C 158.218 148.040,157.733 148.400,157.415 148.400 C 156.709 148.400,154.800 150.247,154.800 150.930 C 154.800 151.201,154.440 151.683,154.000 152.000 C 153.560 152.317,153.200 152.897,153.200 153.288 C 153.200 153.680,153.020 154.000,152.800 154.000 C 152.534 154.000,152.400 186.667,152.400 251.200 C 152.400 315.733,152.534 348.400,152.800 348.400 C 153.020 348.400,153.200 348.760,153.200 349.200 C 153.200 349.640,153.380 350.000,153.600 350.000 C 153.820 350.000,154.000 350.278,154.000 350.618 C 154.000 351.241,155.712 353.200,156.257 353.200 C 156.418 353.200,156.103 352.705,155.557 352.100 C 152.996 349.261,153.197 357.978,153.229 251.086 C 153.258 156.397,153.276 154.173,154.023 153.000 C 154.444 152.340,154.964 151.402,155.179 150.915 C 155.533 150.111,157.473 148.645,159.946 147.310 C 160.684 146.912,166.528 146.800,186.650 146.800 L 212.408 146.800 214.504 148.269 C 219.171 151.540,219.600 152.794,219.600 163.187 C 219.600 168.529,219.746 171.600,220.000 171.600 C 220.220 171.600,220.400 171.427,220.400 171.215 C 220.400 170.606,223.437 167.073,228.020 162.349 C 230.341 159.957,232.080 158.000,231.884 158.000 C 231.427 158.000,223.600 165.842,223.600 166.300 C 223.600 166.703,221.007 169.600,220.646 169.600 C 220.511 169.600,220.400 166.301,220.400 162.268 C 220.400 155.287,220.353 154.843,219.424 153.007 C 218.404 150.993,215.364 147.600,214.579 147.600 C 214.329 147.600,213.798 147.240,213.400 146.800 C 212.579 145.892,160.400 145.499,160.400 146.400 M117.069 147.500 C 120.101 148.863,122.508 151.413,123.610 154.426 C 124.389 156.557,124.400 157.962,124.394 251.594 C 124.388 350.162,124.413 348.547,122.867 350.093 C 122.610 350.350,122.400 350.741,122.400 350.963 C 122.400 351.514,119.544 354.400,118.999 354.400 C 118.757 354.400,118.350 354.610,118.093 354.867 C 116.660 356.300,115.072 356.388,90.575 356.394 L 66.550 356.400 64.503 355.413 C 62.114 354.260,58.711 350.880,58.347 349.299 C 57.935 347.507,57.956 154.569,58.368 153.484 C 58.819 152.298,62.812 148.249,64.308 147.460 C 66.139 146.495,114.917 146.532,117.069 147.500 M251.400 201.200 C 251.264 201.420,250.398 201.603,249.476 201.606 C 247.872 201.612,245.119 202.348,244.541 202.926 C 244.390 203.077,243.942 203.200,243.545 203.200 C 243.149 203.200,242.144 203.584,241.312 204.054 C 240.480 204.524,239.153 205.247,238.362 205.662 C 236.831 206.465,234.786 208.400,235.468 208.400 C 235.693 208.400,236.202 208.039,236.601 207.598 C 237.000 207.157,238.333 206.309,239.563 205.713 C 240.794 205.117,241.860 204.488,241.933 204.315 C 242.007 204.142,242.592 204.000,243.233 204.000 C 243.875 204.000,244.400 203.820,244.400 203.600 C 244.400 203.380,244.839 203.200,245.376 203.200 C 245.913 203.200,246.464 203.020,246.600 202.800 C 246.736 202.580,247.816 202.400,249.000 202.400 C 250.184 202.400,251.264 202.220,251.400 202.000 C 251.539 201.775,253.463 201.600,255.800 201.600 C 258.137 201.600,260.061 201.775,260.200 202.000 C 260.336 202.220,261.596 202.400,263.000 202.400 C 264.404 202.400,265.664 202.580,265.800 202.800 C 265.936 203.020,266.558 203.200,267.183 203.200 C 267.808 203.200,269.345 203.740,270.600 204.400 C 271.855 205.060,273.141 205.600,273.458 205.600 C 273.775 205.600,274.520 206.050,275.113 206.600 C 275.707 207.150,276.335 207.600,276.510 207.600 C 277.345 207.600,273.888 205.166,271.400 204.002 C 268.152 202.482,266.328 201.987,263.000 201.723 C 261.680 201.618,260.429 201.368,260.220 201.166 C 259.702 200.667,251.711 200.697,251.400 201.200 M232.900 209.816 C 232.185 210.565,231.600 211.308,231.600 211.467 C 231.600 211.626,231.127 212.250,230.550 212.853 C 229.405 214.047,228.891 214.863,227.556 217.600 C 224.434 224.002,223.593 225.868,223.591 226.400 C 223.587 227.136,222.650 229.883,222.274 230.259 C 222.123 230.410,222.000 231.123,222.000 231.843 C 222.000 232.563,221.820 233.264,221.600 233.400 C 221.380 233.536,221.200 234.436,221.200 235.400 C 221.200 236.364,221.020 237.264,220.800 237.400 C 220.580 237.536,220.400 238.796,220.400 240.200 C 220.400 241.604,220.220 242.864,220.000 243.000 C 219.737 243.163,219.600 261.211,219.600 295.843 C 219.600 351.041,219.632 349.899,218.044 351.200 C 217.910 351.310,217.602 351.758,217.360 352.195 C 216.856 353.104,213.649 355.534,212.900 355.573 C 212.625 355.588,212.400 355.780,212.400 356.000 C 212.400 356.524,161.343 356.554,161.019 356.031 C 160.894 355.828,160.272 355.547,159.637 355.408 C 159.002 355.269,158.166 354.805,157.779 354.377 C 157.393 353.950,156.910 353.600,156.707 353.600 C 156.505 353.600,156.873 354.050,157.527 354.600 C 158.181 355.150,158.900 355.600,159.124 355.600 C 159.349 355.600,159.608 355.825,159.700 356.100 C 159.831 356.493,165.549 356.600,186.501 356.600 L 213.135 356.600 214.093 355.700 C 214.620 355.205,215.210 354.800,215.404 354.800 C 215.939 354.800,218.000 352.716,218.000 352.174 C 218.000 351.912,218.266 351.477,218.592 351.207 C 220.469 349.649,220.400 351.786,220.400 295.539 C 220.400 260.646,220.535 242.800,220.800 242.800 C 221.025 242.800,221.200 241.675,221.200 240.224 C 221.200 238.807,221.380 237.536,221.600 237.400 C 221.820 237.264,222.000 236.364,222.000 235.400 C 222.000 234.436,222.156 233.551,222.347 233.433 C 222.538 233.314,222.817 232.139,222.966 230.821 C 223.115 229.503,223.409 228.318,223.618 228.189 C 223.828 228.059,224.000 227.440,224.000 226.814 C 224.000 225.711,225.493 222.337,226.100 222.067 C 226.265 221.993,226.400 221.588,226.400 221.167 C 226.400 220.745,226.580 220.400,226.800 220.400 C 227.020 220.400,227.200 220.068,227.200 219.661 C 227.200 218.729,228.231 216.639,229.008 215.993 C 229.334 215.723,229.601 215.299,229.602 215.051 C 229.603 214.803,230.143 214.025,230.802 213.322 C 231.461 212.619,232.000 211.906,232.000 211.739 C 232.000 211.571,232.667 210.751,233.481 209.917 C 234.296 209.083,234.791 208.412,234.581 208.427 C 234.372 208.443,233.615 209.067,232.900 209.816 " stroke="none" fill="#d4ecf4" fill-rule="evenodd"></path><path id="path2" d="M26.900 0.289 C 26.185 0.378,25.600 0.619,25.600 0.825 C 25.600 1.031,25.330 1.200,25.000 1.200 C 24.670 1.200,24.400 1.374,24.400 1.586 C 24.400 1.798,23.995 2.168,23.500 2.408 C 22.671 2.810,22.657 2.798,23.324 2.260 C 23.783 1.890,23.893 1.581,23.624 1.415 C 23.391 1.271,23.200 1.343,23.200 1.576 C 23.200 1.809,22.640 2.000,21.957 2.000 C 20.802 2.000,20.732 2.078,20.983 3.100 C 21.231 4.110,21.207 4.139,20.697 3.452 C 20.146 2.712,18.400 3.201,18.400 4.096 C 18.400 4.263,18.029 4.400,17.576 4.400 C 17.123 4.400,16.864 4.580,17.000 4.800 C 17.136 5.020,16.922 5.206,16.524 5.213 C 15.356 5.233,14.404 6.185,14.590 7.147 C 14.685 7.643,14.591 7.918,14.373 7.783 C 14.160 7.652,14.091 7.377,14.217 7.172 C 14.344 6.968,14.257 6.800,14.024 6.800 C 13.791 6.800,13.600 6.980,13.600 7.200 C 13.600 7.420,13.330 7.600,13.000 7.600 C 12.670 7.600,12.400 7.763,12.400 7.963 C 12.400 8.162,12.805 8.225,13.300 8.103 C 13.795 7.982,14.086 8.008,13.946 8.161 C 13.807 8.315,13.177 8.501,12.546 8.575 C 11.916 8.648,11.235 8.729,11.033 8.754 C 10.832 8.779,10.768 8.902,10.893 9.026 C 11.188 9.321,9.491 11.097,9.100 10.902 C 8.935 10.820,8.779 10.898,8.754 11.076 C 8.729 11.254,8.648 11.916,8.575 12.546 C 8.501 13.177,8.315 13.807,8.161 13.946 C 8.008 14.086,7.982 13.795,8.103 13.300 C 8.225 12.805,8.162 12.400,7.963 12.400 C 7.763 12.400,7.600 12.670,7.600 13.000 C 7.600 13.330,7.420 13.600,7.200 13.600 C 6.980 13.600,6.800 13.791,6.800 14.024 C 6.800 14.257,6.968 14.344,7.172 14.217 C 7.377 14.091,7.652 14.160,7.783 14.373 C 7.918 14.591,7.643 14.685,7.147 14.590 C 6.185 14.404,5.233 15.356,5.213 16.524 C 5.206 16.922,5.020 17.136,4.800 17.000 C 4.580 16.864,4.400 17.123,4.400 17.576 C 4.400 18.029,4.263 18.400,4.096 18.400 C 3.201 18.400,2.712 20.146,3.452 20.697 C 4.139 21.207,4.110 21.231,3.100 20.983 C 2.078 20.732,2.000 20.802,2.000 21.957 C 2.000 22.640,1.809 23.200,1.576 23.200 C 1.343 23.200,1.271 23.391,1.415 23.624 C 1.581 23.893,1.890 23.783,2.260 23.324 C 2.798 22.657,2.810 22.671,2.408 23.500 C 2.168 23.995,1.798 24.400,1.586 24.400 C 1.374 24.400,1.200 24.655,1.200 24.967 C 1.200 25.278,1.047 25.593,0.861 25.667 C 0.307 25.884,-0.084 29.200,0.444 29.200 C 0.779 29.200,0.781 29.341,0.452 29.738 C -0.146 30.458,-0.199 366.630,0.399 366.999 C 0.619 367.136,0.797 367.462,0.794 367.724 C 0.790 368.012,0.630 367.963,0.389 367.600 C 0.093 367.155,0.012 367.388,0.077 368.500 C 0.124 369.325,0.313 370.000,0.496 370.000 C 0.679 370.000,0.663 370.315,0.462 370.700 C 0.052 371.484,0.324 374.079,0.853 374.422 C 1.042 374.545,1.236 375.130,1.285 375.722 C 1.334 376.315,1.515 376.800,1.687 376.800 C 1.859 376.800,2.000 377.228,2.000 377.751 C 2.000 378.274,2.268 378.924,2.596 379.196 C 2.923 379.468,3.119 379.807,3.031 379.950 C 2.745 380.413,3.934 381.688,4.389 381.407 C 4.689 381.222,4.752 381.450,4.586 382.112 C 4.415 382.795,4.529 383.164,4.964 383.331 C 5.357 383.481,5.490 383.821,5.325 384.250 C 5.148 384.711,5.215 384.838,5.532 384.642 C 5.816 384.466,6.000 384.608,6.000 385.003 C 6.000 385.441,6.229 385.581,6.700 385.432 C 7.227 385.265,7.414 385.449,7.456 386.175 C 7.515 387.204,7.575 387.294,9.910 389.892 C 11.212 391.339,11.616 391.560,12.716 391.421 C 13.422 391.331,14.000 391.437,14.000 391.656 C 14.000 391.875,13.640 391.940,13.200 391.800 C 12.741 391.654,12.400 391.728,12.400 391.973 C 12.400 392.208,12.655 392.400,12.967 392.400 C 13.278 392.400,13.625 392.625,13.736 392.900 C 13.889 393.278,14.054 393.253,14.407 392.800 C 14.806 392.290,14.840 392.309,14.639 392.930 C 14.372 393.753,15.376 394.985,16.000 394.600 C 16.223 394.462,16.514 394.631,16.646 394.975 C 16.778 395.319,17.226 395.600,17.643 395.600 C 18.059 395.600,18.400 395.799,18.400 396.043 C 18.400 396.286,18.679 396.378,19.021 396.247 C 19.362 396.116,19.539 396.175,19.414 396.377 C 19.289 396.579,19.390 396.870,19.638 397.024 C 19.886 397.177,20.224 397.084,20.389 396.817 C 20.594 396.486,20.758 396.596,20.907 397.166 C 21.057 397.741,21.447 398.000,22.163 398.000 C 22.733 398.000,23.200 398.164,23.200 398.365 C 23.200 398.565,23.655 398.680,24.210 398.619 C 24.766 398.558,25.354 398.747,25.518 399.039 C 25.918 399.754,31.344 400.165,32.464 399.566 C 33.066 399.243,33.221 399.242,33.024 399.562 C 32.824 399.884,78.439 400.002,201.375 399.998 C 316.367 399.994,370.000 399.862,370.000 399.582 C 370.000 399.314,370.245 399.303,370.704 399.549 C 371.569 400.012,373.579 399.687,374.432 398.947 C 374.780 398.645,375.185 398.519,375.332 398.666 C 375.480 398.813,375.600 398.701,375.600 398.418 C 375.600 398.005,375.719 398.001,376.200 398.400 C 376.615 398.744,376.800 398.759,376.800 398.449 C 376.800 398.202,377.256 398.000,377.813 398.000 C 378.369 398.000,378.924 397.741,379.046 397.425 C 379.167 397.109,379.483 396.934,379.747 397.035 C 380.012 397.137,380.668 396.810,381.206 396.310 C 381.744 395.809,382.352 395.455,382.556 395.521 C 382.760 395.588,383.072 395.408,383.249 395.121 C 383.426 394.835,383.712 394.584,383.885 394.565 C 384.930 394.451,385.602 393.837,385.396 393.186 C 385.270 392.791,385.353 392.353,385.579 392.213 C 385.824 392.062,385.894 392.210,385.753 392.579 C 385.376 393.560,386.166 393.301,386.605 392.300 C 386.859 391.720,387.288 391.439,387.809 391.510 C 388.867 391.653,391.708 388.787,391.530 387.756 C 391.448 387.285,391.734 386.859,392.300 386.609 C 393.302 386.165,393.559 385.377,392.579 385.753 C 392.210 385.894,392.062 385.824,392.213 385.579 C 392.353 385.353,392.791 385.270,393.186 385.396 C 393.837 385.602,394.451 384.930,394.565 383.885 C 394.584 383.712,394.835 383.426,395.121 383.249 C 395.408 383.072,395.588 382.760,395.521 382.556 C 395.455 382.352,395.809 381.744,396.310 381.206 C 396.810 380.668,397.137 380.012,397.035 379.747 C 396.934 379.483,397.109 379.167,397.425 379.046 C 397.741 378.924,398.000 378.369,398.000 377.813 C 398.000 377.256,398.202 376.800,398.449 376.800 C 398.759 376.800,398.744 376.615,398.400 376.200 C 398.001 375.719,398.005 375.600,398.418 375.600 C 398.701 375.600,398.813 375.480,398.666 375.332 C 398.519 375.185,398.645 374.780,398.947 374.432 C 399.687 373.579,400.012 371.569,399.549 370.704 C 399.303 370.245,399.314 370.000,399.582 370.000 C 399.862 370.000,399.994 316.367,399.998 201.375 C 400.002 78.439,399.884 32.824,399.562 33.024 C 399.242 33.221,399.243 33.066,399.566 32.464 C 400.165 31.344,399.754 25.918,399.039 25.518 C 398.747 25.354,398.558 24.766,398.619 24.210 C 398.680 23.655,398.565 23.200,398.365 23.200 C 398.164 23.200,398.000 22.733,398.000 22.163 C 398.000 21.447,397.741 21.057,397.166 20.907 C 396.596 20.758,396.486 20.594,396.817 20.389 C 397.084 20.224,397.177 19.886,397.024 19.638 C 396.870 19.390,396.579 19.289,396.377 19.414 C 396.175 19.539,396.116 19.362,396.247 19.021 C 396.378 18.679,396.286 18.400,396.043 18.400 C 395.799 18.400,395.600 18.059,395.600 17.643 C 395.600 17.226,395.319 16.778,394.975 16.646 C 394.631 16.514,394.462 16.223,394.600 16.000 C 394.985 15.376,393.753 14.372,392.930 14.639 C 392.309 14.840,392.290 14.806,392.800 14.407 C 393.253 14.054,393.278 13.889,392.900 13.736 C 392.625 13.625,392.400 13.278,392.400 12.967 C 392.400 12.655,392.208 12.400,391.973 12.400 C 391.728 12.400,391.654 12.741,391.800 13.200 C 391.940 13.640,391.875 14.000,391.656 14.000 C 391.437 14.000,391.331 13.422,391.421 12.716 C 391.560 11.616,391.339 11.212,389.892 9.910 C 387.294 7.575,387.204 7.515,386.175 7.456 C 385.449 7.414,385.265 7.227,385.432 6.700 C 385.581 6.229,385.441 6.000,385.003 6.000 C 384.608 6.000,384.466 5.816,384.642 5.532 C 384.838 5.215,384.711 5.148,384.250 5.325 C 383.821 5.490,383.481 5.357,383.331 4.964 C 383.164 4.529,382.795 4.415,382.112 4.586 C 381.450 4.752,381.222 4.689,381.407 4.389 C 381.688 3.934,380.413 2.745,379.950 3.031 C 379.807 3.119,379.468 2.923,379.196 2.596 C 378.924 2.268,378.274 2.000,377.751 2.000 C 377.228 2.000,376.800 1.859,376.800 1.687 C 376.800 1.515,376.315 1.334,375.722 1.285 C 375.130 1.236,374.545 1.042,374.422 0.853 C 374.079 0.324,371.484 0.052,370.700 0.462 C 370.315 0.663,370.000 0.679,370.000 0.496 C 370.000 0.313,369.325 0.124,368.500 0.077 C 367.388 0.012,367.155 0.093,367.600 0.389 C 367.963 0.630,368.012 0.790,367.724 0.794 C 367.462 0.797,367.136 0.619,366.999 0.399 C 366.630 -0.199,30.458 -0.146,29.738 0.452 C 29.342 0.780,29.200 0.780,29.200 0.449 C 29.200 0.202,28.975 0.029,28.700 0.064 C 28.425 0.099,27.615 0.201,26.900 0.289 M96.400 43.141 C 96.400 43.328,97.973 43.592,99.896 43.728 C 101.818 43.864,103.453 44.160,103.529 44.387 C 103.605 44.614,104.091 44.800,104.610 44.800 C 105.128 44.800,105.664 44.980,105.800 45.200 C 105.936 45.420,106.361 45.600,106.744 45.600 C 107.619 45.600,109.593 46.499,109.597 46.900 C 109.599 47.065,109.920 47.200,110.312 47.200 C 110.703 47.200,111.283 47.560,111.600 48.000 C 111.917 48.440,112.497 48.800,112.888 48.800 C 113.280 48.800,113.600 48.980,113.600 49.200 C 113.600 49.420,113.888 49.600,114.240 49.600 C 114.591 49.600,115.383 50.140,116.000 50.800 C 116.617 51.460,117.326 52.000,117.576 52.000 C 118.148 52.000,125.200 59.080,125.200 59.655 C 125.200 59.888,125.740 60.583,126.400 61.200 C 127.060 61.817,127.600 62.569,127.600 62.872 C 127.600 63.175,127.960 63.683,128.400 64.000 C 128.840 64.317,129.200 64.897,129.200 65.288 C 129.200 65.680,129.380 66.000,129.600 66.000 C 129.820 66.000,130.000 66.360,130.000 66.800 C 130.000 67.240,130.180 67.600,130.400 67.600 C 130.620 67.600,130.800 67.960,130.800 68.400 C 130.800 68.840,130.980 69.200,131.200 69.200 C 131.420 69.200,131.600 69.560,131.600 70.000 C 131.600 70.440,131.780 70.800,132.000 70.800 C 132.220 70.800,132.400 71.340,132.400 72.000 C 132.400 72.660,132.580 73.200,132.800 73.200 C 133.020 73.200,133.200 73.920,133.200 74.800 C 133.200 75.680,133.380 76.400,133.600 76.400 C 133.820 76.400,134.000 77.030,134.000 77.800 C 134.000 78.570,134.180 79.200,134.400 79.200 C 134.651 79.200,134.800 81.800,134.800 86.200 C 134.800 90.600,134.651 93.200,134.400 93.200 C 134.180 93.200,134.000 94.100,134.000 95.200 C 134.000 96.300,133.820 97.200,133.600 97.200 C 133.380 97.200,133.200 97.920,133.200 98.800 C 133.200 99.680,133.020 100.400,132.800 100.400 C 132.580 100.400,132.400 100.760,132.400 101.200 C 132.400 101.640,132.220 102.000,132.000 102.000 C 131.780 102.000,131.600 102.540,131.600 103.200 C 131.600 103.860,131.420 104.400,131.200 104.400 C 130.980 104.400,130.800 104.760,130.800 105.200 C 130.800 105.640,130.620 106.000,130.400 106.000 C 130.180 106.000,130.000 106.320,130.000 106.712 C 130.000 107.103,129.640 107.683,129.200 108.000 C 128.760 108.317,128.400 108.807,128.400 109.088 C 128.400 109.370,128.220 109.600,128.000 109.600 C 127.780 109.600,127.600 109.888,127.600 110.240 C 127.600 110.591,127.060 111.383,126.400 112.000 C 125.740 112.617,125.200 113.402,125.200 113.745 C 125.200 114.458,118.268 121.600,117.576 121.600 C 117.326 121.600,116.617 122.140,116.000 122.800 C 115.383 123.460,114.591 124.000,114.240 124.000 C 113.888 124.000,113.600 124.180,113.600 124.400 C 113.600 124.620,113.253 124.800,112.829 124.800 C 112.404 124.800,111.787 125.070,111.457 125.400 C 111.127 125.730,110.574 126.000,110.229 126.000 C 109.883 126.000,109.600 126.180,109.600 126.400 C 109.600 126.620,109.150 126.800,108.600 126.800 C 108.050 126.800,107.600 126.980,107.600 127.200 C 107.600 127.420,107.240 127.600,106.800 127.600 C 106.360 127.600,106.000 127.780,106.000 128.000 C 106.000 128.220,105.460 128.400,104.800 128.400 C 104.140 128.400,103.600 128.580,103.600 128.800 C 103.600 129.020,102.880 129.200,102.000 129.200 C 101.120 129.200,100.400 129.380,100.400 129.600 C 100.400 129.820,99.500 130.000,98.400 130.000 C 97.300 130.000,96.400 130.180,96.400 130.400 C 96.400 130.647,94.333 130.800,91.000 130.800 C 87.667 130.800,85.600 130.647,85.600 130.400 C 85.600 130.178,84.533 130.000,83.200 130.000 C 81.867 130.000,80.800 129.822,80.800 129.600 C 80.800 129.380,80.080 129.200,79.200 129.200 C 78.320 129.200,77.600 129.020,77.600 128.800 C 77.600 128.580,77.330 128.400,77.000 128.400 C 76.670 128.400,76.400 128.220,76.400 128.000 C 76.400 127.780,75.860 127.600,75.200 127.600 C 74.540 127.600,74.000 127.420,74.000 127.200 C 74.000 126.980,73.640 126.800,73.200 126.800 C 72.760 126.800,72.400 126.620,72.400 126.400 C 72.400 126.180,72.040 126.000,71.600 126.000 C 71.160 126.000,70.800 125.820,70.800 125.600 C 70.800 125.380,70.453 125.200,70.029 125.200 C 69.604 125.200,68.987 124.930,68.657 124.600 C 68.327 124.270,67.814 124.000,67.517 124.000 C 67.220 124.000,66.717 123.640,66.400 123.200 C 66.083 122.760,65.548 122.389,65.212 122.376 C 64.875 122.363,63.610 121.278,62.400 119.965 C 61.190 118.653,59.075 116.417,57.700 114.997 C 56.325 113.577,55.200 112.181,55.200 111.896 C 55.200 111.610,54.840 111.117,54.400 110.800 C 53.960 110.483,53.600 109.915,53.600 109.539 C 53.600 109.162,53.240 108.740,52.800 108.600 C 52.360 108.460,52.000 107.998,52.000 107.573 C 52.000 107.148,51.820 106.800,51.600 106.800 C 51.380 106.800,51.200 106.440,51.200 106.000 C 51.200 105.560,51.020 105.200,50.800 105.200 C 50.580 105.200,50.400 104.840,50.400 104.400 C 50.400 103.960,50.220 103.600,50.000 103.600 C 49.780 103.600,49.600 103.060,49.600 102.400 C 49.600 101.740,49.420 101.200,49.200 101.200 C 48.980 101.200,48.800 100.660,48.800 100.000 C 48.800 99.340,48.620 98.800,48.400 98.800 C 48.180 98.800,48.000 98.080,48.000 97.200 C 48.000 96.320,47.820 95.600,47.600 95.600 C 47.380 95.600,47.200 94.621,47.200 93.424 C 47.200 92.227,47.020 91.136,46.800 91.000 C 46.268 90.671,46.268 82.400,46.800 82.400 C 47.020 82.400,47.200 81.421,47.200 80.224 C 47.200 79.027,47.380 77.936,47.600 77.800 C 47.820 77.664,48.000 76.933,48.000 76.176 C 48.000 75.419,48.180 74.800,48.400 74.800 C 48.620 74.800,48.800 74.260,48.800 73.600 C 48.800 72.940,48.980 72.400,49.200 72.400 C 49.420 72.400,49.600 71.860,49.600 71.200 C 49.600 70.540,49.780 70.000,50.000 70.000 C 50.220 70.000,50.400 69.640,50.400 69.200 C 50.400 68.760,50.580 68.400,50.800 68.400 C 51.020 68.400,51.200 68.040,51.200 67.600 C 51.200 67.160,51.380 66.800,51.600 66.800 C 51.820 66.800,52.000 66.480,52.000 66.088 C 52.000 65.697,52.360 65.117,52.800 64.800 C 53.240 64.483,53.600 63.943,53.600 63.600 C 53.600 63.257,53.960 62.717,54.400 62.400 C 54.840 62.083,55.200 61.503,55.200 61.112 C 55.200 60.720,55.376 60.400,55.591 60.400 C 55.979 60.400,58.156 58.236,62.400 53.634 C 63.610 52.322,64.843 51.237,65.140 51.224 C 65.436 51.211,66.183 50.660,66.800 50.000 C 67.417 49.340,68.209 48.800,68.560 48.800 C 68.912 48.800,69.200 48.620,69.200 48.400 C 69.200 48.180,69.560 48.000,70.000 48.000 C 70.440 48.000,70.800 47.820,70.800 47.600 C 70.800 47.380,71.160 47.200,71.600 47.200 C 72.040 47.200,72.400 47.020,72.400 46.800 C 72.400 46.580,72.760 46.400,73.200 46.400 C 73.640 46.400,74.000 46.220,74.000 46.000 C 74.000 45.780,74.360 45.600,74.800 45.600 C 75.240 45.600,75.600 45.420,75.600 45.200 C 75.600 44.980,76.014 44.800,76.520 44.800 C 77.026 44.800,77.612 44.628,77.823 44.417 C 78.033 44.207,79.689 43.911,81.503 43.760 C 83.316 43.609,84.800 43.331,84.800 43.142 C 84.800 42.954,87.410 42.800,90.600 42.800 C 93.790 42.800,96.400 42.953,96.400 43.141 M294.000 143.141 C 294.000 143.329,296.115 143.608,298.700 143.762 C 301.285 143.915,303.460 144.211,303.533 144.420 C 303.607 144.629,304.271 144.800,305.010 144.800 C 305.748 144.800,306.464 144.980,306.600 145.200 C 306.736 145.420,307.287 145.600,307.824 145.600 C 308.361 145.600,308.800 145.780,308.800 146.000 C 308.800 146.220,309.340 146.400,310.000 146.400 C 310.660 146.400,311.200 146.580,311.200 146.800 C 311.200 147.020,311.740 147.200,312.400 147.200 C 313.060 147.200,313.600 147.380,313.600 147.600 C 313.600 147.820,313.960 148.000,314.400 148.000 C 314.840 148.000,315.200 148.180,315.200 148.400 C 315.200 148.620,315.740 148.800,316.400 148.800 C 317.060 148.800,317.600 148.980,317.600 149.200 C 317.600 149.420,317.960 149.600,318.400 149.600 C 318.840 149.600,319.200 149.780,319.200 150.000 C 319.200 150.220,319.560 150.400,320.000 150.400 C 320.440 150.400,320.800 150.580,320.800 150.800 C 320.800 151.020,321.120 151.200,321.512 151.200 C 321.903 151.200,322.483 151.560,322.800 152.000 C 323.117 152.440,323.685 152.800,324.061 152.800 C 324.438 152.800,324.860 153.160,325.000 153.600 C 325.140 154.040,325.530 154.400,325.866 154.400 C 326.203 154.400,326.983 154.940,327.600 155.600 C 328.217 156.260,328.923 156.800,329.170 156.800 C 329.417 156.800,330.379 157.521,331.309 158.401 C 337.111 163.896,340.400 167.225,340.400 167.602 C 340.400 168.008,340.707 168.455,341.900 169.785 C 342.175 170.092,342.400 170.586,342.400 170.883 C 342.400 171.180,342.760 171.683,343.200 172.000 C 343.640 172.317,344.000 172.897,344.000 173.288 C 344.000 173.680,344.180 174.000,344.400 174.000 C 344.620 174.000,344.800 174.320,344.800 174.712 C 344.800 175.103,345.160 175.683,345.600 176.000 C 346.040 176.317,346.400 176.807,346.400 177.088 C 346.400 177.370,346.580 177.600,346.800 177.600 C 347.020 177.600,347.200 177.960,347.200 178.400 C 347.200 178.840,347.380 179.200,347.600 179.200 C 347.820 179.200,348.000 179.560,348.000 180.000 C 348.000 180.440,348.180 180.800,348.400 180.800 C 348.620 180.800,348.800 181.160,348.800 181.600 C 348.800 182.040,348.980 182.400,349.200 182.400 C 349.420 182.400,349.600 182.760,349.600 183.200 C 349.600 183.640,349.780 184.000,350.000 184.000 C 350.220 184.000,350.400 184.540,350.400 185.200 C 350.400 185.860,350.580 186.400,350.800 186.400 C 351.020 186.400,351.200 186.940,351.200 187.600 C 351.200 188.260,351.380 188.800,351.600 188.800 C 351.820 188.800,352.000 189.340,352.000 190.000 C 352.000 190.660,352.180 191.200,352.400 191.200 C 352.620 191.200,352.800 191.560,352.800 192.000 C 352.800 192.440,352.980 192.800,353.200 192.800 C 353.420 192.800,353.600 193.419,353.600 194.176 C 353.600 194.933,353.780 195.664,354.000 195.800 C 354.220 195.936,354.400 196.667,354.400 197.424 C 354.400 198.181,354.580 198.800,354.800 198.800 C 355.020 198.800,355.200 199.520,355.200 200.400 C 355.200 201.280,355.380 202.000,355.600 202.000 C 355.820 202.000,356.000 202.900,356.000 204.000 C 356.000 205.100,356.180 206.000,356.400 206.000 C 356.620 206.000,356.800 206.900,356.800 208.000 C 356.800 209.100,356.980 210.000,357.200 210.000 C 357.431 210.000,357.600 211.256,357.600 212.967 C 357.600 214.598,357.777 215.993,357.993 216.067 C 358.228 216.146,358.494 220.575,358.657 227.100 C 358.806 233.095,359.079 238.000,359.264 238.000 C 359.449 238.000,359.600 262.750,359.600 293.000 C 359.600 323.632,359.447 348.000,359.254 348.000 C 359.064 348.000,358.798 348.811,358.662 349.801 C 358.400 351.711,354.765 356.000,353.409 356.000 C 353.074 356.000,352.800 356.180,352.800 356.400 C 352.800 356.620,352.440 356.800,352.000 356.800 C 351.560 356.800,351.200 356.980,351.200 357.200 C 351.200 358.157,298.261 357.699,296.438 356.726 C 295.537 356.245,294.800 355.705,294.800 355.526 C 294.800 355.347,294.614 355.200,294.387 355.200 C 293.788 355.200,291.200 352.521,291.200 351.902 C 291.200 351.613,290.840 351.117,290.400 350.800 C 289.843 350.398,289.600 349.765,289.600 348.712 C 289.600 347.880,289.420 347.200,289.200 347.200 C 288.935 347.200,288.800 328.333,288.800 291.400 C 288.800 254.467,288.665 235.600,288.400 235.600 C 288.171 235.600,288.000 234.400,288.000 232.800 C 288.000 231.200,287.829 230.000,287.600 230.000 C 287.380 230.000,287.200 229.280,287.200 228.400 C 287.200 227.520,287.020 226.800,286.800 226.800 C 286.580 226.800,286.400 226.170,286.400 225.400 C 286.400 224.630,286.220 224.000,286.000 224.000 C 285.780 224.000,285.600 223.460,285.600 222.800 C 285.600 222.140,285.420 221.600,285.200 221.600 C 284.980 221.600,284.800 221.240,284.800 220.800 C 284.800 220.360,284.620 220.000,284.400 220.000 C 284.180 220.000,284.000 219.640,284.000 219.200 C 284.000 218.760,283.820 218.400,283.600 218.400 C 283.380 218.400,283.200 217.900,283.200 217.288 C 283.200 216.635,282.870 215.939,282.400 215.600 C 281.960 215.283,281.600 214.743,281.600 214.400 C 281.600 214.057,281.240 213.517,280.800 213.200 C 280.360 212.883,280.000 212.393,280.000 212.112 C 280.000 211.453,277.045 208.400,276.407 208.400 C 276.140 208.400,275.417 207.860,274.800 207.200 C 274.111 206.462,273.279 206.000,272.640 206.000 C 272.068 206.000,271.600 205.820,271.600 205.600 C 271.600 205.380,271.240 205.200,270.800 205.200 C 270.360 205.200,270.000 205.020,270.000 204.800 C 270.000 204.580,269.640 204.400,269.200 204.400 C 268.760 204.400,268.400 204.220,268.400 204.000 C 268.400 203.780,267.680 203.600,266.800 203.600 C 265.920 203.600,265.200 203.420,265.200 203.200 C 265.200 202.974,264.067 202.800,262.600 202.800 C 261.133 202.800,260.000 202.626,260.000 202.400 C 260.000 202.160,258.400 202.000,256.000 202.000 C 253.600 202.000,252.000 202.160,252.000 202.400 C 252.000 202.622,250.933 202.800,249.600 202.800 C 248.267 202.800,247.200 202.978,247.200 203.200 C 247.200 203.420,246.660 203.600,246.000 203.600 C 245.340 203.600,244.800 203.780,244.800 204.000 C 244.800 204.220,244.275 204.400,243.633 204.400 C 242.992 204.400,242.407 204.535,242.333 204.700 C 242.260 204.865,241.300 205.450,240.200 206.000 C 239.100 206.550,237.787 207.405,237.282 207.900 C 236.777 208.395,236.096 208.800,235.768 208.800 C 235.074 208.800,232.400 211.361,232.400 212.026 C 232.400 212.275,231.860 212.983,231.200 213.600 C 230.540 214.217,230.000 214.969,230.000 215.272 C 230.000 215.575,229.640 216.083,229.200 216.400 C 228.760 216.717,228.400 217.297,228.400 217.688 C 228.400 218.080,228.220 218.400,228.000 218.400 C 227.780 218.400,227.600 218.940,227.600 219.600 C 227.600 220.260,227.420 220.800,227.200 220.800 C 226.980 220.800,226.800 221.160,226.800 221.600 C 226.800 222.040,226.620 222.400,226.400 222.400 C 226.180 222.400,226.000 222.745,226.000 223.167 C 226.000 223.588,225.797 224.001,225.549 224.084 C 225.301 224.166,225.008 225.171,224.898 226.317 C 224.788 227.463,224.541 228.400,224.349 228.400 C 224.157 228.400,224.000 228.940,224.000 229.600 C 224.000 230.260,223.820 230.800,223.600 230.800 C 223.380 230.800,223.200 231.520,223.200 232.400 C 223.200 233.280,223.020 234.000,222.800 234.000 C 222.580 234.000,222.400 234.900,222.400 236.000 C 222.400 237.100,222.220 238.000,222.000 238.000 C 221.774 238.000,221.600 239.133,221.600 240.600 C 221.600 242.067,221.426 243.200,221.200 243.200 C 220.935 243.200,220.800 261.200,220.800 296.400 C 220.800 331.600,220.665 349.600,220.400 349.600 C 220.180 349.600,220.000 349.920,220.000 350.312 C 220.000 350.703,219.640 351.283,219.200 351.600 C 218.760 351.917,218.400 352.415,218.400 352.706 C 218.400 353.393,216.593 355.200,215.906 355.200 C 215.615 355.200,215.117 355.560,214.800 356.000 C 214.483 356.440,213.903 356.800,213.512 356.800 C 213.120 356.800,212.800 356.980,212.800 357.200 C 212.800 357.838,161.662 357.740,160.283 357.100 C 159.691 356.825,159.205 356.465,159.203 356.300 C 159.201 356.135,158.926 356.000,158.591 356.000 C 157.799 356.000,153.600 351.801,153.600 351.009 C 153.600 350.674,153.420 350.400,153.200 350.400 C 152.980 350.400,152.800 350.040,152.800 349.600 C 152.800 349.160,152.620 348.800,152.400 348.800 C 152.134 348.800,152.000 316.000,152.000 251.200 C 152.000 186.400,152.134 153.600,152.400 153.600 C 152.620 153.600,152.800 153.280,152.800 152.888 C 152.800 152.497,153.160 151.917,153.600 151.600 C 154.040 151.283,154.400 150.785,154.400 150.494 C 154.400 149.807,156.207 148.000,156.894 148.000 C 157.185 148.000,157.683 147.640,158.000 147.200 C 158.317 146.760,158.897 146.400,159.288 146.400 C 159.680 146.400,160.000 146.220,160.000 146.000 C 160.000 145.097,213.346 145.492,214.000 146.400 C 214.317 146.840,214.812 147.200,215.099 147.200 C 215.827 147.200,219.200 150.645,219.200 151.389 C 219.200 151.725,219.380 152.000,219.600 152.000 C 219.820 152.000,220.000 152.360,220.000 152.800 C 220.000 153.240,220.180 153.600,220.400 153.600 C 220.652 153.600,220.800 156.333,220.800 161.000 C 220.800 165.070,220.898 168.400,221.018 168.400 C 221.415 168.400,223.200 166.444,223.200 166.009 C 223.200 165.665,224.933 163.716,227.858 160.771 C 229.747 158.869,231.252 157.600,231.618 157.600 C 231.863 157.600,232.754 156.880,233.600 156.000 C 234.446 155.120,235.421 154.400,235.769 154.400 C 236.116 154.400,236.400 154.220,236.400 154.000 C 236.400 153.780,236.720 153.600,237.112 153.600 C 237.503 153.600,238.083 153.240,238.400 152.800 C 238.717 152.360,239.257 152.000,239.600 152.000 C 239.943 152.000,240.483 151.640,240.800 151.200 C 241.117 150.760,241.697 150.400,242.088 150.400 C 242.480 150.400,242.800 150.220,242.800 150.000 C 242.800 149.780,243.250 149.600,243.800 149.600 C 244.350 149.600,244.800 149.420,244.800 149.200 C 244.800 148.980,245.160 148.800,245.600 148.800 C 246.040 148.800,246.400 148.620,246.400 148.400 C 246.400 148.180,246.760 148.000,247.200 148.000 C 247.640 148.000,248.000 147.820,248.000 147.600 C 248.000 147.380,248.540 147.200,249.200 147.200 C 249.860 147.200,250.400 147.020,250.400 146.800 C 250.400 146.580,250.940 146.400,251.600 146.400 C 252.260 146.400,252.800 146.220,252.800 146.000 C 252.800 145.780,253.520 145.600,254.400 145.600 C 255.280 145.600,256.000 145.420,256.000 145.200 C 256.000 144.980,256.525 144.800,257.167 144.800 C 257.808 144.800,258.393 144.632,258.467 144.427 C 258.540 144.222,260.805 143.927,263.500 143.771 C 266.195 143.614,268.400 143.332,268.400 143.143 C 268.400 142.955,274.160 142.800,281.200 142.800 C 288.240 142.800,294.000 142.954,294.000 143.141 M116.800 146.000 C 116.800 146.220,117.160 146.400,117.600 146.400 C 118.040 146.400,118.400 146.580,118.400 146.800 C 118.400 147.020,118.674 147.200,119.009 147.200 C 119.782 147.200,124.000 151.390,124.000 152.158 C 124.000 152.474,124.225 152.808,124.500 152.900 C 124.898 153.033,125.000 173.109,125.000 251.500 L 125.000 349.933 124.100 350.713 C 123.605 351.143,123.200 351.704,123.200 351.960 C 123.200 352.599,120.552 355.200,119.902 355.200 C 119.613 355.200,119.117 355.560,118.800 356.000 C 118.461 356.470,117.765 356.800,117.112 356.800 C 116.500 356.800,116.000 356.980,116.000 357.200 C 116.000 357.673,65.343 357.772,65.133 357.300 C 65.060 357.135,64.176 356.583,63.168 356.072 C 62.161 355.562,61.081 354.771,60.768 354.314 C 60.456 353.858,59.615 352.886,58.900 352.155 C 58.125 351.363,57.600 350.417,57.600 349.813 C 57.600 349.256,57.420 348.800,57.200 348.800 C 56.934 348.800,56.800 316.000,56.800 251.200 C 56.800 186.400,56.934 153.600,57.200 153.600 C 57.420 153.600,57.600 153.324,57.600 152.987 C 57.600 152.649,58.185 151.755,58.900 151.000 C 59.615 150.245,60.880 148.901,61.711 148.013 C 62.543 147.126,63.488 146.400,63.811 146.400 C 64.135 146.400,64.400 146.220,64.400 146.000 C 64.400 145.737,73.400 145.600,90.600 145.600 C 107.800 145.600,116.800 145.737,116.800 146.000 " stroke="none" fill="#0474b4" fill-rule="evenodd"></path><path id="path3" d="M23.727 1.460 C 23.870 1.604,23.675 1.974,23.294 2.283 C 22.671 2.786,22.692 2.799,23.500 2.408 C 24.452 1.947,24.720 1.200,23.933 1.200 C 23.677 1.200,23.584 1.317,23.727 1.460 M379.211 3.185 C 378.709 3.502,378.726 3.597,379.328 3.828 C 379.717 3.977,380.147 3.987,380.284 3.849 C 380.421 3.712,380.313 3.600,380.043 3.600 C 379.773 3.600,379.664 3.420,379.800 3.200 C 380.104 2.707,379.971 2.704,379.211 3.185 M391.549 12.100 C 391.324 12.542,391.372 14.000,391.612 14.000 C 391.779 14.000,391.889 13.550,391.858 13.000 C 391.806 12.109,391.701 11.802,391.549 12.100 M2.146 23.398 C 2.019 23.726,1.755 23.896,1.558 23.774 C 1.361 23.652,1.200 23.743,1.200 23.976 C 1.200 24.684,1.945 24.450,2.400 23.600 C 2.635 23.160,2.726 22.800,2.602 22.800 C 2.477 22.800,2.272 23.069,2.146 23.398 M79.800 43.874 C 79.140 43.959,78.240 44.193,77.800 44.393 C 77.360 44.594,76.640 44.837,76.200 44.933 C 75.717 45.038,75.914 45.126,76.700 45.154 C 77.415 45.179,78.000 45.020,78.000 44.800 C 78.000 44.580,78.720 44.400,79.600 44.400 C 80.480 44.400,81.200 44.220,81.200 44.000 C 81.200 43.780,81.155 43.627,81.100 43.660 C 81.045 43.693,80.460 43.789,79.800 43.874 M101.052 44.084 C 101.159 44.258,101.676 44.400,102.200 44.400 C 102.724 44.400,103.264 44.580,103.400 44.800 C 103.536 45.020,104.087 45.200,104.624 45.200 C 105.161 45.200,105.600 45.380,105.600 45.600 C 105.600 45.820,106.140 46.000,106.800 46.000 C 107.460 46.000,108.000 46.180,108.000 46.400 C 108.000 46.620,108.405 46.799,108.900 46.798 C 109.725 46.795,109.704 46.745,108.654 46.198 C 108.024 45.869,107.180 45.600,106.778 45.600 C 106.376 45.600,105.936 45.420,105.800 45.200 C 105.664 44.980,105.113 44.800,104.576 44.800 C 104.039 44.800,103.600 44.640,103.600 44.444 C 103.600 44.248,102.983 44.015,102.228 43.927 C 101.473 43.839,100.944 43.910,101.052 44.084 M66.900 49.810 C 65.629 51.168,65.779 51.556,67.100 50.325 C 67.705 49.761,68.470 49.202,68.800 49.081 C 69.220 48.929,69.159 48.861,68.600 48.856 C 68.160 48.852,67.395 49.281,66.900 49.810 M64.060 51.842 C 63.762 52.178,63.599 52.532,63.695 52.629 C 63.792 52.726,64.198 52.444,64.598 52.002 C 64.997 51.561,65.161 51.207,64.962 51.215 C 64.763 51.224,64.357 51.505,64.060 51.842 M49.693 71.200 C 49.693 71.970,49.775 72.285,49.876 71.900 C 49.976 71.515,49.976 70.885,49.876 70.500 C 49.775 70.115,49.693 70.430,49.693 71.200 M48.893 73.600 C 48.893 74.370,48.975 74.685,49.076 74.300 C 49.176 73.915,49.176 73.285,49.076 72.900 C 48.975 72.515,48.893 72.830,48.893 73.600 M48.064 76.076 C 48.029 76.888,47.820 77.664,47.600 77.800 C 47.380 77.936,47.200 79.027,47.200 80.224 C 47.200 81.421,47.020 82.400,46.800 82.400 C 46.285 82.400,46.263 90.502,46.777 91.020 C 46.984 91.229,47.221 92.390,47.303 93.600 L 47.452 95.800 47.526 93.300 C 47.569 91.851,47.432 90.800,47.200 90.800 C 46.960 90.800,46.800 89.208,46.800 86.824 C 46.800 84.604,46.977 82.738,47.200 82.600 C 47.420 82.464,47.600 81.409,47.600 80.256 C 47.600 79.103,47.793 77.967,48.029 77.731 C 48.265 77.495,48.384 76.694,48.293 75.951 L 48.128 74.600 48.064 76.076 M48.109 97.200 C 48.109 98.190,48.187 98.595,48.282 98.100 C 48.378 97.605,48.378 96.795,48.282 96.300 C 48.187 95.805,48.109 96.210,48.109 97.200 M48.846 99.900 C 48.821 100.615,48.980 101.200,49.200 101.200 C 49.420 101.200,49.600 101.740,49.600 102.400 C 49.600 103.060,49.763 103.600,49.963 103.600 C 50.347 103.600,50.164 102.333,49.587 101.000 C 49.397 100.560,49.163 99.840,49.067 99.400 C 48.962 98.917,48.874 99.114,48.846 99.900 M121.400 117.600 C 119.429 119.580,117.619 121.200,117.378 121.200 C 117.137 121.200,116.503 121.670,115.970 122.244 C 115.436 122.818,114.640 123.436,114.200 123.618 C 113.469 123.921,113.464 123.951,114.140 123.975 C 114.546 123.989,115.383 123.460,116.000 122.800 C 116.617 122.140,117.326 121.600,117.576 121.600 C 117.998 121.600,125.200 114.595,125.200 114.185 C 125.200 113.812,124.917 114.067,121.400 117.600 M60.000 117.289 C 60.000 117.800,64.761 122.400,65.290 122.400 C 65.583 122.400,66.083 122.760,66.400 123.200 C 66.717 123.640,67.297 124.000,67.688 124.000 C 68.080 124.000,68.400 124.161,68.400 124.357 C 68.400 124.554,68.705 124.831,69.078 124.974 C 69.671 125.202,69.664 125.133,69.016 124.417 C 68.609 123.968,68.062 123.600,67.800 123.600 C 67.538 123.600,66.998 123.240,66.600 122.800 C 66.202 122.360,65.684 122.000,65.449 122.000 C 65.214 122.000,63.892 120.880,62.511 119.512 C 61.130 118.143,60.000 117.143,60.000 117.289 M260.600 144.000 L 258.200 144.266 260.700 144.333 C 262.145 144.372,263.200 144.231,263.200 144.000 C 263.200 143.780,263.155 143.630,263.100 143.667 C 263.045 143.704,261.920 143.854,260.600 144.000 M299.461 144.100 C 299.563 144.265,300.436 144.400,301.400 144.400 C 302.364 144.400,303.264 144.580,303.400 144.800 C 303.536 145.020,304.267 145.200,305.024 145.200 C 305.781 145.200,306.400 145.380,306.400 145.600 C 306.400 145.820,306.985 145.975,307.700 145.946 C 308.790 145.900,308.838 145.862,308.000 145.712 C 307.450 145.613,306.829 145.368,306.620 145.166 C 306.411 144.965,305.646 144.800,304.920 144.800 C 304.194 144.800,303.600 144.637,303.600 144.437 C 303.600 144.237,302.627 144.012,301.437 143.937 C 300.248 143.862,299.358 143.935,299.461 144.100 M256.500 145.076 C 256.885 145.176,257.515 145.176,257.900 145.076 C 258.285 144.975,257.970 144.893,257.200 144.893 C 256.430 144.893,256.115 144.975,256.500 145.076 M64.400 146.000 C 64.400 146.220,64.137 146.400,63.815 146.400 C 63.254 146.400,60.000 149.398,60.000 149.915 C 60.000 150.053,60.765 149.454,61.700 148.582 C 64.652 145.831,62.768 146.000,90.527 146.000 L 115.864 146.000 117.793 146.976 C 121.056 148.628,124.400 152.405,124.400 154.438 C 124.400 154.831,124.542 155.241,124.716 155.348 C 124.890 155.456,124.961 154.927,124.873 154.172 C 124.785 153.417,124.552 152.800,124.356 152.800 C 124.160 152.800,124.000 152.526,124.000 152.191 C 124.000 151.399,119.801 147.200,119.009 147.200 C 118.674 147.200,118.400 147.020,118.400 146.800 C 118.400 146.580,118.040 146.400,117.600 146.400 C 117.160 146.400,116.800 146.220,116.800 146.000 C 116.800 145.737,107.800 145.600,90.600 145.600 C 73.400 145.600,64.400 145.737,64.400 146.000 M173.300 145.900 C 180.725 145.961,192.875 145.961,200.300 145.900 C 207.725 145.839,201.650 145.789,186.800 145.789 C 171.950 145.789,165.875 145.839,173.300 145.900 M252.800 146.000 C 252.800 146.220,252.260 146.400,251.600 146.400 C 250.940 146.400,250.400 146.580,250.400 146.800 C 250.400 147.020,249.860 147.200,249.200 147.200 C 248.540 147.200,248.000 147.380,248.000 147.600 C 248.000 147.820,247.640 148.000,247.200 148.000 C 246.760 148.000,246.400 148.180,246.400 148.400 C 246.400 148.620,246.040 148.800,245.600 148.800 C 245.160 148.800,244.800 148.980,244.800 149.200 C 244.800 149.420,244.305 149.625,243.700 149.654 C 242.876 149.695,242.807 149.750,243.425 149.872 C 243.879 149.962,245.292 149.488,246.566 148.818 C 247.839 148.148,249.212 147.600,249.617 147.600 C 250.022 147.600,250.464 147.420,250.600 147.200 C 250.736 146.980,251.251 146.800,251.744 146.800 C 252.237 146.800,252.811 146.633,253.020 146.429 C 253.229 146.224,254.030 145.983,254.800 145.893 C 256.132 145.736,256.118 145.725,254.500 145.664 C 253.565 145.629,252.800 145.780,252.800 146.000 M309.300 146.676 C 309.685 146.776,310.315 146.776,310.700 146.676 C 311.085 146.575,310.770 146.493,310.000 146.493 C 309.230 146.493,308.915 146.575,309.300 146.676 M215.346 147.802 C 216.793 148.557,217.014 148.557,216.257 147.800 C 215.927 147.470,215.329 147.201,214.929 147.202 C 214.408 147.204,214.527 147.376,215.346 147.802 M311.700 147.476 C 312.085 147.576,312.715 147.576,313.100 147.476 C 313.485 147.375,313.170 147.293,312.400 147.293 C 311.630 147.293,311.315 147.375,311.700 147.476 M217.675 149.900 C 218.239 150.505,218.798 151.270,218.919 151.600 C 219.088 152.065,219.144 152.038,219.168 151.482 C 219.186 151.087,218.758 150.322,218.218 149.782 C 216.871 148.435,216.405 148.536,217.675 149.900 M316.000 149.093 C 316.550 149.194,317.180 149.411,317.400 149.576 C 318.147 150.136,319.200 150.376,319.200 149.987 C 319.200 149.774,318.840 149.600,318.400 149.600 C 317.960 149.600,317.600 149.420,317.600 149.200 C 317.600 148.980,317.015 148.825,316.300 148.854 C 315.203 148.900,315.156 148.938,316.000 149.093 M322.202 152.002 C 322.602 152.444,323.011 152.722,323.112 152.621 C 323.328 152.405,322.188 151.200,321.767 151.200 C 321.607 151.200,321.803 151.561,322.202 152.002 M220.400 161.400 C 220.400 165.763,220.505 169.228,220.633 169.100 C 220.905 168.828,220.857 153.924,220.584 153.651 C 220.483 153.549,220.400 157.037,220.400 161.400 M227.829 160.629 C 227.462 160.995,227.252 161.385,227.362 161.495 C 227.472 161.605,227.862 161.395,228.229 161.029 C 228.595 160.662,228.805 160.272,228.695 160.162 C 228.585 160.052,228.195 160.262,227.829 160.629 M336.308 163.708 C 338.339 165.747,340.000 167.609,340.000 167.846 C 340.000 168.082,340.368 168.609,340.817 169.016 C 341.533 169.664,341.602 169.671,341.374 169.078 C 341.231 168.705,340.954 168.400,340.757 168.400 C 340.561 168.400,340.400 168.123,340.400 167.785 C 340.400 167.194,333.462 160.000,332.892 160.000 C 332.740 160.000,334.277 161.668,336.308 163.708 M353.264 194.076 C 353.229 194.888,353.380 195.664,353.600 195.800 C 353.820 195.936,354.000 196.656,354.000 197.400 C 354.000 198.144,354.180 198.864,354.400 199.000 C 354.620 199.136,354.800 199.831,354.800 200.544 C 354.800 201.257,354.969 202.011,355.175 202.220 C 355.381 202.429,355.619 203.410,355.705 204.400 L 355.860 206.200 355.930 204.100 C 355.969 202.920,355.825 202.000,355.600 202.000 C 355.380 202.000,355.200 201.280,355.200 200.400 C 355.200 199.520,355.020 198.800,354.800 198.800 C 354.580 198.800,354.400 198.206,354.400 197.480 C 354.400 196.754,354.233 195.989,354.029 195.780 C 353.824 195.571,353.583 194.770,353.493 194.000 L 353.328 192.600 353.264 194.076 M249.400 202.400 L 247.000 202.666 249.500 202.733 C 250.945 202.772,252.000 202.631,252.000 202.400 C 252.000 202.180,251.955 202.030,251.900 202.067 C 251.845 202.104,250.720 202.254,249.400 202.400 M262.500 202.697 C 263.985 202.774,265.200 203.008,265.200 203.218 C 265.200 203.428,265.920 203.600,266.800 203.600 C 267.680 203.600,268.400 203.780,268.400 204.000 C 268.400 204.220,268.760 204.400,269.200 204.400 C 269.640 204.400,270.000 204.580,270.000 204.800 C 270.000 205.020,270.405 205.199,270.900 205.198 C 271.550 205.197,271.253 204.919,269.832 204.198 C 268.750 203.649,267.366 203.200,266.756 203.200 C 266.146 203.200,265.536 203.020,265.400 202.800 C 265.264 202.580,263.948 202.435,262.476 202.478 L 259.800 202.557 262.500 202.697 M245.300 203.476 C 245.685 203.576,246.315 203.576,246.700 203.476 C 247.085 203.375,246.770 203.293,246.000 203.293 C 245.230 203.293,244.915 203.375,245.300 203.476 M242.900 204.276 C 243.285 204.376,243.915 204.376,244.300 204.276 C 244.685 204.175,244.370 204.093,243.600 204.093 C 242.830 204.093,242.515 204.175,242.900 204.276 M240.797 205.100 C 240.794 205.422,238.916 206.386,238.220 206.422 C 237.800 206.444,235.750 208.800,236.151 208.800 C 236.268 208.800,236.777 208.392,237.282 207.893 C 237.787 207.395,239.190 206.497,240.400 205.898 C 241.916 205.149,242.320 204.809,241.700 204.805 C 241.205 204.802,240.799 204.935,240.797 205.100 M272.100 205.876 C 272.485 205.976,273.115 205.976,273.500 205.876 C 273.885 205.775,273.570 205.693,272.800 205.693 C 272.030 205.693,271.715 205.775,272.100 205.876 M356.520 208.000 C 356.520 209.210,356.595 209.705,356.687 209.100 C 356.778 208.495,356.778 207.505,356.687 206.900 C 356.595 206.295,356.520 206.790,356.520 208.000 M357.280 212.820 C 357.236 214.481,357.373 216.013,357.584 216.224 C 357.795 216.435,358.027 218.316,358.101 220.404 L 358.234 224.200 358.317 220.100 C 358.366 217.696,358.242 216.000,358.017 216.000 C 357.806 216.000,357.572 214.605,357.497 212.900 L 357.361 209.800 357.280 212.820 M224.509 226.800 C 224.509 227.790,224.587 228.195,224.682 227.700 C 224.778 227.205,224.778 226.395,224.682 225.900 C 224.587 225.405,224.509 225.810,224.509 226.800 M223.693 229.600 C 223.693 230.370,223.775 230.685,223.876 230.300 C 223.976 229.915,223.976 229.285,223.876 228.900 C 223.775 228.515,223.693 228.830,223.693 229.600 M222.867 232.076 C 222.830 232.888,222.620 233.664,222.400 233.800 C 222.180 233.936,222.000 234.811,222.000 235.744 C 222.000 236.677,221.811 237.629,221.579 237.861 C 221.340 238.100,221.221 239.383,221.302 240.841 L 221.446 243.400 221.523 240.700 C 221.565 239.215,221.780 238.000,222.000 238.000 C 222.220 238.000,222.400 237.115,222.400 236.033 C 222.400 234.952,222.593 234.002,222.830 233.923 C 223.078 233.841,223.191 233.109,223.097 232.190 L 222.934 230.600 222.867 232.076 M220.594 296.400 C 220.594 325.770,220.642 337.785,220.700 323.100 C 220.758 308.415,220.758 284.385,220.700 269.700 C 220.642 255.015,220.594 267.030,220.594 296.400 M124.667 347.867 C 124.520 348.013,124.400 348.525,124.400 349.005 C 124.400 349.484,124.040 350.202,123.600 350.600 C 123.160 350.998,122.800 351.531,122.800 351.784 C 122.800 352.351,120.318 354.800,119.743 354.800 C 119.513 354.800,118.998 355.160,118.600 355.600 C 118.202 356.040,117.465 356.400,116.962 356.400 C 116.459 356.400,115.936 356.580,115.800 356.800 C 115.640 357.060,106.875 357.200,90.814 357.200 L 66.076 357.200 64.338 356.300 C 63.382 355.805,62.330 355.130,62.000 354.799 C 61.056 353.854,60.000 353.080,60.000 353.333 C 60.000 353.886,62.200 355.689,63.634 356.310 C 64.495 356.683,65.200 357.126,65.200 357.294 C 65.200 357.462,76.630 357.600,90.600 357.600 C 107.267 357.600,116.000 357.462,116.000 357.200 C 116.000 356.980,116.500 356.800,117.112 356.800 C 117.765 356.800,118.461 356.470,118.800 356.000 C 119.117 355.560,119.613 355.200,119.902 355.200 C 120.552 355.200,123.200 352.599,123.200 351.960 C 123.200 351.704,123.534 351.203,123.942 350.847 C 124.350 350.491,124.769 349.615,124.872 348.900 C 125.076 347.500,125.069 347.464,124.667 347.867 M219.646 350.051 C 219.621 350.409,219.326 350.930,218.990 351.208 C 218.655 351.486,218.466 351.800,218.571 351.905 C 218.958 352.291,220.052 350.776,219.876 350.099 C 219.721 349.509,219.686 349.501,219.646 350.051 M358.027 350.900 C 357.490 352.269,354.355 355.129,352.193 356.224 L 350.264 357.200 323.932 357.200 C 306.644 357.200,297.600 357.063,297.600 356.800 C 297.600 356.580,297.280 356.400,296.888 356.400 C 296.497 356.400,295.917 356.040,295.600 355.600 C 295.283 355.160,294.658 354.814,294.212 354.832 C 293.629 354.854,293.569 354.928,294.000 355.092 C 294.330 355.217,294.690 355.452,294.800 355.614 C 296.152 357.599,296.165 357.600,324.612 357.600 C 342.071 357.600,351.200 357.463,351.200 357.200 C 351.200 356.980,351.560 356.800,352.000 356.800 C 352.440 356.800,352.800 356.620,352.800 356.400 C 352.800 356.180,353.074 356.000,353.409 356.000 C 354.220 356.000,358.206 351.984,358.496 350.875 C 358.795 349.731,358.479 349.748,358.027 350.900 M217.199 353.802 C 216.683 354.351,216.044 354.800,215.779 354.800 C 215.515 354.800,215.074 355.070,214.800 355.400 C 214.456 355.815,214.441 356.000,214.751 356.000 C 214.998 356.000,215.200 355.820,215.200 355.600 C 215.200 355.380,215.478 355.200,215.818 355.200 C 216.463 355.200,218.615 353.281,218.311 352.977 C 218.215 352.882,217.714 353.252,217.199 353.802 M160.151 357.005 C 161.147 357.525,164.802 357.591,187.151 357.500 L 213.000 357.394 186.900 357.297 C 169.831 357.234,160.800 357.062,160.800 356.800 C 160.800 356.580,160.395 356.401,159.900 356.402 C 159.077 356.405,159.099 356.457,160.151 357.005 M3.046 379.423 C 2.916 379.763,2.972 379.941,3.170 379.818 C 3.369 379.695,3.623 379.821,3.734 380.098 C 3.860 380.410,3.949 380.344,3.968 379.924 C 4.011 379.013,3.343 378.650,3.046 379.423 M12.246 391.525 C 12.153 391.676,12.509 391.826,13.038 391.858 C 13.567 391.889,14.000 391.793,14.000 391.643 C 14.000 391.279,12.462 391.176,12.246 391.525 " stroke="none" fill="#047cb9" fill-rule="evenodd"></path><path id="path4" d="M84.980 43.175 C 84.771 43.381,83.790 43.619,82.800 43.705 L 81.000 43.860 82.876 43.930 C 83.908 43.969,84.864 43.820,85.000 43.600 C 85.145 43.366,87.463 43.200,90.600 43.200 C 93.737 43.200,96.055 43.366,96.200 43.600 C 96.336 43.820,97.416 44.000,98.600 44.000 C 99.784 44.000,100.864 44.180,101.000 44.400 C 101.136 44.620,101.676 44.800,102.200 44.800 C 102.724 44.800,103.264 44.980,103.400 45.200 C 103.536 45.420,104.132 45.575,104.724 45.546 C 105.799 45.491,105.799 45.491,104.800 45.312 C 104.250 45.213,103.629 44.968,103.420 44.766 C 103.211 44.565,102.637 44.400,102.144 44.400 C 101.651 44.400,101.136 44.220,101.000 44.000 C 100.864 43.780,99.784 43.600,98.600 43.600 C 97.416 43.600,96.336 43.420,96.200 43.200 C 95.884 42.689,85.497 42.665,84.980 43.175 M78.000 44.800 C 78.000 45.020,77.460 45.200,76.800 45.200 C 76.140 45.200,75.600 45.363,75.600 45.563 C 75.600 45.948,76.877 45.762,78.200 45.183 C 78.640 44.991,79.450 44.760,80.000 44.671 C 80.691 44.559,80.537 44.492,79.500 44.454 C 78.675 44.425,78.000 44.580,78.000 44.800 M67.200 50.200 C 66.683 50.750,66.041 51.200,65.772 51.200 C 65.061 51.200,55.200 61.085,55.200 61.798 C 55.200 62.129,55.050 62.400,54.868 62.400 C 54.685 62.400,54.281 62.895,53.970 63.500 C 53.660 64.105,53.089 64.891,52.703 65.247 C 52.316 65.603,52.000 66.100,52.000 66.352 C 52.000 66.835,51.173 68.459,50.754 68.800 C 50.416 69.075,49.897 70.800,50.153 70.800 C 50.266 70.800,50.906 69.654,51.575 68.253 C 52.243 66.852,53.062 65.480,53.395 65.204 C 53.728 64.928,54.000 64.482,54.000 64.213 C 54.000 63.944,54.360 63.398,54.800 63.000 C 55.240 62.602,55.600 62.076,55.600 61.832 C 55.600 61.268,65.267 51.600,65.831 51.600 C 66.062 51.600,66.768 51.060,67.400 50.400 C 68.032 49.740,68.457 49.200,68.345 49.200 C 68.232 49.200,67.717 49.650,67.200 50.200 M115.478 51.202 C 116.181 51.861,116.913 52.400,117.103 52.400 C 117.294 52.400,117.968 52.940,118.600 53.600 C 120.214 55.285,120.655 55.105,119.090 53.400 C 118.384 52.630,117.611 52.000,117.372 52.000 C 117.134 52.000,116.517 51.550,116.000 51.000 C 115.483 50.450,114.867 50.001,114.630 50.002 C 114.394 50.003,114.775 50.543,115.478 51.202 M123.319 58.317 C 124.133 59.151,124.800 60.020,124.800 60.247 C 124.800 60.475,125.250 61.083,125.800 61.600 C 126.350 62.117,126.800 62.368,126.800 62.158 C 126.800 61.948,126.440 61.517,126.000 61.200 C 125.560 60.883,125.200 60.387,125.200 60.098 C 125.200 59.549,122.643 56.800,122.132 56.800 C 121.970 56.800,122.504 57.483,123.319 58.317 M127.254 63.051 C 127.225 63.519,127.470 64.126,127.800 64.400 C 128.215 64.744,128.400 64.759,128.400 64.449 C 128.400 64.202,128.233 64.000,128.028 64.000 C 127.823 64.000,127.578 63.595,127.482 63.100 C 127.316 62.238,127.307 62.236,127.254 63.051 M128.846 65.220 C 128.789 65.990,129.693 67.993,130.100 67.997 C 130.265 67.999,130.400 68.360,130.400 68.800 C 130.400 69.240,130.580 69.600,130.800 69.600 C 131.020 69.600,131.200 69.960,131.200 70.400 C 131.200 70.840,131.380 71.200,131.600 71.200 C 131.820 71.200,132.000 71.639,132.000 72.176 C 132.000 72.713,132.180 73.264,132.400 73.400 C 132.620 73.536,132.800 74.256,132.800 75.000 C 132.800 75.744,132.980 76.464,133.200 76.600 C 133.420 76.736,133.600 77.456,133.600 78.200 C 133.600 78.944,133.780 79.664,134.000 79.800 C 134.239 79.948,134.400 82.596,134.400 86.400 C 134.400 90.204,134.239 92.852,134.000 93.000 C 133.780 93.136,133.600 94.047,133.600 95.024 C 133.600 96.001,133.420 96.800,133.200 96.800 C 132.980 96.800,132.800 97.520,132.800 98.400 C 132.800 99.280,132.665 100.001,132.500 100.003 C 132.158 100.007,131.200 101.929,131.200 102.612 C 131.200 103.202,129.455 106.643,128.712 107.519 C 128.394 107.894,127.846 108.833,127.493 109.606 C 127.140 110.379,126.390 111.446,125.826 111.976 C 125.262 112.506,124.800 113.130,124.800 113.362 C 124.800 113.595,123.135 115.498,121.100 117.592 L 117.400 121.400 121.300 117.608 C 123.445 115.522,125.200 113.632,125.200 113.407 C 125.200 113.182,125.740 112.488,126.400 111.865 C 127.060 111.242,127.600 110.477,127.600 110.166 C 127.600 109.855,127.780 109.600,128.000 109.600 C 128.220 109.600,128.400 109.280,128.400 108.888 C 128.400 108.497,128.760 107.917,129.200 107.600 C 129.640 107.283,130.000 106.703,130.000 106.312 C 130.000 105.920,130.180 105.600,130.400 105.600 C 130.620 105.600,130.800 105.240,130.800 104.800 C 130.800 104.360,130.980 104.000,131.200 104.000 C 131.420 104.000,131.600 103.645,131.600 103.212 C 131.600 102.779,131.960 101.783,132.400 101.000 C 132.840 100.217,133.200 99.052,133.200 98.411 C 133.200 97.771,133.380 97.136,133.600 97.000 C 133.820 96.864,134.000 95.964,134.000 95.000 C 134.000 94.036,134.180 93.136,134.400 93.000 C 134.639 92.852,134.800 90.204,134.800 86.400 C 134.800 82.596,134.639 79.948,134.400 79.800 C 134.180 79.664,134.000 78.944,134.000 78.200 C 134.000 77.456,133.820 76.736,133.600 76.600 C 133.380 76.464,133.200 75.744,133.200 75.000 C 133.200 74.256,133.020 73.536,132.800 73.400 C 132.580 73.264,132.400 72.829,132.400 72.433 C 132.400 71.737,130.070 66.807,129.549 66.400 C 129.408 66.290,129.203 65.840,129.093 65.400 C 128.967 64.898,128.876 64.831,128.846 65.220 M50.108 103.100 C 50.193 103.265,50.748 104.416,51.341 105.659 C 51.933 106.901,52.684 108.138,53.009 108.408 C 53.334 108.677,53.600 109.118,53.600 109.387 C 53.600 109.656,53.960 110.202,54.400 110.600 C 54.840 110.998,55.200 111.524,55.200 111.768 C 55.200 112.012,57.495 114.459,60.300 117.206 L 65.400 122.200 60.500 117.194 C 57.805 114.441,55.600 111.994,55.600 111.756 C 55.600 111.518,55.240 110.998,54.800 110.600 C 54.360 110.202,54.000 109.656,54.000 109.387 C 54.000 109.118,53.728 108.672,53.395 108.396 C 53.062 108.120,52.243 106.748,51.575 105.347 C 50.906 103.946,50.268 102.800,50.156 102.800 C 50.044 102.800,50.023 102.935,50.108 103.100 M115.772 122.031 C 115.358 122.488,114.261 123.208,113.334 123.630 C 112.407 124.052,111.544 124.567,111.416 124.774 C 111.114 125.262,108.830 126.400,108.151 126.400 C 107.861 126.400,107.011 126.745,106.261 127.166 C 105.511 127.587,104.471 128.012,103.949 128.111 C 103.203 128.253,103.278 128.303,104.300 128.346 C 105.015 128.375,105.600 128.220,105.600 128.000 C 105.600 127.780,105.960 127.600,106.400 127.600 C 106.840 127.600,107.200 127.420,107.200 127.200 C 107.200 126.980,107.740 126.800,108.400 126.800 C 109.060 126.800,109.600 126.620,109.600 126.400 C 109.600 126.180,109.920 126.000,110.312 126.000 C 110.703 126.000,111.283 125.640,111.600 125.200 C 111.917 124.760,112.497 124.400,112.888 124.400 C 113.280 124.400,113.600 124.220,113.600 124.000 C 113.600 123.780,113.836 123.600,114.125 123.600 C 114.414 123.600,115.168 123.060,115.800 122.400 C 116.432 121.740,116.854 121.200,116.737 121.200 C 116.620 121.200,116.186 121.574,115.772 122.031 M66.562 122.700 C 66.981 123.195,67.544 123.600,67.813 123.600 C 68.082 123.600,68.519 123.862,68.785 124.182 C 69.413 124.939,74.800 127.600,75.704 127.600 C 76.087 127.600,76.400 127.780,76.400 128.000 C 76.400 128.220,76.760 128.400,77.200 128.400 C 77.640 128.400,78.000 128.580,78.000 128.800 C 78.000 129.020,78.720 129.200,79.600 129.200 C 80.480 129.200,81.200 129.380,81.200 129.600 C 81.200 129.820,82.179 130.000,83.376 130.000 C 84.573 130.000,85.664 130.180,85.800 130.400 C 85.943 130.632,88.130 130.800,91.000 130.800 C 93.870 130.800,96.057 130.632,96.200 130.400 C 96.336 130.180,97.211 130.000,98.144 130.000 C 99.077 130.000,100.011 129.833,100.220 129.629 C 100.429 129.424,101.230 129.183,102.000 129.093 C 103.332 128.936,103.318 128.925,101.700 128.864 C 100.765 128.829,100.000 128.980,100.000 129.200 C 100.000 129.420,99.201 129.600,98.224 129.600 C 97.247 129.600,96.336 129.780,96.200 130.000 C 96.057 130.232,93.863 130.400,90.976 130.400 C 87.925 130.400,86.000 130.245,86.000 130.000 C 86.000 129.780,85.021 129.600,83.824 129.600 C 82.627 129.600,81.536 129.420,81.400 129.200 C 81.264 128.980,80.629 128.800,79.989 128.800 C 79.348 128.800,78.183 128.440,77.400 128.000 C 76.617 127.560,75.758 127.200,75.491 127.200 C 74.747 127.200,69.331 124.440,68.785 123.782 C 68.519 123.462,68.113 123.200,67.883 123.200 C 67.652 123.200,67.089 122.885,66.631 122.500 C 65.801 121.801,65.801 121.801,66.562 122.700 M268.580 143.179 C 268.371 143.387,267.030 143.623,265.600 143.702 L 263.000 143.846 265.676 143.923 C 267.148 143.965,268.464 143.820,268.600 143.600 C 268.756 143.347,273.396 143.200,281.200 143.200 C 289.004 143.200,293.644 143.347,293.800 143.600 C 293.936 143.820,295.196 144.000,296.600 144.000 C 298.004 144.000,299.264 144.180,299.400 144.400 C 299.536 144.620,300.411 144.800,301.344 144.800 C 302.277 144.800,303.233 144.993,303.469 145.229 C 303.705 145.465,304.506 145.584,305.249 145.493 L 306.600 145.328 305.124 145.264 C 304.312 145.229,303.536 145.020,303.400 144.800 C 303.264 144.580,302.364 144.400,301.400 144.400 C 300.436 144.400,299.536 144.220,299.400 144.000 C 299.264 143.780,297.993 143.600,296.576 143.600 C 295.125 143.600,294.000 143.425,294.000 143.200 C 294.000 142.673,269.109 142.652,268.580 143.179 M258.400 144.800 C 258.400 145.020,257.860 145.200,257.200 145.200 C 256.540 145.200,256.000 145.363,256.000 145.563 C 256.000 145.951,257.295 145.759,258.600 145.176 C 259.040 144.980,260.210 144.756,261.200 144.679 C 262.838 144.552,262.793 144.533,260.700 144.470 C 259.387 144.430,258.400 144.572,258.400 144.800 M213.402 146.802 C 213.802 147.244,214.211 147.522,214.312 147.421 C 214.528 147.205,213.388 146.000,212.967 146.000 C 212.807 146.000,213.003 146.361,213.402 146.802 M60.587 149.700 C 59.051 151.295,57.571 153.003,57.297 153.495 C 56.655 154.650,56.559 348.204,57.200 348.600 C 57.420 348.736,57.600 349.255,57.600 349.754 C 57.600 350.253,58.095 351.097,58.700 351.630 L 59.800 352.600 58.900 351.574 C 58.405 351.010,58.000 350.166,58.000 349.698 C 58.000 349.230,57.820 348.736,57.600 348.600 C 56.959 348.204,57.055 154.650,57.697 153.495 C 57.971 153.003,59.451 151.295,60.987 149.700 C 62.523 148.105,63.690 146.800,63.580 146.800 C 63.470 146.800,62.123 148.105,60.587 149.700 M157.830 147.652 C 157.407 148.063,157.249 148.400,157.481 148.400 C 157.943 148.400,159.009 147.265,158.757 147.042 C 158.671 146.966,158.254 147.240,157.830 147.652 M121.002 149.600 C 123.278 152.102,124.000 153.250,124.000 154.371 C 124.000 154.801,124.180 155.264,124.400 155.400 C 124.954 155.743,124.954 347.457,124.400 347.800 C 124.180 347.936,124.000 348.427,124.000 348.892 C 124.000 349.357,123.685 350.111,123.300 350.569 C 122.601 351.399,122.601 351.399,123.500 350.638 C 123.995 350.219,124.400 349.465,124.400 348.962 C 124.400 348.459,124.580 347.936,124.800 347.800 C 125.354 347.457,125.354 155.743,124.800 155.400 C 124.580 155.264,124.400 154.831,124.400 154.438 C 124.400 153.160,123.280 151.441,121.119 149.400 L 119.000 147.400 121.002 149.600 M216.783 149.354 C 217.764 150.369,218.637 151.200,218.723 151.200 C 219.047 151.200,216.565 148.492,215.800 148.011 C 215.360 147.734,215.802 148.339,216.783 149.354 M154.446 150.451 C 154.421 150.809,154.134 151.323,153.808 151.593 C 151.900 153.177,152.000 147.680,152.000 251.183 L 152.000 347.843 153.035 349.919 C 154.054 351.964,154.800 352.854,154.800 352.024 C 154.800 351.791,154.620 351.600,154.400 351.600 C 154.180 351.600,154.000 351.240,154.000 350.800 C 154.000 350.360,153.820 350.000,153.600 350.000 C 153.380 350.000,153.200 349.640,153.200 349.200 C 153.200 348.760,153.020 348.400,152.800 348.400 C 152.534 348.400,152.400 315.733,152.400 251.200 C 152.400 186.667,152.534 154.000,152.800 154.000 C 153.020 154.000,153.200 153.706,153.200 153.347 C 153.200 152.988,153.575 152.368,154.034 151.971 C 154.516 151.553,154.789 150.942,154.680 150.524 C 154.529 149.939,154.484 149.925,154.446 150.451 M242.186 150.381 C 241.738 150.562,241.131 151.001,240.837 151.355 C 240.543 151.710,240.076 152.000,239.800 152.000 C 239.524 152.000,239.066 152.279,238.784 152.620 C 238.501 152.961,237.534 153.576,236.635 153.988 C 235.736 154.399,234.460 155.328,233.800 156.053 C 233.140 156.777,232.960 157.107,233.400 156.785 C 233.840 156.464,234.491 155.886,234.847 155.501 C 235.203 155.115,235.788 154.800,236.147 154.800 C 236.506 154.800,236.800 154.620,236.800 154.400 C 236.800 154.180,237.036 154.000,237.325 154.000 C 237.613 154.000,238.198 153.685,238.625 153.300 C 239.051 152.915,239.895 152.345,240.500 152.032 C 241.105 151.720,241.600 151.315,241.600 151.132 C 241.600 150.950,241.859 150.800,242.176 150.800 C 242.493 150.800,242.864 150.620,243.000 150.400 C 243.284 149.940,243.274 149.940,242.186 150.381 M318.400 150.166 C 318.400 150.284,319.181 150.736,320.135 151.170 C 321.089 151.605,322.101 152.239,322.384 152.580 C 322.666 152.921,323.118 153.200,323.387 153.200 C 323.656 153.200,324.202 153.560,324.600 154.000 C 324.998 154.440,325.532 154.800,325.787 154.800 C 326.042 154.800,326.768 155.340,327.400 156.000 C 328.032 156.660,328.750 157.200,328.994 157.200 C 329.238 157.200,331.815 159.600,334.719 162.533 C 337.624 165.466,340.000 167.759,340.000 167.628 C 340.000 167.202,329.403 156.800,328.969 156.800 C 328.739 156.800,328.032 156.260,327.400 155.600 C 326.768 154.940,326.042 154.400,325.787 154.400 C 325.532 154.400,324.998 154.040,324.600 153.600 C 324.202 153.160,323.656 152.800,323.387 152.800 C 323.118 152.800,322.671 152.527,322.394 152.193 C 322.117 151.859,321.240 151.288,320.445 150.925 C 319.650 150.562,318.865 150.195,318.700 150.109 C 318.535 150.023,318.400 150.049,318.400 150.166 M223.200 166.122 C 223.200 166.408,222.573 167.251,221.806 167.994 C 221.039 168.737,220.496 169.429,220.598 169.531 C 220.879 169.812,223.600 166.722,223.600 166.122 C 223.600 165.835,223.510 165.600,223.400 165.600 C 223.290 165.600,223.200 165.835,223.200 166.122 M340.900 169.422 C 341.505 170.094,342.000 170.837,342.000 171.073 C 342.000 171.309,342.273 171.729,342.607 172.006 C 342.941 172.283,343.512 173.160,343.874 173.955 C 344.237 174.750,344.792 175.704,345.106 176.075 C 346.002 177.131,350.000 185.291,350.000 186.062 C 350.000 186.442,350.180 186.864,350.400 187.000 C 350.620 187.136,350.800 187.687,350.800 188.224 C 350.800 188.761,350.980 189.200,351.200 189.200 C 351.420 189.200,351.600 189.740,351.600 190.400 C 351.600 191.060,351.749 191.600,351.931 191.600 C 352.356 191.600,352.021 189.260,351.554 188.971 C 351.359 188.851,351.200 188.349,351.200 187.856 C 351.200 187.363,351.051 186.789,350.870 186.580 C 350.688 186.371,350.299 185.435,350.006 184.500 C 349.712 183.565,349.321 182.800,349.136 182.800 C 348.951 182.800,348.800 182.440,348.800 182.000 C 348.800 181.560,348.620 181.200,348.400 181.200 C 348.180 181.200,348.000 180.840,348.000 180.400 C 348.000 179.960,347.820 179.600,347.600 179.600 C 347.380 179.600,347.200 179.240,347.200 178.800 C 347.200 178.360,347.020 178.000,346.800 178.000 C 346.580 178.000,346.400 177.764,346.400 177.475 C 346.400 177.187,346.079 176.602,345.687 176.175 C 345.295 175.749,344.668 174.750,344.294 173.955 C 343.921 173.160,343.341 172.283,343.007 172.006 C 342.673 171.729,342.400 171.288,342.400 171.026 C 342.400 170.764,341.815 170.021,341.100 169.375 L 339.800 168.200 340.900 169.422 M251.462 201.900 C 251.360 202.065,253.312 202.200,255.800 202.200 C 258.288 202.200,260.240 202.065,260.138 201.900 C 260.036 201.735,258.084 201.600,255.800 201.600 C 253.516 201.600,251.564 201.735,251.462 201.900 M274.800 206.567 C 274.800 207.135,275.954 208.000,276.671 207.968 C 277.231 207.944,277.261 207.886,276.800 207.716 C 276.470 207.595,275.885 207.221,275.500 206.886 C 275.115 206.550,274.800 206.407,274.800 206.567 M236.600 207.600 C 236.202 208.040,235.670 208.400,235.419 208.400 C 234.918 208.400,232.000 211.249,232.000 211.739 C 232.000 211.906,231.461 212.619,230.802 213.322 C 230.143 214.025,229.603 214.803,229.602 215.051 C 229.601 215.299,229.327 215.729,228.993 216.006 C 228.096 216.751,227.104 219.044,227.320 219.876 C 227.478 220.489,227.514 220.472,227.554 219.761 C 227.612 218.707,228.629 216.640,229.408 215.993 C 229.734 215.723,230.000 215.288,230.000 215.026 C 230.000 214.764,230.540 214.032,231.200 213.400 C 231.860 212.768,232.400 212.049,232.400 211.804 C 232.400 211.250,234.887 208.800,235.449 208.800 C 235.675 208.800,236.283 208.350,236.800 207.800 C 237.317 207.250,237.646 206.800,237.532 206.800 C 237.417 206.800,236.998 207.160,236.600 207.600 M278.164 209.400 C 278.714 209.950,279.293 210.400,279.452 210.400 C 279.610 210.400,279.317 209.950,278.800 209.400 C 278.283 208.850,277.704 208.400,277.512 208.400 C 277.320 208.400,277.614 208.850,278.164 209.400 M356.731 212.899 C 356.803 214.495,357.028 215.971,357.231 216.180 C 357.434 216.389,357.600 218.223,357.600 220.256 C 357.600 222.289,357.780 224.064,358.000 224.200 C 358.241 224.349,358.400 227.130,358.400 231.200 C 358.400 235.270,358.559 238.051,358.800 238.200 C 359.064 238.363,359.200 257.063,359.200 293.000 C 359.200 328.937,359.064 347.637,358.800 347.800 C 358.580 347.936,358.400 348.399,358.400 348.829 C 358.400 349.950,357.678 351.098,355.402 353.600 L 353.400 355.800 355.519 353.800 C 357.680 351.759,358.800 350.040,358.800 348.762 C 358.800 348.369,358.980 347.936,359.200 347.800 C 359.464 347.637,359.600 328.937,359.600 293.000 C 359.600 257.063,359.464 238.363,359.200 238.200 C 358.958 238.050,358.800 235.196,358.800 230.976 C 358.800 226.592,358.651 224.000,358.400 224.000 C 358.162 224.000,358.000 222.475,358.000 220.224 C 358.000 218.137,357.821 216.337,357.600 216.200 C 357.380 216.064,357.200 214.613,357.200 212.976 C 357.200 211.339,357.065 210.000,356.900 209.999 C 356.735 209.999,356.659 211.304,356.731 212.899 M280.400 212.167 C 280.400 212.588,281.605 213.728,281.821 213.512 C 281.922 213.411,281.644 213.002,281.202 212.602 C 280.761 212.203,280.400 212.007,280.400 212.167 M282.000 214.738 C 282.000 214.992,282.177 215.200,282.392 215.200 C 282.608 215.200,282.907 215.686,283.056 216.280 C 283.205 216.874,283.838 218.332,284.463 219.521 C 285.089 220.709,285.600 222.012,285.600 222.417 C 285.600 222.822,285.780 223.264,286.000 223.400 C 286.220 223.536,286.400 224.256,286.400 225.000 C 286.400 225.744,286.580 226.464,286.800 226.600 C 287.020 226.736,287.200 227.456,287.200 228.200 C 287.200 228.944,287.380 229.664,287.600 229.800 C 287.820 229.936,288.000 231.196,288.000 232.600 C 288.000 234.004,288.180 235.264,288.400 235.400 C 288.664 235.563,288.800 254.596,288.800 291.200 C 288.800 327.804,288.936 346.837,289.200 347.000 C 289.420 347.136,289.600 347.845,289.600 348.575 C 289.600 349.308,289.889 350.142,290.245 350.437 C 290.599 350.731,291.038 351.338,291.219 351.786 C 291.448 352.350,291.557 352.408,291.575 351.975 C 291.589 351.632,291.240 350.964,290.800 350.492 C 290.360 350.020,290.000 349.097,290.000 348.440 C 290.000 347.784,289.820 347.136,289.600 347.000 C 289.336 346.837,289.200 327.729,289.200 290.976 C 289.200 254.059,289.065 235.200,288.800 235.200 C 288.575 235.200,288.400 234.075,288.400 232.624 C 288.400 231.207,288.220 229.936,288.000 229.800 C 287.780 229.664,287.600 228.944,287.600 228.200 C 287.600 227.456,287.420 226.736,287.200 226.600 C 286.980 226.464,286.800 225.744,286.800 225.000 C 286.800 224.256,286.620 223.536,286.400 223.400 C 286.180 223.264,286.000 222.822,286.000 222.417 C 286.000 222.012,285.460 220.655,284.800 219.400 C 284.140 218.145,283.600 216.805,283.600 216.421 C 283.600 216.038,283.240 215.398,282.800 215.000 C 282.346 214.589,282.000 214.476,282.000 214.738 M224.900 223.938 C 224.405 224.975,224.000 226.303,224.000 226.888 C 224.000 227.474,223.841 228.051,223.646 228.171 C 223.179 228.460,222.844 230.800,223.269 230.800 C 223.451 230.800,223.600 230.260,223.600 229.600 C 223.600 228.940,223.780 228.400,224.000 228.400 C 224.220 228.400,224.400 227.680,224.400 226.800 C 224.400 225.920,224.580 225.200,224.800 225.200 C 225.020 225.200,225.200 224.855,225.200 224.433 C 225.200 224.012,225.401 223.600,225.646 223.518 C 225.891 223.436,226.026 223.073,225.946 222.711 C 225.853 222.293,225.471 222.741,224.900 223.938 M218.662 351.131 C 218.298 351.534,218.000 352.019,218.000 352.210 C 218.000 352.400,217.505 353.106,216.900 353.778 L 215.800 355.000 217.100 353.825 C 217.815 353.179,218.400 352.473,218.400 352.257 C 218.400 352.040,218.698 351.534,219.062 351.131 C 219.426 350.729,219.634 350.400,219.524 350.400 C 219.414 350.400,219.026 350.729,218.662 351.131 M121.178 353.500 L 119.800 355.000 121.300 353.622 C 122.696 352.338,122.984 352.000,122.678 352.000 C 122.612 352.000,121.937 352.675,121.178 353.500 M156.800 354.167 C 156.800 354.588,158.005 355.728,158.221 355.512 C 158.322 355.411,158.044 355.002,157.602 354.602 C 157.161 354.203,156.800 354.007,156.800 354.167 M65.462 356.900 C 65.564 357.065,76.876 357.200,90.600 357.200 C 104.324 357.200,115.636 357.065,115.738 356.900 C 115.840 356.735,104.528 356.600,90.600 356.600 C 76.672 356.600,65.360 356.735,65.462 356.900 M160.800 356.900 C 160.800 357.065,172.500 357.200,186.800 357.200 C 201.100 357.200,212.800 357.065,212.800 356.900 C 212.800 356.735,201.100 356.600,186.800 356.600 C 172.500 356.600,160.800 356.735,160.800 356.900 M324.200 356.800 L 297.400 357.009 324.076 357.104 C 341.533 357.167,350.838 357.062,351.000 356.800 C 351.136 356.580,351.192 356.443,351.124 356.496 C 351.056 356.548,338.940 356.685,324.200 356.800 " stroke="none" fill="#4474d8" fill-rule="evenodd"></path></g></svg>